<svg width="643" height="534" viewBox="0 0 643 534" fill="none" xmlns="http://www.w3.org/2000/svg">
<path d="M88.3789 365.261C88.3789 365.261 402.103 132.913 491 139.409C545.269 143.406 576.279 248.338 576.279 248.338C576.279 248.338 541.651 222.854 504.438 226.352C421.743 226.852 88.3789 365.261 88.3789 365.261Z" fill="#E4E4E4"/>
<path d="M196.4 201.869C196.4 201.869 368.509 0.501417 438.283 0.00174575C481.181 -0.497926 512.192 106.432 512.192 106.432C512.192 106.432 483.765 88.9433 454.822 93.4404C390.217 99.4364 196.4 201.869 196.4 201.869Z" fill="#E4E4E4"/>
<path d="M0 533.15C0 533.15 433.632 260.329 551.472 288.81C623.83 306.299 643.47 453.702 643.47 453.702C643.47 453.702 602.123 412.229 551.472 408.232C452.238 392.742 67.7065 511.164 0 533.15Z" fill="#E4E4E4"/>
</svg>
