<svg width="1173" height="972" viewBox="0 0 1173 972" fill="none" xmlns="http://www.w3.org/2000/svg">
<path d="M160.985 665.335C160.985 665.335 732.444 242.107 894.373 253.939C993.225 261.22 1049.71 452.356 1049.71 452.356C1049.71 452.356 986.635 405.937 918.85 412.308C768.219 413.218 160.985 665.335 160.985 665.335Z" fill="#E4E4E4"/>
<path d="M357.75 367.711C357.75 367.711 671.252 0.913348 798.347 0.00317993C876.488 -0.906988 932.974 193.869 932.974 193.869C932.974 193.869 881.195 162.013 828.474 170.205C710.793 181.127 357.75 367.711 357.75 367.711Z" fill="#E4E4E4"/>
<path d="M0 971.15C0 971.15 789.874 474.198 1004.52 526.077C1136.33 557.933 1172.1 826.433 1172.1 826.433C1172.1 826.433 1096.79 750.889 1004.52 743.608C823.766 715.392 123.33 931.102 0 971.15Z" fill="#E4E4E4"/>
</svg>
