<svg width="326" height="46" viewBox="0 0 326 46" fill="none" xmlns="http://www.w3.org/2000/svg">
<path d="M317.253 16.1628H312.286V13.5464H325.999V16.1628H321.077V28.9494H317.209V16.1628H317.253ZM294.969 13.5464H298.881L306.66 24.0542V13.5464H310.089V28.9494H306.177L298.397 18.2728V28.9494H294.969V13.5464ZM279.849 13.5464H292.112V16.1628H283.717V19.7076H291.277V22.324H283.717V26.2908H292.332V28.9072H279.849V13.5464ZM257.873 13.5464H263.367L267.323 24.5606L271.235 13.5464H276.421V28.9494H272.949V17.5554H272.861L268.817 28.9494H265.741L261.565 17.5554H261.477V28.9494H257.961V13.5464H257.873ZM248.687 21.3956C249.698 21.3956 250.401 21.269 250.797 21.058C251.192 20.8048 251.412 20.425 251.412 19.8764V17.3866C251.412 16.8802 251.236 16.5426 250.797 16.3738C250.401 16.205 249.698 16.1206 248.599 16.1206H246.182V21.3534H248.687V21.3956ZM242.358 13.5464H248.775C250.357 13.5464 251.588 13.6308 252.467 13.8418C253.39 14.0528 254.049 14.4326 254.489 14.939C254.928 15.4454 255.148 16.1628 255.148 17.0912V20.003C255.148 21.0158 254.928 21.8176 254.445 22.3662C254.005 22.957 253.302 23.3368 252.291 23.59C251.324 23.8432 250.006 23.9276 248.336 23.9276H246.226V28.9494H242.358V13.5464ZM231.678 26.544C232.205 26.544 232.688 26.544 233.04 26.5018C233.436 26.4596 233.787 26.3752 234.183 26.2486C234.578 26.122 234.886 25.9532 235.062 25.7C235.282 25.4468 235.37 25.1092 235.37 24.6872V17.9352C235.37 17.2178 235.062 16.7114 234.447 16.3738C233.831 16.0362 232.908 15.9096 231.59 15.9096C230.315 15.9096 229.348 16.0784 228.733 16.3738C228.117 16.6692 227.81 17.2178 227.81 17.9352V24.6872C227.81 25.067 227.898 25.4046 228.117 25.7C228.337 25.9532 228.645 26.122 229.04 26.2486C229.436 26.3752 229.832 26.4596 230.183 26.5018C230.667 26.544 231.106 26.544 231.678 26.544ZM231.59 29.2026C230.711 29.2026 229.875 29.1604 229.128 29.0338C228.381 28.9072 227.59 28.7384 226.799 28.443C225.92 28.1476 225.26 27.6834 224.733 27.0504C224.25 26.4174 223.986 25.6156 223.986 24.6872V17.9352C223.986 17.1756 224.162 16.5004 224.513 15.9096C224.865 15.3188 225.348 14.8124 225.92 14.4748C226.403 14.1794 227.019 13.9262 227.766 13.7152C228.513 13.5042 229.172 13.3776 229.788 13.3354C230.359 13.2932 230.974 13.251 231.634 13.251C232.381 13.251 233.04 13.2932 233.611 13.3354C234.183 13.3776 234.798 13.5042 235.501 13.673C236.293 13.884 236.952 14.1794 237.435 14.4748C237.963 14.8124 238.358 15.2344 238.71 15.8252C239.062 16.416 239.237 17.1334 239.237 17.9352V24.6872C239.237 25.5312 239.018 26.2908 238.534 26.8816C238.051 27.5146 237.435 27.9788 236.6 28.2742C235.106 28.9072 233.436 29.2026 231.59 29.2026ZM210.009 13.5464H213.877V26.333H221.788V28.9494H210.053V13.5464H210.009ZM194.889 13.5464H207.152V16.1628H198.757V19.7076H206.317V22.324H198.757V26.2908H207.372V28.9072H194.889V13.5464ZM176.737 13.5464H180.649L184.956 25.8688H185.044L189.351 13.5464H193.175L187.242 28.9494H182.495L176.737 13.5464ZM163.375 13.5464H175.638V16.1628H167.243V19.7076H174.803V22.324H167.243V26.2908H175.858V28.9072H163.375V13.5464ZM152.475 26.2908C153.53 26.2908 154.321 26.2486 154.849 26.1642C155.376 26.0798 155.772 25.911 155.991 25.6578C156.255 25.4046 156.343 25.0248 156.343 24.4762V18.1462C156.343 17.4288 156.035 16.9224 155.42 16.627C154.805 16.3316 153.882 16.1628 152.563 16.1628H149.618V26.2908H152.475ZM145.794 13.5464H152.607C154.497 13.5464 155.991 13.673 157.046 13.9684C158.145 14.2216 158.936 14.728 159.464 15.4032C159.991 16.0784 160.211 17.0068 160.211 18.2306V24.4762C160.211 25.6578 159.991 26.544 159.508 27.2192C159.024 27.8522 158.233 28.3164 157.178 28.5696C156.079 28.8228 154.585 28.9494 152.651 28.9494H145.794V13.5464ZM130.279 29.2026C128.741 29.2026 126.851 29.076 124.609 28.7806V25.9532C127.422 26.3752 129.312 26.5862 130.367 26.5862C132.521 26.5862 133.576 26.0376 133.576 24.9826V23.9698C133.576 23.4634 133.4 23.0836 133.092 22.7882C132.785 22.535 132.257 22.3662 131.466 22.3662H129.576C126.06 22.3662 124.302 21.0158 124.302 18.315V17.1756C124.302 15.8252 124.873 14.8546 126.06 14.2216C127.247 13.5886 129.093 13.251 131.642 13.251C132.96 13.251 134.631 13.3354 136.652 13.5464V16.2894C134.147 15.994 132.433 15.8674 131.51 15.8674C130.191 15.8674 129.312 15.9518 128.873 16.1628C128.389 16.3738 128.17 16.7536 128.17 17.2178V18.315C128.17 19.1168 128.873 19.5388 130.279 19.5388H132.213C134.059 19.5388 135.378 19.8764 136.213 20.5094C137.048 21.1424 137.443 22.1552 137.443 23.4634V24.4762C137.443 26.333 136.74 27.5568 135.378 28.1898C134.718 28.5274 133.971 28.7384 133.18 28.865C132.345 29.1182 131.422 29.2026 130.279 29.2026ZM117.753 13.5464H121.621V28.9494H117.753V13.5464ZM106.765 16.1628H101.798V13.5464H115.511V16.1628H110.589V28.9494H106.721V16.1628H106.765ZM88.7002 13.5464H92.568V26.333H100.479V28.9494H88.7442V13.5464H88.7002ZM80.7448 22.4084L78.6791 16.627H78.5912L76.5693 22.4084H80.7448ZM76.4375 13.5464H81.1404L86.9421 28.9494H83.0304L81.5799 24.8982H75.7343L74.3278 28.9494H70.5039L76.4375 13.5464Z" fill="#004994"/>
<path d="M7.51562 30.8484C7.51562 30.8484 34.1948 11.2254 41.7546 11.774C46.3696 12.1116 49.0067 20.9736 49.0067 20.9736C49.0067 20.9736 46.0619 18.8214 42.8973 19.1168C35.865 19.159 7.51562 30.8484 7.51562 30.8484Z" fill="#004994"/>
<path d="M16.7012 17.049C16.7012 17.049 31.3373 0.0423475 37.2709 0.000147438C40.919 -0.0420526 43.5561 8.98876 43.5561 8.98876C43.5561 8.98876 41.1387 7.51176 38.6774 7.89156C33.1833 8.39796 16.7012 17.049 16.7012 17.049Z" fill="#004994"/>
<path d="M0 45.0277C0 45.0277 36.8761 21.9864 46.8973 24.3919C53.0506 25.8689 54.7208 38.3179 54.7208 38.3179C54.7208 38.3179 51.2046 34.8153 46.8973 34.4777C38.4584 33.1695 5.75777 43.1709 0 45.0277Z" fill="#004994"/>
</svg>
