<svg width="55" height="46" viewBox="0 0 55 46" fill="none" xmlns="http://www.w3.org/2000/svg">
<path d="M7.51562 30.8484C7.51562 30.8484 34.1948 11.2254 41.7546 11.774C46.3696 12.1116 49.0067 20.9736 49.0067 20.9736C49.0067 20.9736 46.0619 18.8214 42.8973 19.1168C35.865 19.159 7.51562 30.8484 7.51562 30.8484Z" fill="#004994"/>
<path d="M16.7012 17.049C16.7012 17.049 31.3373 0.0423475 37.2709 0.000147438C40.919 -0.0420526 43.5561 8.98876 43.5561 8.98876C43.5561 8.98876 41.1387 7.51176 38.6774 7.89156C33.1833 8.39796 16.7012 17.049 16.7012 17.049Z" fill="#004994"/>
<path d="M0 45.0277C0 45.0277 36.8761 21.9864 46.8973 24.3919C53.0506 25.8689 54.7208 38.3179 54.7208 38.3179C54.7208 38.3179 51.2046 34.8153 46.8973 34.4777C38.4584 33.1695 5.75777 43.1709 0 45.0277Z" fill="#004994"/>
</svg>
