<svg width="105" height="23" viewBox="0 0 105 23" fill="none" xmlns="http://www.w3.org/2000/svg">
<path d="M34.826 9C33.9297 9 32.8286 8.92857 31.5226 8.7619V7.16667C33.1615 7.40476 34.2626 7.52381 34.8772 7.52381C36.132 7.52381 36.7465 7.21429 36.7465 6.61905V6.04762C36.7465 5.76191 36.6441 5.54762 36.4649 5.38095C36.2856 5.2381 35.9783 5.14286 35.5174 5.14286H34.4163C32.3677 5.14286 31.3434 4.38095 31.3434 2.85714V2.21429C31.3434 1.45238 31.6763 0.904762 32.3677 0.547619C33.0591 0.190476 34.1346 0 35.6198 0C36.388 0 37.3611 0.0476188 38.5391 0.166666V1.71429C37.0794 1.54762 36.0808 1.47619 35.543 1.47619C34.7748 1.47619 34.2626 1.52381 34.0066 1.64286C33.7249 1.7619 33.5968 1.97619 33.5968 2.2381V2.85714C33.5968 3.30952 34.0066 3.54762 34.826 3.54762H35.9527C37.0282 3.54762 37.7964 3.7381 38.283 4.09524C38.7695 4.45238 39 5.02381 39 5.76191V6.33333C39 7.38095 38.5903 8.07143 37.7965 8.42857C37.4123 8.61905 36.977 8.7381 36.5161 8.80953C36.0295 8.95238 35.4918 9 34.826 9ZM27.5279 0.166666H29.7814V8.85714H27.5279V0.166666ZM21.1261 1.64286H18.2324V0.166666H26.2219V1.64286H23.3539V8.85714H21.1005V1.64286H21.1261ZM10.6014 0.166666H12.8549V7.38095H17.4642V8.85714H10.6271V0.166666H10.6014ZM5.96651 5.16667L4.76297 1.90476H4.71175L3.53382 5.16667H5.96651ZM3.45699 0.166666H6.19698L9.57715 8.85714H7.29809L6.45306 6.57143H3.04728L2.22784 8.85714H0L3.45699 0.166666Z" fill="#004994"/>
<path d="M97.0097 15.6429H99.8781V22.8571H102.132V15.6429H105V14.1667H97.0097V15.6429Z" fill="#004994"/>
<path d="M89.1988 14.1667H86.9195V22.8571H88.9171V16.8333L93.45 22.8571H95.7292V14.1667H93.7317V20.0952L89.1988 14.1667Z" fill="#004994"/>
<path d="M85.2549 14.1667H78.1098V22.8333H85.3829V21.3571H80.3634V19.119H84.7683V17.6429H80.3634V15.6429H85.2549V14.1667Z" fill="#004994"/>
<path d="M68.5061 14.1667H65.3561V22.8571H67.4049V16.4286H67.4561L69.889 22.8571H71.6817L74.0378 16.4286H74.089V22.8571H76.1122V14.1667H73.0902L70.811 20.381L68.5061 14.1667Z" fill="#004994"/>
<path d="M39.6695 14.1667H37.4415V22.8571H44.2793V21.381H39.6695V14.1667Z" fill="#004994"/>
<path d="M35.7512 14.1667H28.6061V22.8333H35.8793V21.3571H30.8598V19.119H35.2646V17.6429H30.8598V15.6429H35.7512V14.1667Z" fill="#004994"/>
<path d="M20.3085 14.1667H18.0293L21.3841 22.8571H24.15L27.6073 14.1667H25.3793L22.8695 21.119H22.8183L20.3085 14.1667Z" fill="#004994"/>
<path d="M17.389 14.1667H10.2439V22.8333H17.5171V21.3571H12.4976V19.119H16.9024V17.6429H12.4976V15.6429H17.389V14.1667Z" fill="#004994"/>
<path fill-rule="evenodd" clip-rule="evenodd" d="M0 14.1667H3.96951C5.07073 14.1667 5.94146 14.2381 6.55609 14.4048C7.19633 14.5476 7.65731 14.8333 7.96463 15.2143C8.27194 15.5952 8.39999 16.119 8.39999 16.8095V20.3333C8.39999 21 8.27194 21.5 7.99024 21.881C7.70853 22.2381 7.24756 22.5 6.63293 22.6429C5.99268 22.7857 5.12194 22.8571 3.99512 22.8571H0V14.1667ZM5.2756 21.2857C4.96829 21.3333 4.50731 21.3571 3.89268 21.3571H2.22804V15.6429H3.9439C4.71219 15.6429 5.25 15.7381 5.60854 15.9048C5.96707 16.0714 6.14634 16.3571 6.14634 16.7619V20.3333C6.14634 20.6429 6.09512 20.8571 5.94146 21C5.81341 21.1429 5.58292 21.2381 5.2756 21.2857Z" fill="#004994"/>
<path fill-rule="evenodd" clip-rule="evenodd" d="M49.9902 23C49.478 23 48.9915 22.9762 48.5561 22.9048C48.1207 22.8333 47.6598 22.7381 47.1988 22.5714C46.6866 22.4048 46.3024 22.1429 45.9951 21.7857C45.7134 21.4286 45.5597 20.9762 45.5597 20.4524V16.6429C45.5597 16.2143 45.6622 15.8333 45.8671 15.5C46.0719 15.1667 46.3537 14.881 46.6866 14.6905C46.9683 14.5238 47.3268 14.381 47.7622 14.2619C48.1976 14.1429 48.5817 14.0714 48.9402 14.0476C49.2732 14.0238 49.6317 14 50.0158 14C50.4512 14 50.8354 14.0238 51.1683 14.0476C51.5012 14.0714 51.8597 14.1429 52.2695 14.2381C52.7305 14.3571 53.1146 14.5238 53.3963 14.6905C53.7037 14.881 53.9341 15.119 54.139 15.4524C54.3439 15.7857 54.4463 16.1905 54.4463 16.6429V20.4524C54.4463 20.9286 54.3183 21.3571 54.0366 21.6905C53.7549 22.0476 53.3963 22.3095 52.9097 22.4762C52.039 22.8333 51.0658 23 49.9902 23ZM50.8354 21.4762C50.6305 21.5 50.3488 21.5 50.0415 21.5C49.7085 21.5 49.4524 21.5 49.1707 21.4762C48.9659 21.4524 48.7354 21.4048 48.5049 21.3333C48.2744 21.2619 48.0951 21.1667 47.9671 21.0238C47.839 20.8571 47.7878 20.6667 47.7878 20.4524V16.6429C47.7878 16.2381 47.9671 15.9286 48.3256 15.7619C48.6841 15.5952 49.2476 15.5 49.9902 15.5C50.7585 15.5 51.2963 15.5714 51.6549 15.7619C52.0134 15.9524 52.1927 16.2381 52.1927 16.6429V20.4524C52.1927 20.6905 52.1415 20.881 52.0134 21.0238C51.911 21.1667 51.7317 21.2619 51.5012 21.3333C51.2707 21.4048 51.0658 21.4524 50.8354 21.4762Z" fill="#004994"/>
<path fill-rule="evenodd" clip-rule="evenodd" d="M56.2646 14.1667H60.0037C60.9256 14.1667 61.6427 14.2143 62.1549 14.3333C62.6927 14.4524 63.0768 14.6667 63.3329 14.9524C63.589 15.2381 63.7171 15.6429 63.7171 16.1667V17.8095C63.7171 18.381 63.589 18.8333 63.3073 19.1429C63.0512 19.4762 62.6415 19.6905 62.0524 19.8333C61.489 19.9762 60.7207 20.0238 59.7476 20.0238H58.5183V22.8571H56.2646V14.1667ZM61.1817 18.4048C60.9512 18.5238 60.5415 18.5952 59.9524 18.5952V18.5714H58.4927V15.619H59.9012C60.5414 15.619 60.9512 15.6667 61.1817 15.7619C61.4378 15.8571 61.5402 16.0476 61.5402 16.3333V17.7381C61.5402 18.0476 61.4122 18.2619 61.1817 18.4048Z" fill="#004994"/>
</svg>
