<svg width="199" height="97" viewBox="0 0 199 97" fill="none" xmlns="http://www.w3.org/2000/svg">
<path d="M118.316 22.5835C117.597 22.5835 117.014 21.9863 117.014 21.2495C117.014 20.5139 117.597 19.9161 118.316 19.9161C119.035 19.9161 119.618 20.5139 119.618 21.2495C119.618 21.9863 119.035 22.5835 118.316 22.5835Z" fill="#8D9FB0"/>
<path d="M80.4517 22.5835C79.7332 22.5835 79.1499 21.9863 79.1499 21.2495C79.1499 20.5139 79.7332 19.9161 80.4517 19.9161C81.1701 19.9161 81.7534 20.5139 81.7534 21.2495C81.7534 21.9863 81.1701 22.5835 80.4517 22.5835Z" fill="#8D9FB0"/>
<path d="M99.3833 20.1487C98.6649 20.1487 98.0815 19.5522 98.0815 18.8147C98.0815 18.0791 98.6649 17.4813 99.3833 17.4813C100.102 17.4813 100.685 18.0791 100.685 18.8147C100.685 19.5522 100.102 20.1487 99.3833 20.1487Z" fill="#8D9FB0"/>
<path d="M128.908 28.0084C128.908 28.0084 126.009 26.7467 120.836 25.3624C115.022 23.8063 106.774 23.1236 99.385 23.1097C91.9957 23.1236 83.7984 24.0316 77.9344 25.3624C73.0847 26.4623 69.8623 28.0084 69.8623 28.0084L64.04 21.6977C64.04 21.6977 70.3805 22.5956 73.5502 21.2503C76.7198 19.905 78.2322 13.9611 78.2322 13.9611C78.2322 13.9611 85.2782 19.518 89.4229 19.2631C93.5682 19.0064 99.385 10.8961 99.385 10.8961C99.385 10.8961 105.202 19.0064 109.347 19.2631C113.492 19.518 120.538 13.9611 120.538 13.9611C120.538 13.9611 122.051 19.905 125.22 21.2503C128.39 22.5956 134.73 21.6977 134.73 21.6977L128.908 28.0084ZM127.285 31.3402C126.927 32.5704 126.364 39.5097 125.711 41.0948C124.111 39.7734 112.717 36.8367 99.4218 36.8367C99.4095 36.8367 99.3978 36.8373 99.385 36.8373C99.3721 36.8373 99.3604 36.8367 99.3475 36.8367C86.0525 36.8367 74.6591 39.7734 73.0589 41.0948C72.4062 39.5097 71.8923 32.5534 71.4846 31.3402C71.2911 30.7645 71.6448 30.2554 71.6448 30.2554C73.4875 27.6887 85.1026 24.6514 99.1934 24.6514H99.5765C113.668 24.6514 125.282 27.6887 127.125 30.2554C127.125 30.2554 127.436 30.8211 127.285 31.3402ZM99.5538 45.5996C99.4967 45.5996 99.4421 45.5989 99.385 45.5989C99.3278 45.5989 99.2732 45.5996 99.2161 45.5996C86.2514 45.5996 76.5215 43.8943 74.4755 42.7894C75.7502 41.5416 85.8984 38.9107 99.2161 38.9107C99.2732 38.9107 99.3285 38.9119 99.385 38.9119C99.4414 38.9119 99.4973 38.9107 99.5538 38.9107C112.872 38.9107 123.02 41.5416 124.294 42.7894C122.249 43.8943 112.518 45.5996 99.5538 45.5996ZM145.125 14.7017C144.818 14.2782 140.676 15.2555 139.446 15.0591C138.421 14.6791 137.842 13.4942 136.927 13.4627C135.716 13.4206 134.826 14.2392 134.826 15.4342C134.826 15.5789 134.842 15.7192 134.869 15.8564C134.089 18.0455 130.518 19.8962 128.24 19.5356C124.869 19.002 124.169 16.261 123.547 13.9856C123.249 12.8901 124.915 13.1922 125.168 11.6323C125.376 10.3486 124.666 9.3047 123.029 8.84534C123.86 8.59176 124.461 7.90714 124.461 7.09478C124.461 6.06723 124.273 4.71309 122.843 4.43623C121.545 4.18642 120.202 6.06723 120.202 7.09478C120.202 7.72088 120.559 8.27336 121.102 8.61001C118.643 8.66098 116.788 9.43558 116.981 11.0628C117.051 11.6537 117.46 12.125 117.293 12.556C117.124 12.987 113.059 16.6851 110.382 16.6851C107.475 16.6851 103.37 12.9367 103.049 11.5423C102.984 11.5404 104.859 10.4713 104.996 9.35C105.247 7.29111 103.461 5.67521 101.328 5.06169C101.552 4.70176 101.685 4.27199 101.685 3.80761C101.685 2.55415 100.671 4.57764e-05 99.4949 4.57764e-05C99.458 4.57764e-05 99.4218 0.00885391 99.385 0.0138893C99.3481 0.00885391 99.3119 4.57764e-05 99.2744 4.57764e-05C98.0986 4.57764e-05 97.0854 2.55415 97.0854 3.80761C97.0854 4.27199 97.2174 4.70176 97.4422 5.06169C95.3084 5.67521 93.5228 7.29111 93.7739 9.35C93.9109 10.4713 95.7855 11.5404 95.721 11.5423C95.3999 12.9367 91.2957 16.6851 88.3876 16.6851C85.7105 16.6851 81.6456 12.987 81.4779 12.556C81.3097 12.125 81.7186 11.6537 81.7886 11.0628C81.9808 9.43558 80.1271 8.66098 77.6679 8.61001C78.2113 8.27336 78.568 7.72088 78.568 7.09478C78.568 6.06723 77.2245 4.18642 75.9265 4.43623C74.497 4.71309 74.3091 6.06723 74.3091 7.09478C74.3091 7.90714 74.909 8.59176 75.7404 8.84534C74.1034 9.3047 73.3936 10.3486 73.6017 11.6323C73.8547 13.1922 75.5212 12.8901 75.2228 13.9856C74.6014 16.261 73.9008 19.002 70.5304 19.5356C68.2523 19.8962 64.6811 18.0455 63.9013 15.8564C63.9283 15.7192 63.9436 15.5789 63.9436 15.4342C63.9436 14.2392 63.0539 13.4206 61.843 13.4627C60.9281 13.4942 60.3491 14.6791 59.3237 15.0591C58.0938 15.2555 53.9515 14.2782 53.6451 14.7017C53.6451 14.7017 53.3682 15.0075 53.3682 15.4474C53.3682 15.7916 68.3555 28.4979 69.5037 30.0654C70.6169 31.5863 71.9991 41.025 72.6181 42.9744C72.6494 43.2021 72.736 43.4236 72.8889 43.6218C74.5928 45.8223 87.8768 47.3004 99.2161 47.3004C99.2726 47.3004 99.3291 47.2998 99.385 47.2998C99.4414 47.2998 99.4973 47.3004 99.5538 47.3004C110.893 47.3004 124.178 45.8223 125.88 43.6218C126.034 43.4236 126.121 43.2021 126.151 42.9744C126.771 41.025 128.153 31.5863 129.266 30.0654C130.414 28.4979 145.401 15.7916 145.401 15.4474C145.401 15.0075 145.125 14.7017 145.125 14.7017Z" fill="#8D9FB0"/>
<path d="M99.3839 26.4905C97.4312 26.4905 95.8477 28.3637 95.8477 30.6718C95.8477 32.9811 97.4312 34.8531 99.3839 34.8531C101.337 34.8531 102.92 32.9811 102.92 30.6718C102.92 28.3637 101.337 26.4905 99.3839 26.4905Z" fill="#8D9FB0"/>
<path d="M115.134 36.6431C116.75 37.1093 118.499 35.8924 119.04 33.9241C119.58 31.9552 118.707 29.9793 117.091 29.515C115.473 29.0499 113.725 30.2669 113.184 32.2358C112.643 34.2041 113.516 36.1774 115.134 36.6431Z" fill="#8D9FB0"/>
<path d="M83.6345 36.6431C82.0183 37.1093 80.269 35.8924 79.7286 33.9241C79.1877 31.9552 80.0608 29.9793 81.6769 29.515C83.2949 29.0499 85.0431 30.2669 85.584 32.2358C86.1256 34.2041 85.2518 36.1774 83.6345 36.6431Z" fill="#8D9FB0"/>
<path d="M5.02462 78.3657C5.42251 78.4191 5.77067 78.4512 6.06848 78.4619C6.3669 78.4726 6.71505 78.4783 7.11294 78.4783C8.02294 78.4783 8.88443 78.3392 9.69556 78.0605C10.5067 77.7817 11.2128 77.3777 11.8152 76.8473C12.417 76.3168 12.8934 75.6719 13.2441 74.9111C13.5947 74.1503 13.7703 73.2883 13.7703 72.3243C13.7703 71.2854 13.6076 70.4019 13.2833 69.6733C12.9585 68.9446 12.5035 68.3531 11.9171 67.8975C11.3307 67.4426 10.6295 67.1135 9.81346 66.9096C8.99679 66.7057 8.09662 66.6038 7.11294 66.6038C6.53698 66.6038 6.10532 66.6976 5.81734 66.8851C5.52936 67.0732 5.3255 67.3381 5.20515 67.6804C5.0848 68.0234 5.02462 68.433 5.02462 68.91V70.5089V78.3657ZM6.17102 79.7494H5.67611C5.45137 79.7494 5.23401 79.7443 5.02462 79.733V84.5058C5.02462 85.108 5.01664 85.6246 5.00067 86.0544C4.98532 86.4842 4.95646 86.8391 4.91471 87.1185L7.88171 86.9574V88.4216H0V87.3437C0.607277 87.3223 1.06289 87.2097 1.36622 87.0058C1.66955 86.802 1.88446 86.5226 2.00973 86.1689C2.1356 85.814 2.20069 85.3924 2.20622 84.9041C2.21113 84.4159 2.2142 83.8816 2.2142 83.3015V69.0516C2.2142 68.6004 2.22218 68.1738 2.23753 67.7717C2.2535 67.369 2.28236 67.0009 2.32411 66.6686L0 66.8133V65.3491C1.13105 65.3277 2.29279 65.3139 3.48586 65.3088C4.67892 65.3038 5.90883 65.3006 7.17558 65.3006C10.2949 65.3006 12.6656 65.8374 14.2879 66.9096C16.0256 68.0788 16.8945 69.7897 16.8945 72.0424C16.8945 72.5036 16.8447 73.0133 16.7453 73.5708C16.6458 74.129 16.4444 74.7047 16.1404 75.3006C15.8371 75.8959 15.4208 76.4647 14.8927 77.0059C14.364 77.5476 13.699 78.0196 12.8984 78.4223C12.0977 78.8244 11.1428 79.1459 10.0333 79.3876C8.92372 79.6286 7.6361 79.7494 6.17102 79.7494Z" fill="#8D9FB0"/>
<path d="M25.064 72.718C23.8077 72.718 22.7718 73.0949 21.9558 73.8487C21.1391 74.6026 20.5994 75.8239 20.3384 77.5128H28.5339C28.5339 76.9358 28.4713 76.3613 28.3454 75.7887C28.2201 75.2167 28.0181 74.7039 27.7412 74.2496C27.4636 73.7959 27.1051 73.4265 26.6654 73.1433C26.2258 72.8596 25.6922 72.718 25.064 72.718ZM31.5642 78.7034L20.2439 78.8965C20.2334 80.1651 20.3274 81.3147 20.5269 82.3467C20.7253 83.378 21.0396 84.2596 21.4689 84.9908C21.8981 85.7213 22.4501 86.2858 23.1249 86.6834C23.8003 87.0805 24.609 87.2793 25.5509 87.2793C26.0532 87.2793 26.5659 87.2095 27.0897 87.0692C27.6129 86.9288 28.1182 86.7376 28.6045 86.4947C29.0914 86.2518 29.5391 85.9604 29.9474 85.6206C30.3551 85.2808 30.6953 84.9171 30.9679 84.5283L31.7527 85.1877C31.313 85.8742 30.8028 86.4563 30.2219 86.9332C29.641 87.4108 29.0386 87.8003 28.416 88.0999C27.7934 88.4006 27.1683 88.6177 26.5401 88.7518C25.912 88.8858 25.3256 88.9531 24.7816 88.9531C23.672 88.9531 22.6386 88.7486 21.6807 88.3415C20.7228 87.9337 19.8932 87.3492 19.192 86.5878C18.4908 85.8264 17.9382 84.909 17.5354 83.8361C17.1326 82.7639 16.9312 81.557 16.9312 80.2161C16.9312 79.057 17.1246 77.9501 17.512 76.8936C17.8989 75.8371 18.4484 74.9008 19.1607 74.086C19.8724 73.2711 20.7253 72.6217 21.72 72.1391C22.7141 71.6564 23.8188 71.4148 25.0327 71.4148C25.9224 71.4148 26.7624 71.5652 27.5527 71.8653C28.3429 72.1661 29.0362 72.6167 29.633 73.217C30.2299 73.8179 30.7008 74.5768 31.0459 75.4936C31.3916 76.411 31.5642 77.4807 31.5642 78.7034Z" fill="#8D9FB0"/>
<path d="M42.4538 73.2172C42.0455 73.2065 41.6316 73.2839 41.2135 73.45C40.7947 73.6167 40.3839 73.8609 39.9811 74.1824C39.5777 74.504 39.1982 74.8903 38.8427 75.3409C38.4866 75.7914 38.1673 76.2904 37.8848 76.8372L37.9161 84.9306C37.9161 85.3704 37.9112 85.7587 37.9008 86.0966C37.8903 86.4351 37.8535 86.7919 37.7909 87.1669L39.8159 87.0706V88.4216H33.2218V87.4406C33.7137 87.4406 34.0876 87.3412 34.3443 87.143C34.601 86.9448 34.7864 86.6686 34.9018 86.3143C35.0167 85.96 35.0824 85.5365 35.0983 85.0426C35.1137 84.5499 35.1217 84.0081 35.1217 83.4179V75.8877C35.1217 75.5448 35.1266 75.1987 35.137 74.8507C35.1474 74.5015 35.1843 74.1397 35.2469 73.764L32.9707 73.8609V72.5086H33.9599C34.4198 72.5086 34.8024 72.4854 35.1057 72.4363C35.409 72.3885 35.6632 72.3211 35.8671 72.2356C36.0716 72.15 36.2417 72.0562 36.378 71.9543C36.5137 71.8523 36.6445 71.7422 36.7703 71.6246H37.6963C37.7282 71.9675 37.7565 72.3941 37.7829 72.9032C37.8087 73.4129 37.832 74.0698 37.8535 74.874C38.0942 74.4669 38.403 74.0566 38.7794 73.6432C39.1565 73.2304 39.5808 72.8604 40.0517 72.5332C40.5227 72.206 41.0305 71.9379 41.5745 71.729C42.1186 71.5195 42.6786 71.415 43.2545 71.415C43.5474 71.415 43.8329 71.4553 44.1105 71.5358C44.3874 71.6164 44.6281 71.7422 44.8326 71.914C45.0364 72.0858 45.2016 72.2997 45.3269 72.5571C45.4527 72.8151 45.5154 73.1259 45.5154 73.4909C45.5154 73.6407 45.4865 73.8068 45.4294 73.9893C45.3717 74.1717 45.2771 74.3435 45.147 74.504C45.0156 74.6651 44.851 74.7997 44.6521 74.9067C44.4531 75.0137 44.2069 75.0672 43.914 75.0672C43.6733 75.0672 43.4559 75.0137 43.2625 74.9067C43.0685 74.7997 42.9064 74.6626 42.7756 74.4958C42.6448 74.3297 42.5502 74.1371 42.4931 73.9169C42.4354 73.6967 42.4225 73.4638 42.4538 73.2172Z" fill="#8D9FB0"/>
<path d="M56.4622 65.1402C56.3056 64.9256 56.0931 64.7752 55.826 64.689C55.5595 64.6034 55.3108 64.5607 55.0806 64.5607C54.5783 64.5607 54.1644 64.6764 53.8402 64.9067C53.5154 65.1377 53.2594 65.4403 53.0709 65.8154C52.8823 66.191 52.7491 66.612 52.6705 67.0789C52.5919 67.5458 52.5526 68.0146 52.5526 68.4865V71.9455H56.8864V73.2329L52.5526 73.3135L52.5839 84.9306C52.5839 85.3704 52.579 85.7587 52.5686 86.0966C52.5581 86.4351 52.5158 86.7919 52.4427 87.1669L54.4684 87.0706V88.4216H47.921V87.4406C48.4128 87.4406 48.7867 87.3412 49.0434 87.1424C49.3001 86.9448 49.4861 86.6679 49.601 86.3143C49.7164 85.96 49.779 85.5365 49.7895 85.0426C49.7999 84.5499 49.8054 84.0081 49.8054 83.4179L49.7735 73.3783L47.1362 73.4261V71.9455H49.7735V71.2539C49.7735 70.0313 49.8754 68.9345 50.0799 67.9636C50.2838 66.9933 50.616 66.1696 51.0771 65.4938C51.5376 64.818 52.1369 64.2983 52.875 63.9333C53.6124 63.5683 54.5101 63.3859 55.5675 63.3859C55.9126 63.3859 56.2872 63.4318 56.69 63.523C57.0928 63.6143 57.4643 63.759 57.8044 63.9572C58.1446 64.156 58.4301 64.4084 58.6604 64.7136C58.8906 65.0194 59.0055 65.3869 59.0055 65.8154C59.0055 66.2558 58.8802 66.6151 58.6291 66.8939C58.3779 67.1726 58.058 67.3123 57.6712 67.3123C57.3992 67.3123 57.1793 67.2664 57.0117 67.1752C56.8441 67.0839 56.7053 66.9688 56.596 66.8291C56.4861 66.69 56.4075 66.5396 56.3602 66.3785C56.3129 66.2175 56.2896 66.0734 56.2896 65.9444C56.2896 65.8154 56.3025 65.6845 56.3289 65.5505C56.3547 65.4158 56.3995 65.2793 56.4622 65.1402Z" fill="#8D9FB0"/>
<path d="M65.9263 72.718C64.67 72.718 63.6341 73.0949 62.8175 73.8487C62.0014 74.6026 61.4617 75.8239 61.2001 77.5128H69.3962C69.3962 76.9358 69.3335 76.3613 69.2077 75.7887C69.0818 75.2167 68.8804 74.7039 68.6035 74.2496C68.3259 73.7959 67.9673 73.4265 67.5277 73.1433C67.088 72.8596 66.5544 72.718 65.9263 72.718ZM72.4264 78.7034L61.1061 78.8965C61.0957 80.1651 61.1897 81.3147 61.3886 82.3467C61.5875 83.378 61.9013 84.2596 62.3305 84.9908C62.7597 85.7213 63.3124 86.2858 63.9872 86.6834C64.6626 87.0805 65.4713 87.2793 66.4132 87.2793C66.9155 87.2793 67.4282 87.2095 67.9514 87.0692C68.4751 86.9288 68.9805 86.7376 69.4668 86.4947C69.9537 86.2518 70.4007 85.9604 70.8091 85.6206C71.2174 85.2808 71.5576 84.9171 71.8296 84.5283L72.6149 85.1877C72.1753 85.8742 71.665 86.4563 71.0841 86.9332C70.5033 87.4108 69.9009 87.8003 69.2783 88.0999C68.6556 88.4006 68.03 88.6177 67.4024 88.7518C66.7743 88.8858 66.1879 88.9531 65.6438 88.9531C64.5343 88.9531 63.5009 88.7486 62.543 88.3415C61.5851 87.9337 60.7549 87.3492 60.0543 86.5878C59.3525 85.8264 58.8005 84.909 58.3977 83.8361C57.9949 82.7639 57.7935 81.557 57.7935 80.2161C57.7935 79.057 57.9869 77.9501 58.3743 76.8936C58.7612 75.8371 59.3107 74.9008 60.023 74.086C60.7347 73.2711 61.5875 72.6217 62.5823 72.1391C63.5764 71.6564 64.6804 71.4148 65.895 71.4148C66.7847 71.4148 67.6241 71.5652 68.4149 71.8653C69.2052 72.1661 69.8984 72.6167 70.4953 73.217C71.0915 73.8179 71.5631 74.5768 71.9082 75.4936C72.2539 76.411 72.4264 77.4807 72.4264 78.7034Z" fill="#8D9FB0"/>
<path d="M85.6709 74.4673C85.5242 74.081 85.3099 73.7726 85.0274 73.5417C84.745 73.3114 84.4386 73.1321 84.1088 73.0031C83.7791 72.8747 83.4494 72.7916 83.1196 72.7539C82.7899 72.7161 82.5154 72.6973 82.2956 72.6973C81.5624 72.6973 80.8796 72.8502 80.2466 73.1553C79.6129 73.4618 79.0664 73.9098 78.6053 74.4994C78.1447 75.0896 77.7812 75.8246 77.5141 76.7037C77.2476 77.5833 77.1138 78.5914 77.1138 79.7284C77.1138 80.8227 77.2476 81.8339 77.5141 82.7614C77.7812 83.6895 78.1558 84.4887 78.6372 85.1588C79.1186 85.8296 79.6995 86.3525 80.3798 86.7275C81.0602 87.1032 81.8136 87.2907 82.6407 87.2907C83.1436 87.2907 83.6403 87.2184 84.1328 87.0736C84.6246 86.9289 85.0901 86.7275 85.5297 86.4702C85.9694 86.2128 86.3752 85.9127 86.7467 85.5691C87.1182 85.2255 87.435 84.8555 87.6966 84.4591L88.5286 85.1186C88.0994 85.8051 87.61 86.3928 87.0605 86.8804C86.5109 87.3687 85.935 87.7708 85.3338 88.0873C84.7315 88.4038 84.1248 88.6367 83.5126 88.7871C82.8998 88.9374 82.3214 89.0123 81.7774 89.0123C80.6887 89.0123 79.6626 88.8217 78.6998 88.441C77.737 88.0603 76.8946 87.5078 76.1719 86.7842C75.4498 86.0599 74.8793 85.1727 74.4605 84.1206C74.0418 83.0704 73.833 81.8742 73.833 80.5332C73.833 79.7712 73.9245 79.0205 74.1075 78.2805C74.2905 77.5406 74.5551 76.8352 74.9002 76.165C75.2459 75.4942 75.6647 74.8719 76.1565 74.2981C76.6483 73.7242 77.2059 73.2283 77.8285 72.8099C78.4511 72.3914 79.1321 72.0642 79.8696 71.8283C80.6076 71.5929 81.3899 71.4746 82.217 71.4746C83.1067 71.4746 83.9179 71.5873 84.6504 71.8125C85.383 72.0378 86.0111 72.338 86.5349 72.7136C87.058 73.0886 87.4608 73.5203 87.7439 74.0086C88.0264 74.4969 88.1676 75.0091 88.1676 75.5452C88.1676 76.0171 88.0393 76.4218 87.7832 76.7597C87.5259 77.0982 87.1569 77.2725 86.6761 77.2826C86.393 77.2939 86.1579 77.248 85.9694 77.146C85.7808 77.0441 85.6292 76.9182 85.5144 76.7678C85.3989 76.6181 85.3148 76.4545 85.2626 76.277C85.2104 76.1002 85.1846 75.9423 85.1846 75.8026C85.1846 75.588 85.2184 75.3627 85.2866 75.1268C85.3547 74.8908 85.483 74.6712 85.6709 74.4673Z" fill="#8D9FB0"/>
<path d="M89.5449 71.9459C90.1104 71.9358 90.6232 71.7766 91.0837 71.4714C91.5442 71.1656 91.9501 70.7849 92.3007 70.3287C92.6513 69.8731 92.9466 69.3773 93.1873 68.8406C93.428 68.3044 93.6166 67.8004 93.7529 67.3279H94.852C94.852 68.2075 94.8495 69.0287 94.844 69.7895C94.8385 70.5521 94.836 71.2707 94.836 71.9459H100.253V73.2333L94.836 73.2975C94.8256 74.724 94.8207 75.9416 94.8207 76.9496C94.8207 77.9583 94.8176 78.8003 94.8127 79.4761C94.8072 80.1519 94.8047 80.6855 94.8047 81.0769C94.8047 81.4683 94.8022 81.7665 94.7967 81.9698C94.7912 82.1736 94.7887 82.3051 94.7887 82.3637V82.4688C94.7887 83.2201 94.828 83.882 94.9066 84.4559C94.9852 85.0298 95.1185 85.5124 95.3076 85.9038C95.4955 86.2952 95.7442 86.5903 96.053 86.7892C96.3619 86.9874 96.7518 87.0868 97.2228 87.0868C97.7772 87.0868 98.3268 86.915 98.8708 86.5714C99.4155 86.2285 99.8969 85.7408 100.316 85.1072L101.179 85.8314C100.708 86.5614 100.239 87.1321 99.774 87.5449C99.308 87.9583 98.8659 88.2691 98.4477 88.478C98.0284 88.6876 97.6385 88.8185 97.278 88.872C96.9164 88.9261 96.5995 88.9531 96.3275 88.9531C96.0033 88.9531 95.6705 88.9261 95.3309 88.872C94.9908 88.8185 94.6555 88.714 94.3258 88.5586C93.996 88.4032 93.6872 88.1829 93.3992 87.8991C93.1112 87.6147 92.8576 87.2472 92.6384 86.7973C92.418 86.3462 92.2454 85.7993 92.1202 85.1556C91.9943 84.5119 91.9366 83.7505 91.947 82.8708L92.0103 73.346L89.5449 73.3623V71.9459Z" fill="#8D9FB0"/>
<path d="M131.863 87.2932H130.984C130.628 87.2932 130.157 87.3573 129.571 87.4863C128.984 87.6153 128.299 87.8349 127.514 88.1458C127.179 88.2748 126.813 88.3924 126.415 88.4994C126.017 88.607 125.612 88.6983 125.198 88.7731C124.784 88.848 124.374 88.9072 123.965 88.9506C123.558 88.9934 123.175 89.0148 122.82 89.0148C121.207 89.0148 119.732 88.7492 118.392 88.2188C117.052 87.6877 115.901 86.9257 114.938 85.9334C113.974 84.9417 113.227 83.7291 112.692 82.2976C112.159 80.8654 111.892 79.2483 111.892 77.4461C111.892 76.4166 111.994 75.3897 112.198 74.3653C112.402 73.3403 112.711 72.3643 113.124 71.4368C113.537 70.5093 114.053 69.6453 114.671 68.8462C115.288 68.0471 116.013 67.353 116.846 66.7628C117.678 66.1725 118.614 65.7113 119.656 65.3791C120.697 65.0462 121.841 64.8801 123.086 64.8801C123.662 64.8801 124.248 64.9229 124.845 65.0091C125.441 65.0953 126.027 65.2155 126.603 65.3709C127.179 65.5263 127.734 65.7163 128.268 65.9416C128.801 66.1669 129.293 66.4192 129.743 66.698L129.602 65.1211H131.376V72.6676H130.214C130.141 71.635 129.916 70.7157 129.539 69.9096C129.162 69.1029 128.668 68.4252 128.056 67.8772C127.443 67.3291 126.732 66.9094 125.92 66.6187C125.109 66.3286 124.238 66.1832 123.306 66.1832C122.165 66.1832 121.092 66.4437 120.088 66.9648C119.083 67.4851 118.209 68.2094 117.465 69.1382C116.722 70.0669 116.133 71.1725 115.699 72.4549C115.264 73.738 115.048 75.1468 115.048 76.6816C115.048 78.2383 115.256 79.6743 115.675 80.9894C116.094 82.3045 116.683 83.4365 117.442 84.3867C118.201 85.3368 119.109 86.08 120.166 86.6167C121.223 87.1535 122.385 87.4215 123.652 87.4215C124.08 87.4215 124.531 87.3894 125.002 87.3252C125.473 87.2611 125.946 87.1642 126.423 87.0358C126.899 86.9068 127.369 86.7375 127.836 86.5286C128.302 86.3197 128.744 86.0705 129.162 85.7804V78.5724L126.902 78.7014V77.2535H134.171V78.3308C133.773 78.3308 133.438 78.4088 133.166 78.5643C132.894 78.7197 132.674 78.9185 132.507 79.1602C132.339 79.4012 132.211 79.6692 132.122 79.9643C132.033 80.2594 131.97 80.5514 131.934 80.8409C131.897 81.1303 131.876 81.4015 131.871 81.6532C131.865 81.9056 131.863 82.1069 131.863 82.2573V87.2932Z" fill="#8D9FB0"/>
<path d="M144.907 73.2778C144.499 73.2671 144.085 73.3445 143.667 73.5107C143.248 73.6774 142.837 73.9215 142.434 74.2431C142.031 74.5646 141.651 74.951 141.296 75.4015C140.94 75.8521 140.621 76.3511 140.337 76.8985L140.369 84.9912C140.369 85.4311 140.364 85.8193 140.354 86.1578C140.343 86.4958 140.307 86.8525 140.243 87.2276L142.269 87.1313V88.4829H135.675V87.5013C136.166 87.5013 136.541 87.4019 136.798 87.2037C137.054 87.0054 137.239 86.7292 137.355 86.3749C137.47 86.0213 137.536 85.5972 137.551 85.1039C137.566 84.6105 137.575 84.0688 137.575 83.4785V75.9483C137.575 75.6054 137.58 75.26 137.59 74.9107C137.601 74.5621 137.638 74.2003 137.7 73.8246L135.423 73.9215V72.5699H136.413C136.873 72.5699 137.255 72.546 137.559 72.4976C137.862 72.4491 138.116 72.3824 138.32 72.2968C138.524 72.2106 138.694 72.1169 138.831 72.0143C138.966 71.913 139.098 71.8029 139.223 71.6852H140.15C140.181 72.0281 140.21 72.4548 140.236 72.9638C140.262 73.4735 140.285 74.1305 140.307 74.9346C140.547 74.5275 140.856 74.1172 141.233 73.7038C141.61 73.291 142.033 72.921 142.504 72.5938C142.975 72.2673 143.483 71.9986 144.028 71.7897C144.572 71.5801 145.132 71.4757 145.707 71.4757C146.001 71.4757 146.286 71.5159 146.564 71.5965C146.841 71.677 147.081 71.8029 147.285 71.9747C147.49 72.1464 147.654 72.3604 147.78 72.6178C147.905 72.8757 147.969 73.1866 147.969 73.5515C147.969 73.7019 147.939 73.8674 147.882 74.0505C147.824 74.233 147.73 74.4042 147.6 74.5646C147.468 74.7257 147.304 74.8604 147.105 74.9674C146.906 75.0743 146.66 75.1278 146.367 75.1278C146.126 75.1278 145.909 75.0743 145.715 74.9674C145.522 74.8604 145.36 74.7232 145.229 74.5565C145.098 74.3903 145.003 74.1978 144.946 73.9775C144.889 73.7579 144.875 73.5245 144.907 73.2778Z" fill="#8D9FB0"/>
<path d="M155.542 72.7318C154.694 72.7318 153.969 72.925 153.368 73.3113C152.765 73.6983 152.271 74.2137 151.883 74.858C151.496 75.5024 151.211 76.243 151.028 77.0811C150.845 77.918 150.753 78.7876 150.753 79.69C150.753 80.7106 150.856 81.7036 151.059 82.6701C151.263 83.636 151.575 84.4924 151.993 85.2393C152.412 85.985 152.938 86.5834 153.571 87.0345C154.205 87.4857 154.945 87.711 155.793 87.711C156.641 87.711 157.355 87.5153 157.936 87.1239C158.517 86.7312 158.988 86.2134 159.349 85.569C159.711 84.9247 159.97 84.1891 160.127 83.3623C160.283 82.5354 160.362 81.6872 160.362 80.817C160.362 79.8297 160.273 78.8525 160.095 77.8859C159.917 76.9194 159.634 76.0548 159.248 75.2928C158.86 74.5302 158.36 73.9129 157.748 73.4403C157.136 72.9678 156.4 72.7318 155.542 72.7318ZM155.542 71.4771C156.672 71.4771 157.729 71.6885 158.713 72.112C159.697 72.5361 160.553 73.1207 161.281 73.8663C162.008 74.6113 162.584 75.4967 163.008 76.5211C163.432 77.5455 163.643 78.6524 163.643 79.8435C163.643 81.1203 163.437 82.3158 163.023 83.4315C162.609 84.5471 162.04 85.5181 161.312 86.3436C160.584 87.1698 159.726 87.8211 158.737 88.2987C157.748 88.7757 156.683 89.0148 155.542 89.0148C154.411 89.0148 153.357 88.8077 152.378 88.395C151.399 87.9822 150.546 87.4058 149.819 86.6652C149.091 85.9252 148.518 85.043 148.1 84.0186C147.681 82.9942 147.472 81.8703 147.472 80.6477C147.472 79.3502 147.678 78.1408 148.092 77.0195C148.505 75.8988 149.073 74.9279 149.796 74.1073C150.517 73.2868 151.371 72.6431 152.354 72.1762C153.338 71.7099 154.401 71.4771 155.542 71.4771Z" fill="#8D9FB0"/>
<path d="M177.108 76.3386C177.108 75.8013 177.118 75.3425 177.14 74.9612C177.16 74.5799 177.202 74.2017 177.265 73.8254L174.957 73.9223V72.5707H175.946C176.406 72.5707 176.799 72.5468 177.124 72.4984C177.448 72.4499 177.725 72.3832 177.956 72.2976C178.186 72.2114 178.377 72.1177 178.528 72.0157C178.681 71.9138 178.82 71.8037 178.945 71.686H179.871L179.84 84.1394C179.84 84.3105 179.837 84.5283 179.832 84.7906C179.826 85.0537 179.819 85.3274 179.808 85.6112C179.798 85.8956 179.785 86.18 179.769 86.4638C179.753 86.7482 179.735 87.0031 179.714 87.2283L182.022 87.1V88.4837H177.422C177.369 88.108 177.325 87.7619 177.289 87.4454C177.252 87.1296 177.223 86.8156 177.202 86.5047C176.867 86.8477 176.495 87.1723 176.087 87.4782C175.679 87.7833 175.247 88.0489 174.791 88.2741C174.336 88.4994 173.868 88.6794 173.387 88.8134C172.905 88.9474 172.429 89.0148 171.958 89.0148C171.079 89.0148 170.309 88.8933 169.65 88.6523C168.99 88.4107 168.441 88.0118 168.001 87.4536C167.562 86.8961 167.232 86.1586 167.012 85.2412C166.792 84.3244 166.683 83.1848 166.683 81.8225V75.9655C166.683 75.6226 166.687 75.274 166.698 74.9197C166.708 74.5654 166.745 74.2011 166.808 73.8254L164.594 73.9223V72.5707H165.599C166.049 72.5707 166.436 72.5468 166.761 72.4984C167.085 72.4499 167.363 72.3832 167.593 72.2976C167.823 72.2114 168.014 72.1177 168.166 72.0157C168.318 71.9138 168.457 71.8037 168.582 71.686H169.509V81.7363C169.509 82.6921 169.572 83.5215 169.697 84.225C169.822 84.9278 170.024 85.513 170.302 85.9799C170.579 86.4475 170.938 86.791 171.377 87.0113C171.816 87.2315 172.356 87.3416 172.994 87.3416C173.403 87.3416 173.802 87.2711 174.195 87.1314C174.588 86.9924 174.962 86.8042 175.318 86.5676C175.674 86.3317 176.005 86.063 176.315 85.7628C176.623 85.4621 176.888 85.1393 177.108 84.7957V83.4264V76.3386Z" fill="#8D9FB0"/>
<path d="M190.788 73.0838C190.411 73.0838 190.045 73.1348 189.689 73.2367C189.333 73.3387 188.993 73.4733 188.668 73.6394C188.344 73.8056 188.037 74.0025 187.75 74.2271C187.462 74.453 187.208 74.689 186.989 74.9357C186.989 75.0219 186.991 75.1213 186.996 75.2339C187.001 75.3466 187.004 75.5372 187.004 75.8059V76.9417C187.004 77.43 187.001 78.0851 186.996 78.9068C186.991 79.728 186.986 80.7512 186.981 81.975C186.975 83.1996 186.973 84.6808 186.973 86.4207C187.507 86.829 188.093 87.1456 188.731 87.3708C189.369 87.5967 190.039 87.7094 190.741 87.7094C191.505 87.7094 192.191 87.5212 192.797 87.1456C193.405 86.7699 193.923 86.2464 194.352 85.575C194.781 84.9036 195.111 84.1088 195.341 83.1908C195.572 82.2727 195.687 81.2665 195.687 80.171C195.687 79.28 195.595 78.4097 195.412 77.5615C195.228 76.7133 194.941 75.9563 194.549 75.2906C194.156 74.6248 193.651 74.0906 193.033 73.6879C192.415 73.2852 191.668 73.0838 190.788 73.0838ZM184.241 75.9639C184.241 75.6209 184.246 75.2717 184.257 74.9181C184.267 74.5638 184.303 74.1995 184.367 73.8238L182.09 73.9528V72.5691C182.79 72.5691 183.362 72.5445 183.801 72.4967C184.241 72.4483 184.594 72.3816 184.861 72.2954C185.128 72.2098 185.334 72.1154 185.481 72.0135C185.627 71.9122 185.759 71.802 185.874 71.6837H186.815C186.836 71.8983 186.857 72.15 186.879 72.4401C186.899 72.7302 186.92 73.0674 186.941 73.4538C187.266 73.1637 187.625 72.8963 188.016 72.6496C188.409 72.4023 188.823 72.1934 189.257 72.0216C189.692 71.8505 190.134 71.7158 190.584 71.6196C191.034 71.5227 191.484 71.4748 191.935 71.4748C192.865 71.4748 193.758 71.6623 194.611 72.038C195.464 72.4137 196.215 72.9523 196.864 73.6552C197.513 74.3574 198.031 75.2157 198.419 76.2294C198.806 77.2431 199 78.3877 199 79.6645C199 80.5976 198.898 81.4773 198.693 82.3029C198.489 83.1297 198.204 83.888 197.837 84.5795C197.471 85.2717 197.034 85.8908 196.527 86.4383C196.019 86.9851 195.462 87.4495 194.855 87.8302C194.247 88.2109 193.601 88.5028 192.915 88.7067C192.23 88.9106 191.526 89.0125 190.804 89.0125C189.318 89.0125 188.035 88.6532 186.957 87.9346L186.941 93.3889C186.941 93.8288 186.936 94.2176 186.926 94.5556C186.915 94.8935 186.879 95.2502 186.815 95.6259L188.841 95.529V96.8806H182.278V95.899C182.77 95.899 183.144 95.7996 183.401 95.6014C183.657 95.4025 183.84 95.1269 183.95 94.7726C184.06 94.4184 184.123 93.9949 184.139 93.5016C184.155 93.0082 184.168 92.4665 184.178 91.8769L184.241 75.9639Z" fill="#8D9FB0"/>
</svg>
