<svg width="200" height="63" viewBox="0 0 200 63" fill="none" xmlns="http://www.w3.org/2000/svg">
<path d="M117.221 47.9717L115.94 47.1269C123.285 36.0227 121.764 21.123 112.323 11.7C101.314 0.715321 83.4057 0.715321 72.3972 11.7L71.313 10.6178C82.9179 -0.967705 101.802 -0.964924 113.407 10.6178C123.362 20.5528 124.967 36.2619 117.221 47.9717Z" fill="#8D9FB0"/>
<path d="M22.2615 15.0557L21.1772 13.9735L28.3636 6.79818L29.4487 7.88032L22.2615 15.0557Z" fill="#8D9FB0"/>
<path d="M29.4523 15.0557L28.3662 13.9735L35.5516 6.79818L36.6386 7.88032L29.4523 15.0557Z" fill="#8D9FB0"/>
<path d="M36.6355 15.0557L35.5513 13.9735L42.7394 6.79818L43.8237 7.88032L36.6355 15.0557Z" fill="#8D9FB0"/>
<path d="M106.251 16.7561L105.182 15.6554L121.367 4.3869e-05L122.438 1.0998L106.251 16.7561Z" fill="#8D9FB0"/>
<path d="M15.4355 44.8402L7.82738 34.3971L4.68714 37.6463V44.8402H0V21.3456H4.68714V32.3589L14.9301 21.3456H20.4943L10.9769 31.2351L21.0582 44.8402H15.4355Z" fill="#8D9FB0"/>
<path d="M66.2793 44.8402L54.1085 28.8918V44.8402H49.4883V21.3456H53.9366L65.7163 36.7988V21.3456H70.3365V44.8402H66.2793Z" fill="#8D9FB0"/>
<path d="M99.6885 44.8402H104.376V21.3465H99.6885V44.8402Z" fill="#8D9FB0"/>
<path d="M126.452 44.8402L114.28 28.8918V44.8402H109.662V21.3456H114.1L125.889 36.7988V21.3456H130.519V44.8402H126.452Z" fill="#8D9FB0"/>
<path d="M143.968 45.1836C140.331 45.1836 136.857 43.9169 134.146 41.6015L136.904 38.305C139.292 40.2291 141.583 41.1147 144.063 41.1147C146.412 41.1147 147.873 40.1243 147.873 38.5424V38.4765C147.873 36.8566 146.774 36.1231 142.775 35.104C137.497 33.7502 134.996 32.3499 134.996 28.0251V27.9574C134.996 25.9192 135.779 24.1843 137.268 22.9176C138.719 21.6787 140.808 20.9823 143.128 20.9823C146.374 20.9823 149.265 21.9365 151.699 23.8226L149.265 27.3287C147.012 25.8042 144.979 25.0615 143.061 25.0615C140.551 25.0615 139.653 26.3569 139.653 27.4622V27.5383C139.653 29.4438 141.153 30.0067 145.104 31.0156C149.685 32.2071 152.54 33.7789 152.54 37.9424V38.0175C152.54 42.4398 149.237 45.1836 143.968 45.1836Z" fill="#8D9FB0"/>
<path d="M171.507 44.8402L163.9 34.3971L160.749 37.6463V44.8402H156.052V21.3456H160.749V32.3589L171.002 21.3456H176.567L167.049 31.2351L177.13 44.8402H171.507Z" fill="#8D9FB0"/>
<path d="M186.265 44.8402V35.5414L177.233 21.3456H182.714L188.642 31.3111L194.704 21.3456H200L190.951 35.4459V44.8402H186.265Z" fill="#8D9FB0"/>
<path d="M42.1319 44.8402L39.9365 39.4286H29.3024L27.0875 44.8402H22.353L26.3722 35.3977H38.2763V35.3606H38.2949L34.6195 26.4132L34.5907 26.4429L32.4334 21.174V21.1647H36.9394L47.029 44.8402H42.1319Z" fill="#8D9FB0"/>
<path d="M79.82 44.8402V40.6674H83.1609C85.3758 40.6674 87.2748 39.9423 88.6498 38.5903C90.0332 37.2179 90.7495 35.3513 90.7495 33.1592V33.0831C90.7495 28.634 87.6381 25.5183 83.1609 25.5183H79.82H79.5143H74.0449V21.3456H83.1609C90.416 21.3456 95.6847 26.2518 95.6847 33.0155V33.0831C95.6847 36.3222 94.463 39.295 92.2202 41.4482C89.9282 43.6394 86.7118 44.8402 83.1609 44.8402H79.82Z" fill="#8D9FB0"/>
<path d="M28.5568 58.2799V58.2568C28.5568 56.4829 27.2608 55.0317 25.4714 55.0317C23.6829 55.0317 22.4082 56.4606 22.4082 58.2345V58.2568C22.4082 60.0316 23.7052 61.4819 25.4937 61.4819C27.2821 61.4819 28.5568 60.0529 28.5568 58.2799ZM21.4922 58.2799V58.2568C21.4922 56.1027 23.1134 54.2175 25.4937 54.2175C27.8767 54.2175 29.4756 56.0814 29.4756 58.2345V58.2568C29.4756 60.4108 27.8544 62.296 25.4714 62.296C23.0911 62.296 21.4922 60.4331 21.4922 58.2799Z" fill="#8D9FB0"/>
<path d="M34.6892 55.1663V61.3476H36.5223C38.5012 61.3476 39.7647 60.0096 39.7647 58.2792V58.2561C39.7647 56.5276 38.5012 55.1663 36.5223 55.1663H34.6892ZM33.8057 54.3513H36.5223C38.9824 54.3513 40.6808 56.0352 40.6808 58.2347V58.2561C40.6808 60.4547 38.9824 62.1627 36.5223 62.1627H33.8057V54.3513Z" fill="#8D9FB0"/>
<path d="M45.0195 54.3513H50.6775V55.1534H45.9031V57.8212H50.174V58.6242H45.9031V61.3588H50.7324V62.1627H45.0195V54.3513Z" fill="#8D9FB0"/>
<path d="M54.4609 61.0238L55.0082 60.3774C55.8257 61.1137 56.608 61.4818 57.6922 61.4818C58.743 61.4818 59.4361 60.9245 59.4361 60.154V60.1317C59.4361 59.4066 59.0459 58.9948 57.4005 58.6471C55.6009 58.2567 54.774 57.6772 54.774 56.3929V56.3706C54.774 55.1429 55.8583 54.2397 57.3448 54.2397C58.4866 54.2397 59.3014 54.5634 60.0967 55.1995L59.582 55.8801C58.8554 55.2885 58.1289 55.0316 57.3234 55.0316C56.3051 55.0316 55.6576 55.5899 55.6576 56.2927V56.3159C55.6576 57.0522 56.0599 57.4639 57.7824 57.833C59.5253 58.2131 60.3308 58.8483 60.3308 60.0418V60.0659C60.3308 61.403 59.2131 62.2747 57.6588 62.2747C56.4176 62.2747 55.3993 61.8611 54.4609 61.0238Z" fill="#8D9FB0"/>
<path d="M64.0835 61.0238L64.6307 60.3774C65.4483 61.1137 66.2306 61.4818 67.3148 61.4818C68.3656 61.4818 69.0586 60.9245 69.0586 60.154V60.1317C69.0586 59.4066 68.6684 58.9948 67.0231 58.6471C65.2235 58.2567 64.3966 57.6772 64.3966 56.3929V56.3706C64.3966 55.1429 65.4817 54.2397 66.9673 54.2397C68.1091 54.2397 68.9239 54.5634 69.7192 55.1995L69.2054 55.8801C68.478 55.2885 67.7514 55.0316 66.9459 55.0316C65.9277 55.0316 65.2811 55.5899 65.2811 56.2927V56.3159C65.2811 57.0522 65.6824 57.4639 67.4049 57.833C69.1478 58.2131 69.9533 58.8483 69.9533 60.0418V60.0659C69.9533 61.403 68.8366 62.2747 67.2813 62.2747C66.0401 62.2747 65.0219 61.8611 64.0835 61.0238Z" fill="#8D9FB0"/>
<path d="M79.297 59.3057L77.5188 55.3212L75.7303 59.3057H79.297ZM77.1174 54.2956H77.9434L81.51 62.1627H80.5605L79.6435 60.0977H75.3838L74.4566 62.1627H73.5498L77.1174 54.2956Z" fill="#8D9FB0"/>
<path d="M94.624 58.3349C95.7993 58.3349 96.6382 57.7321 96.6382 56.7279V56.7056C96.6382 55.7459 95.8987 55.1663 94.6351 55.1663H92.2214V58.3349H94.624ZM91.3379 54.3513H94.703C95.6646 54.3513 96.4347 54.6415 96.9272 55.132C97.3071 55.5113 97.532 56.0593 97.532 56.6723V56.6945C97.532 57.989 96.6382 58.7475 95.4081 58.971L97.8107 62.1627H96.7265L94.4558 59.1268H92.2214V62.1627H91.3379V54.3513Z" fill="#8D9FB0"/>
<path d="M101.89 54.3513H107.549V55.1534H102.773V57.8212H107.045V58.6242H102.773V61.3588H107.603V62.1627H101.89V54.3513Z" fill="#8D9FB0"/>
<path d="M111.333 61.0238L111.881 60.3774C112.698 61.1137 113.481 61.4818 114.565 61.4818C115.616 61.4818 116.309 60.9245 116.309 60.154V60.1317C116.309 59.4066 115.918 58.9948 114.273 58.6471C112.473 58.2567 111.647 57.6772 111.647 56.3929V56.3706C111.647 55.1429 112.732 54.2397 114.217 54.2397C115.359 54.2397 116.174 54.5634 116.969 55.1995L116.455 55.8801C115.728 55.2885 115.001 55.0316 114.195 55.0316C113.177 55.0316 112.53 55.5899 112.53 56.2927V56.3159C112.53 57.0522 112.932 57.4639 114.655 57.833C116.397 58.2131 117.203 58.8483 117.203 60.0418V60.0659C117.203 61.403 116.086 62.2747 114.53 62.2747C113.289 62.2747 112.272 61.8611 111.333 61.0238Z" fill="#8D9FB0"/>
<path d="M121.547 54.3517H122.429V62.1632H121.547V54.3517Z" fill="#8D9FB0"/>
<path d="M128.07 55.1663V61.3476H129.905C131.883 61.3476 133.147 60.0096 133.147 58.2792V58.2561C133.147 56.5276 131.883 55.1663 129.905 55.1663H128.07ZM127.186 54.3513H129.905C132.363 54.3513 134.063 56.0352 134.063 58.2347V58.2561C134.063 60.4547 132.363 62.1627 129.905 62.1627H127.186V54.3513Z" fill="#8D9FB0"/>
<path d="M138.396 54.3513H144.055V55.1534H139.28V57.8212H143.552V58.6242H139.28V61.3588H144.11V62.1627H138.396V54.3513Z" fill="#8D9FB0"/>
<path d="M148.356 54.3513H149.185L154.113 60.6114V54.3513H154.975V62.1627H154.27L149.217 55.757V62.1627H148.356V54.3513Z" fill="#8D9FB0"/>
<path d="M159.308 58.2799V58.2568C159.308 56.047 160.964 54.2175 163.267 54.2175C164.688 54.2175 165.535 54.7201 166.319 55.4564L165.714 56.1027C165.056 55.4786 164.317 55.0317 163.256 55.0317C161.523 55.0317 160.226 56.4384 160.226 58.2345V58.2568C160.226 60.0659 161.534 61.4819 163.256 61.4819C164.329 61.4819 165.032 61.0692 165.783 60.3552L166.364 60.9246C165.547 61.7489 164.653 62.296 163.233 62.296C160.975 62.296 159.308 60.5231 159.308 58.2799Z" fill="#8D9FB0"/>
<path d="M170.418 54.3513H176.077V55.1534H171.302V57.8212H175.573V58.6242H171.302V61.3588H176.131V62.1627H170.418V54.3513Z" fill="#8D9FB0"/>
</svg>
