<svg width="205" height="115" viewBox="0 0 205 115" fill="none" xmlns="http://www.w3.org/2000/svg">
<path d="M82.0492 30.1542C78.9298 33.0253 77.2481 34.135 75.5392 34.5013C74.9574 34.6215 74.3649 34.6829 73.7706 34.6844C73.3529 34.6844 73.1196 34.776 73.1196 35.0076C73.1196 35.2392 73.3963 35.3793 73.9117 35.3793H77.4054C81.6478 35.3793 82.8304 34.5928 85.5104 31.9103C85.7817 31.6356 85.5592 31.8025 85.8413 31.5063C85.1632 30.429 84.6098 29.2978 84.0185 28.1881C83.0095 29.2331 82.6568 29.5886 82.0492 30.1542Z" fill="#8D9FB0"/>
<path d="M97.1873 18.724C97.605 18.2123 98.0282 17.846 98.3537 17.4312V16.8279C96.7262 15.3951 90.4765 9.055 87.6827 6.14083C84.7911 3.13508 84.4656 2.37018 84.4656 1.88538C84.4656 1.5137 84.6501 1.23898 85.5506 1.05045C86.0172 0.958878 86.2016 0.867304 86.2016 0.678772C86.2016 0.490239 85.9683 0.404053 85.5506 0.404053C84.3842 0.404053 83.2667 0.544106 81.6392 0.544106C80.1961 0.544106 77.7711 0.404053 76.9791 0.404053C76.3715 0.404053 76.187 0.495626 76.187 0.727252C76.187 0.958877 76.4203 1.00736 77.0279 1.09893C77.7705 1.1721 78.5002 1.34235 79.1979 1.60528C80.4999 2.06853 81.4818 2.62335 84.2757 5.37593C87.8617 8.9365 93.9703 14.9049 95.1258 16.1492C94.095 17.3127 91.1927 20.6417 87.9756 24.0945C88.5181 25.2526 89.0606 26.2492 89.7062 27.3696C92.3373 24.4339 94.6267 21.7028 97.1873 18.724Z" fill="#8D9FB0"/>
<path d="M113.341 32.0349C112.153 30.8391 111.562 30.0634 110.233 28.5767L100.468 48.2379C100.428 48.3137 100.369 48.3773 100.296 48.4216C100.223 48.466 100.138 48.4895 100.053 48.4895C99.9669 48.4895 99.8827 48.466 99.8095 48.4216C99.7363 48.3773 99.6768 48.3137 99.6376 48.2379C97.0282 43.4384 92.8997 35.45 89.1294 28.0111L87.4042 24.5959C84.2631 18.3582 81.6103 12.9716 80.6934 10.9085C80.254 9.87962 78.5722 6.46988 78.2033 5.65649C78.0514 5.32252 76.5216 5.43026 75.4908 5.43026C74.9483 5.43026 71.2702 5.36023 68.7258 5.36023C67.7602 5.36023 67.1309 5.57031 67.1309 5.89889C67.1309 6.22748 67.4835 6.3783 68.1833 6.3783C69.6309 6.33808 71.0692 6.61967 72.3931 7.20246C73.5324 7.82193 74.8453 8.99083 77.216 13.6664C78.0026 15.2339 81.0461 20.9815 84.5615 27.6232L86.3572 31.0168L87.0353 32.2988C92.3844 42.3395 99.5129 58.4294 101.422 58.3594C102.475 58.3217 102.757 58.3163 105.182 54.0986L115.446 33.9741C114.958 33.6132 113.884 32.5735 113.341 32.0349Z" fill="#8D9FB0"/>
<path d="M134.696 5.45156C130.731 5.45156 123.608 5.40308 121.72 5.40308C121.553 5.41004 121.393 5.4646 121.257 5.56018C121.121 5.65575 121.016 5.78826 120.955 5.94174C120.445 6.9652 118.785 10.8544 117.955 12.5242L112.79 23.1628C114.427 25.0947 116.181 26.926 118.041 28.6464L126.629 11.9802C128.561 8.12872 129.884 7.37459 132.939 6.6851C134.037 6.48594 135.153 6.39393 136.27 6.41038C136.812 6.41038 136.969 6.20569 136.969 5.93097C136.975 5.52158 136.096 5.45156 134.696 5.45156Z" fill="#8D9FB0"/>
<path d="M126.184 34.3021C125.602 34.2993 125.022 34.238 124.453 34.119C122.766 33.7581 121.084 32.6323 118.024 29.8097L117.699 29.5026C116.467 28.3176 114.444 26.1952 112.361 23.9436C109.42 20.7763 106.333 17.3611 105.113 15.9876C106.046 15.0126 108.91 12.1738 111.704 9.43201C113.18 7.97762 114.65 6.52861 115.843 5.34355C118.724 2.48324 119.641 2.01999 120.862 1.5729C121.535 1.31856 122.239 1.15198 122.956 1.07733C123.498 0.991142 123.959 0.894183 123.959 0.538664C123.959 0 123.341 0 122.972 0C122.603 0 122.001 2.04681e-07 121.268 0.0538666C120.27 0.0915731 119.136 0.140053 118.312 0.140053C117.487 0.140053 116.684 0.09696 116.033 0.0646402C115.491 0.0323203 114.948 0.00538677 114.406 0.00538677C113.706 0.00538677 113.559 0.263946 113.559 0.479412C113.559 0.878023 114.048 0.974983 114.368 1.01808C115.285 1.212 115.285 1.48133 115.285 1.65909C115.285 2.07924 115.041 2.73641 112.122 5.77987C109.534 8.47319 103.805 14.3015 101.814 16.1599V13.6336C101.814 6.42626 101.814 5.12808 101.907 3.65214C102.004 1.99306 102.384 1.39514 103.474 1.19584C103.846 1.11967 104.223 1.07463 104.603 1.06117C104.67 1.06555 104.737 1.05675 104.801 1.03528C104.864 1.01381 104.923 0.980082 104.973 0.93604C105.024 0.891997 105.065 0.838504 105.094 0.778632C105.124 0.718759 105.141 0.653685 105.145 0.587144C105.145 0.0484799 104.483 0.0484799 104.201 0.0484799C103.203 0.0484799 101.489 0.118507 100.48 0.1616L99.7256 0.188533H99.0095C98.0385 0.150826 96.2211 0.0754137 95.1144 0.0754137C94.8323 0.0754137 94.1704 0.0754137 94.1704 0.614078C94.1746 0.680619 94.1919 0.745692 94.2214 0.805564C94.251 0.865437 94.2921 0.91893 94.3425 0.962972C94.3929 1.00701 94.4516 1.04074 94.5151 1.06221C94.5787 1.08369 94.6459 1.09248 94.7129 1.0881C95.1849 1.09218 95.6547 1.15185 96.1126 1.26586C97.0403 1.47594 97.458 2.1762 97.5448 3.67908C97.6316 5.18195 97.637 6.4532 97.637 13.6605V21.7728C97.637 26.0229 97.5502 29.772 97.4037 31.7974C97.2627 33.4457 96.9535 34.0544 96.156 34.216C95.7736 34.3045 95.3823 34.3496 94.9896 34.3506C94.599 34.3506 94.2789 34.5607 94.2789 34.8246C94.2789 35.3633 94.7183 35.3633 95.1252 35.3633C96.1234 35.3633 97.8757 35.2933 98.9227 35.2502L99.6931 35.2233H100.236C101.261 35.261 103.404 35.3418 105.373 35.3418C105.964 35.3418 106.268 35.1532 106.268 34.8031C106.268 34.5876 106.057 34.3291 105.465 34.3291C104.85 34.3166 104.236 34.2716 103.626 34.1944C102.438 34.0382 102.129 33.2248 101.999 31.7758C101.765 29.842 101.765 26.276 101.765 21.7566V17.7651L101.988 17.9968C102.183 18.2015 102.384 18.4115 102.59 18.6593L104.364 20.7332C106.322 23.0279 108.444 25.5058 110.478 27.7735C111.813 29.2602 113.104 30.6608 114.276 31.8566C114.818 32.3953 115.301 32.8585 115.762 33.2571C117.585 34.8354 119.066 35.3849 122.522 35.3849H126.015C126.287 35.3849 127.003 35.3849 127.003 34.8462C127.03 34.4799 126.748 34.3021 126.184 34.3021Z" fill="#8D9FB0"/>
<path d="M88.4513 52.4767H0.430176L0.435601 51.2593H88.4567L88.4513 52.4767Z" fill="#8D9FB0"/>
<path d="M203.65 52.4767H115.629L115.634 51.2593H203.655L203.65 52.4767Z" fill="#8D9FB0"/>
<path d="M0 90.4846H204.084V91.6966H0V90.4846Z" fill="#8D9FB0"/>
<path d="M102.046 93.6639C103.475 93.6639 104.633 92.5135 104.633 91.0945C104.633 89.6754 103.475 88.525 102.046 88.525C100.617 88.525 99.458 89.6754 99.458 91.0945C99.458 92.5135 100.617 93.6639 102.046 93.6639Z" fill="#8D9FB0"/>
<path d="M34.1206 114.821L37.6686 110.867L34.4136 107.264H35.2653L38.6125 111.034V107.264H39.2744V111.034L42.6054 107.264H43.4517L40.1966 110.867L43.7446 114.821H42.92L39.7789 111.261L39.2635 111.826V114.816H38.6071V111.826L38.0917 111.261L34.9506 114.821H34.1206Z" fill="#8D9FB0"/>
<path d="M47.2563 114.822V107.281H47.9074V113.685L52.6814 107.281H53.3432V114.822H52.6922V108.331L47.8965 114.827L47.2563 114.822Z" fill="#8D9FB0"/>
<path d="M56.4273 114.369C57.3984 114.369 57.9789 113.792 58.3423 110.991L58.836 107.264H63.1164V114.805H62.4491V107.851H59.4111L58.9988 111.045C58.5539 114.433 57.6859 114.956 56.4219 114.956L56.4273 114.369Z" fill="#8D9FB0"/>
<path d="M66.9912 111.051C66.9912 108.842 68.4505 107.14 70.6911 107.14C72.9316 107.14 74.3909 108.842 74.3909 111.051C74.3909 113.259 72.9208 114.962 70.6911 114.962C68.4614 114.962 66.9912 113.259 66.9912 111.051ZM73.702 111.051C73.702 109.123 72.5139 107.727 70.6857 107.727C68.8574 107.727 67.6748 109.123 67.6748 111.051C67.6748 112.979 68.8411 114.375 70.6857 114.375C72.5302 114.375 73.702 112.952 73.702 111.051Z" fill="#8D9FB0"/>
<path d="M78.5601 114.822V107.281H79.2111V113.685L83.9851 107.281H84.6361V114.822H83.9851V108.331L79.2111 114.822H78.5601ZM81.6089 106.796C81.2195 106.795 80.8356 106.705 80.4873 106.532C80.139 106.359 79.8358 106.108 79.6017 105.799L79.9326 105.514C80.1219 105.78 80.3734 105.996 80.6653 106.144C80.9573 106.292 81.281 106.368 81.6089 106.365C81.9364 106.366 82.2594 106.289 82.551 106.141C82.8425 105.993 83.0943 105.778 83.2852 105.514L83.6053 105.799C83.3753 106.112 83.0739 106.365 82.7259 106.54C82.3779 106.714 81.9932 106.803 81.6035 106.801L81.6089 106.796Z" fill="#8D9FB0"/>
<path d="M98.6946 114.822L95.5535 111.261L94.7072 112.177V114.817H94.0562V107.275H94.7072V111.412L98.3853 107.275H99.2208L95.9658 110.879L99.5137 114.833L98.6946 114.822Z" fill="#8D9FB0"/>
<path d="M102.739 111.051C102.739 108.842 104.198 107.14 106.439 107.14C108.679 107.14 110.139 108.842 110.139 111.051C110.139 113.259 108.668 114.962 106.439 114.962C104.209 114.962 102.739 113.259 102.739 111.051ZM109.45 111.051C109.45 109.123 108.261 107.727 106.433 107.727C104.605 107.727 103.422 109.123 103.422 111.051C103.422 112.979 104.589 114.375 106.433 114.375C108.278 114.375 109.45 112.952 109.45 111.051Z" fill="#8D9FB0"/>
<path d="M120.484 114.822V108.148L117.729 114.822H117.479L114.696 108.148V114.822H114.045V107.281H115.016L117.609 113.513L120.191 107.281H121.173V114.822H120.484Z" fill="#8D9FB0"/>
<path d="M130.8 114.822V107.852H125.971V114.822H125.326V107.281H131.467V114.822H130.8Z" fill="#8D9FB0"/>
<path d="M135.087 114.369C136.058 114.369 136.639 113.792 137.002 110.991L137.496 107.264H141.776V114.805H141.115V107.851H138.077L137.664 111.045C137.219 114.433 136.351 114.956 135.087 114.956V114.369Z" fill="#8D9FB0"/>
<path d="M145.937 114.822V107.281H150.765V107.868H146.588V110.669H150.684V111.256H146.588V114.246H150.765V114.833L145.937 114.822Z" fill="#8D9FB0"/>
<path d="M159.285 114.822L156.144 111.261L155.297 112.177V114.817H154.646V107.275H155.297V111.412L158.976 107.275H159.811L156.556 110.879L160.104 114.833L159.285 114.822Z" fill="#8D9FB0"/>
<path d="M163.333 111.051C163.314 110.539 163.4 110.029 163.586 109.551C163.772 109.073 164.054 108.638 164.415 108.272C164.776 107.906 165.208 107.617 165.685 107.422C166.162 107.228 166.674 107.132 167.19 107.14C167.725 107.133 168.254 107.25 168.736 107.482C169.217 107.714 169.637 108.054 169.962 108.476L169.42 108.826C169.159 108.488 168.822 108.214 168.436 108.027C168.05 107.84 167.625 107.745 167.195 107.749C166.332 107.784 165.515 108.149 164.916 108.768C164.317 109.387 163.983 110.212 163.983 111.07C163.983 111.928 164.317 112.753 164.916 113.372C165.515 113.991 166.332 114.356 167.195 114.391C167.625 114.395 168.05 114.3 168.436 114.113C168.822 113.926 169.159 113.652 169.42 113.313L169.962 113.653C169.639 114.078 169.22 114.421 168.738 114.655C168.257 114.889 167.726 115.007 167.19 114.999C166.671 115.008 166.156 114.911 165.676 114.714C165.196 114.517 164.762 114.225 164.4 113.855C164.039 113.485 163.758 113.045 163.574 112.563C163.39 112.08 163.308 111.566 163.333 111.051Z" fill="#8D9FB0"/>
<path d="M18.1797 80.192V65.982H8.78352V80.192H6.78711V64.2098H20.1815V80.192H18.1797Z" fill="#8D9FB0"/>
<path d="M23.2012 80.192L27.5412 73.6849C26.9562 73.6533 26.3833 73.5075 25.8551 73.2559C25.3269 73.0043 24.8538 72.6518 24.4629 72.2186C24.0719 71.7854 23.7708 71.2799 23.5766 70.7311C23.3825 70.1823 23.2991 69.6009 23.3314 69.0201C23.3314 66.079 25.4254 64.2098 28.3929 64.2098H34.8487V80.192H32.8632V73.825H29.6081L25.5394 80.192H23.2012ZM32.8632 72.112V65.982H28.6208C26.7437 65.982 25.4146 67.2264 25.4146 69.0201C25.4055 69.435 25.4833 69.8472 25.6429 70.2307C25.8024 70.6142 26.0404 70.9607 26.3417 71.2483C26.6431 71.5358 27.0012 71.7582 27.3935 71.9013C27.7857 72.0444 28.2036 72.1052 28.6208 72.0797L32.8632 72.112Z" fill="#8D9FB0"/>
<path d="M42.5818 80.192V65.982H37.4985V64.2098H49.6886V65.982H44.5836V80.192H42.5818Z" fill="#8D9FB0"/>
<path d="M54.3475 64.2098V70.5499H58.8069C61.986 70.5499 63.8413 72.7531 63.8413 75.3602C63.8413 77.9673 62.0348 80.1705 58.8069 80.1705H52.3457V64.2098H54.3475ZM54.3475 72.3221V78.3983H58.5628C60.467 78.3983 61.769 77.1539 61.769 75.3602C61.769 73.5664 60.467 72.3221 58.5628 72.3221H54.3475ZM65.5773 80.192V64.2098H67.5792V80.192H65.5773Z" fill="#8D9FB0"/>
<path d="M71.3472 80.1916V64.2094H73.349V76.6741L82.5987 64.2094H84.6385V80.1916H82.6367V67.4361L73.2731 80.1916H71.3472ZM77.9983 63.326C77.1752 63.325 76.3636 63.1342 75.6274 62.7687C74.8912 62.4032 74.2506 61.873 73.7559 61.2199L74.6456 60.455C75.0214 60.9898 75.5223 61.4261 76.1053 61.7263C76.6884 62.0265 77.3361 62.1818 77.9928 62.1787C78.6476 62.1876 79.2944 62.0348 79.8749 61.7339C80.4554 61.433 80.9514 60.9935 81.3184 60.455L82.2081 61.2199C81.7197 61.8699 81.0842 62.3969 80.3529 62.758C79.6216 63.1192 78.815 63.3046 77.9983 63.2991V63.326Z" fill="#8D9FB0"/>
<path d="M104.345 80.192L98.247 73.017L96.6195 74.8323V80.192H94.6177V64.2098H96.6195V72.4622L103.726 64.2098H106.233L99.5328 71.7942L106.824 80.192H104.345Z" fill="#8D9FB0"/>
<path d="M109.118 80.192V64.2098H116.274C119.068 64.2098 120.782 65.8851 120.782 68.2768C120.813 69.1175 120.548 69.9427 120.034 70.611C119.519 71.2792 118.786 71.749 117.961 71.9397C119.67 72.2036 121.091 73.9489 121.091 75.8612C121.091 78.4198 119.382 80.1705 116.442 80.1705L109.118 80.192ZM118.71 68.5892C118.71 67.1509 117.744 66.0036 115.937 66.0036H111.12V71.1478H115.937C117.728 71.1263 118.71 70.022 118.71 68.5622V68.5892ZM119.024 75.6726C119.024 74.2128 118.01 72.92 116.035 72.92H111.12V78.4252H116.035C117.918 78.3983 119.024 77.3425 119.024 75.6457V75.6726Z" fill="#8D9FB0"/>
<path d="M135.754 80.1913L134.333 76.6523H126.331L124.91 80.1913H122.609L129.065 64.2307H131.544L138.044 80.1913H135.754ZM130.329 66.2938L126.906 74.8801H133.731L130.329 66.2938Z" fill="#8D9FB0"/>
<path d="M140.15 80.192V64.2098H146.606C149.861 64.2098 151.64 66.413 151.64 69.0201C151.64 71.6272 149.785 73.8304 146.606 73.8304H142.141V80.192H140.15ZM149.573 69.0417C149.573 67.2479 148.271 66.0036 146.367 66.0036H142.141V72.0582H146.356C148.266 72.0582 149.568 70.8139 149.568 69.0201L149.573 69.0417Z" fill="#8D9FB0"/>
<path d="M158.278 80.192V65.982H153.194V64.2098H165.384V65.982H160.274V80.192H158.278Z" fill="#8D9FB0"/>
<path d="M179.511 80.1913L178.09 76.6523H170.093L168.672 80.1913H166.382L172.838 64.2307H175.317L181.8 80.1913H179.511ZM174.086 66.2938L170.663 74.8801H177.482L174.086 66.2938Z" fill="#8D9FB0"/>
<path d="M182.796 78.6827C184.722 78.6827 185.807 77.6053 186.485 72.2187L187.473 64.2034H197.303V80.1909H195.307V65.981H189.252L188.455 72.3695C187.587 79.3721 185.661 80.4495 182.791 80.4495L182.796 78.6827Z" fill="#8D9FB0"/>
</svg>
