<svg width="108" height="115" viewBox="0 0 108 115" fill="none" xmlns="http://www.w3.org/2000/svg">
<path d="M49.8783 89.7328C49.8783 89.8349 49.8335 89.8859 49.7439 89.8859C49.6543 89.8859 49.6018 89.8179 49.5863 89.6818C49.5756 89.4296 49.5108 89.1828 49.3963 88.9579C49.2542 88.7012 48.9314 88.5713 48.4278 88.5682H48.0848V93.0458C48.0848 93.1881 48.193 93.2623 48.4092 93.2685C48.6255 93.2747 48.7336 93.3041 48.7336 93.3567C48.7336 93.4092 48.6703 93.4355 48.5436 93.4355H46.7317C46.5834 93.4355 46.5092 93.4092 46.5092 93.3567C46.5092 93.3041 46.6312 93.2747 46.8753 93.2685C46.9335 93.2798 46.9933 93.2798 47.0514 93.2685C47.0789 93.2634 47.1039 93.2491 47.1224 93.2281C47.1409 93.2071 47.1518 93.1805 47.1534 93.1525C47.1534 93.0906 47.1534 92.9035 47.1534 92.5911V88.5728C46.7675 88.5285 46.3768 88.5894 46.0226 88.7491C45.7971 88.9872 45.6711 89.3026 45.6704 89.6307C45.6488 89.8009 45.6009 89.8859 45.5268 89.8859C45.4619 89.8859 45.4248 89.8024 45.4248 89.6354C45.4248 89.4683 45.4572 89.0043 45.5268 88.3826H48.1173H49.5076C49.586 88.3795 49.6638 88.3671 49.7393 88.3455V88.5728L49.7717 88.9672L49.8041 89.4312V89.6261C49.8783 89.6679 49.8783 89.7328 49.8783 89.7328Z" fill="#8D9FB0"/>
<path d="M55.5082 93.3757C55.5082 93.4283 55.397 93.4546 55.1745 93.4546H53.6267C53.4645 93.4546 53.3811 93.4546 53.3811 93.3803C53.3811 93.3061 53.4413 93.3154 53.5665 93.3061C53.8074 93.3061 53.9326 93.2643 53.9465 93.204C53.9603 93.0822 53.9603 92.9592 53.9465 92.8375V90.8005H51.8425V93.0927C51.8439 93.1245 51.8531 93.1556 51.8692 93.1831C51.8854 93.2106 51.908 93.2337 51.9352 93.2504C52.0575 93.2838 52.1839 93.2994 52.3106 93.2968C52.3894 93.2968 52.4311 93.3247 52.4311 93.3757C52.4311 93.4267 52.3569 93.4546 52.2086 93.4546H50.4847C50.3735 93.4546 50.3179 93.4283 50.3179 93.3757C50.3179 93.3231 50.426 93.2937 50.6423 93.2875C50.806 93.2875 50.8956 93.2427 50.9111 93.153V88.977C50.9194 88.8658 50.9194 88.7541 50.9111 88.6429C50.9111 88.5841 50.8446 88.5547 50.7118 88.5547C50.4615 88.5547 50.3318 88.5083 50.3318 88.4434C50.3318 88.3784 50.3827 88.3784 50.4893 88.3784H52.2457C52.3708 88.3784 52.4357 88.4063 52.4357 88.4666C52.4357 88.5269 52.3384 88.564 52.1391 88.5547C52.0584 88.5462 51.977 88.559 51.9028 88.5919C51.8688 88.6166 51.8518 88.6924 51.8518 88.8192V90.5778H53.965V89.0651C53.9801 88.9341 53.9801 88.8018 53.965 88.6707C53.965 88.5826 53.877 88.5455 53.7472 88.5594H53.5387C53.4429 88.5439 53.395 88.513 53.395 88.4666C53.395 88.4016 53.4738 88.3738 53.6267 88.3738H55.2394C55.4155 88.3738 55.5082 88.4016 55.5082 88.4527C55.5082 88.5037 55.4572 88.5408 55.3599 88.5408H55.1097C55.0123 88.5408 54.9567 88.5408 54.9428 88.5965C54.9286 88.7152 54.9286 88.8351 54.9428 88.9538V92.805C54.9428 93.0586 54.9614 93.1978 54.9984 93.2226C55.1246 93.2601 55.2568 93.2727 55.3877 93.2597C55.4572 93.2829 55.5082 93.3154 55.5082 93.3757Z" fill="#8D9FB0"/>
<path d="M60.2372 92.2528C60.2372 92.2528 60.2372 92.3085 60.2372 92.3966C60.2324 92.4739 60.2324 92.5514 60.2372 92.6286V93.2736C60.2382 93.349 60.2491 93.4238 60.2697 93.4963L58.416 93.4638L56.2935 93.4963C56.1359 93.4963 56.0571 93.4669 56.0571 93.4082C56.0571 93.3432 56.1035 93.3061 56.1915 93.3061C56.3326 93.3213 56.4753 93.3038 56.6086 93.255C56.6488 93.221 56.6689 93.1004 56.6689 92.8931V89.0605C56.6689 88.7512 56.6426 88.5965 56.5901 88.5965C56.462 88.5711 56.3312 88.5618 56.2008 88.5687C56.1112 88.5687 56.0664 88.5424 56.0664 88.4898C56.0664 88.4295 56.1127 88.4016 56.2101 88.4016H59.9916V88.4805V88.6429C59.9916 88.7512 60.0209 89.0806 60.0796 89.6312C60.0837 89.6744 60.0837 89.7179 60.0796 89.7611C60.0796 89.8586 60.0518 89.905 60.0009 89.905C59.9499 89.905 59.885 89.8307 59.8572 89.6822C59.7553 89.1193 59.5591 88.7883 59.2687 88.6893C58.8883 88.6185 58.5011 88.592 58.1147 88.6104H57.5494V90.6613H57.8135C58.109 90.691 58.4073 90.6513 58.6847 90.5453C58.796 90.468 58.8701 90.2545 58.9072 89.905C58.9072 89.6962 58.9721 89.5941 59.0416 89.5941C59.1111 89.5941 59.1528 89.6683 59.1528 89.8168C59.1528 89.9653 59.1528 90.0442 59.1528 90.2298C59.1528 90.4154 59.1528 90.5546 59.1528 90.652C59.1528 91.1346 59.1605 91.4655 59.176 91.645C59.176 91.7053 59.176 91.7517 59.176 91.7888C59.176 91.9094 59.1389 91.9651 59.0647 91.9651C58.9906 91.9651 58.9535 91.8723 58.935 91.6867C58.8917 91.2846 58.8191 91.0449 58.7172 90.9675C58.4417 90.8602 58.1446 90.8205 57.8506 90.8515H57.5772V93.255C58.2164 93.2745 58.8563 93.245 59.4911 93.1669C59.8 93.0865 59.9731 92.7307 60.0101 92.0997C60.0101 91.9883 60.0565 91.9326 60.1306 91.9326C60.2048 91.9326 60.2372 92.0533 60.2372 92.2528Z" fill="#8D9FB0"/>
<path d="M23.9415 106.775C23.9415 106.964 23.6449 107.057 23.0517 107.054C21.7171 107.054 20.9756 107.25 20.8273 107.643C20.7284 107.915 20.679 108.987 20.679 110.858V112.042C19.5912 113.004 18.3508 113.779 17.0087 114.334C15.6696 114.804 14.2567 115.029 12.8379 114.997C8.93276 114.997 5.83092 113.828 3.53234 111.49C1.23376 109.151 0.0844727 105.977 0.0844727 101.968C0.0844727 97.9098 1.20905 94.6309 3.45819 92.1314C5.70734 89.632 8.67324 88.3823 12.3559 88.3823C14.1819 88.4445 15.9723 88.9054 17.6019 89.7326C18.0312 89.9657 18.5051 90.1049 18.9921 90.1409C19.4617 90.1409 19.7707 89.8439 19.919 89.25C20.0426 88.9036 20.197 88.7303 20.3824 88.7303C20.5678 88.7303 20.6666 88.8417 20.679 89.0644C20.6913 89.2871 20.6697 89.5222 20.6141 89.7697C20.4799 90.8471 20.4149 91.932 20.4195 93.0177V95.0222C20.4559 95.6532 20.4435 96.2861 20.3824 96.9153C20.3764 97.0183 20.3304 97.1148 20.2541 97.1842C20.1779 97.2536 20.0775 97.2903 19.9746 97.2865C19.7521 97.2865 19.6286 97.1117 19.6038 96.7622C19.4803 94.3772 18.7882 92.4934 17.5277 91.1106C16.8986 90.4263 16.1285 89.8868 15.2708 89.5295C14.4131 89.1722 13.4881 89.0056 12.5598 89.0412C9.98937 89.0412 7.95648 90.1888 6.46117 92.4841C4.96586 94.7793 4.21821 97.9129 4.21821 101.885C4.21821 105.733 4.97822 108.78 6.49825 111.026C8.01827 113.271 10.0759 114.394 12.671 114.394C14.6483 114.394 16.0077 113.822 16.7492 112.677C17.1199 112.105 17.3053 111.073 17.3053 109.582C17.3053 108.345 17.1879 107.612 16.9531 107.383C16.7183 107.154 15.9088 107.055 14.5247 107.086C14.301 107.097 14.0768 107.08 13.8574 107.035C13.8118 107.022 13.772 106.994 13.7449 106.955C13.7179 106.916 13.7052 106.869 13.7091 106.822C13.7091 106.577 13.981 106.455 14.5247 106.455H15.1921C15.7358 106.48 17.0952 106.48 19.2702 106.455H23.2C23.6943 106.443 23.9415 106.549 23.9415 106.775Z" fill="#8D9FB0"/>
<path d="M40.4756 114.366C40.4756 114.514 40.2284 114.588 39.7341 114.588H32.4306C31.9857 114.588 31.7632 114.489 31.7632 114.291C31.7632 114.093 32.2081 113.984 33.0979 113.962C34.1607 113.937 34.6921 113.815 34.6921 113.595C34.6348 113.357 34.5605 113.123 34.4696 112.895C34.4202 112.7 34.136 111.877 33.6169 110.426L33.1535 109.174H27.8705C26.8571 111.722 26.3505 113.195 26.3505 113.591C26.3505 113.814 26.5049 113.937 26.8139 113.962L27.2773 113.999H27.8334L28.1671 114.11C28.4637 114.11 28.6305 114.185 28.6305 114.338C28.6305 114.491 28.371 114.598 27.852 114.598L26.5358 114.542C25.7326 114.505 25.022 114.486 24.4041 114.486H24.0704L23.7368 114.542L23.329 114.598H23.2548C22.8594 114.598 22.6616 114.523 22.6616 114.375C22.6616 114.203 22.8238 114.101 23.125 114.078C23.5699 114.053 23.8665 114.029 24.0148 114.004C24.3157 113.984 24.6019 113.867 24.8304 113.67C24.9787 113.595 25.5843 112.182 26.6471 109.429C27.0672 108.312 27.475 107.27 27.8705 106.301C27.9841 106.047 28.0831 105.787 28.1671 105.522C28.251 105.257 28.35 104.996 28.4637 104.742C28.8838 103.725 29.477 102.186 30.2432 100.126L30.7947 98.548L31.0496 97.8798C31.1979 97.5086 31.3523 97.323 31.513 97.323C31.5871 97.323 31.7416 97.6695 31.9764 98.3624C32.7179 100.169 34.6334 104.945 37.7229 112.691C38.0318 113.458 38.316 113.866 38.5756 113.916C38.9687 113.974 39.3648 114.011 39.7619 114.027C40.2377 114.055 40.4756 114.168 40.4756 114.366ZM32.9496 108.538L30.563 102.195C29.9636 103.68 29.1372 105.794 28.0837 108.538H32.9496Z" fill="#8D9FB0"/>
<path d="M55.7484 113.624C55.7484 114.416 55.0595 114.812 53.6816 114.812C53.0606 114.827 52.4447 114.697 51.8819 114.434C51.3191 114.171 50.8248 113.781 50.4376 113.295C50.0983 112.909 49.8455 112.455 49.6961 111.963C49.4768 110.927 49.3221 109.878 49.2327 108.822C49.1091 107.761 48.7708 107.022 48.2178 106.604C47.6648 106.186 46.7101 105.953 45.3538 105.903V113.55C45.2797 113.896 45.8976 114.07 47.2075 114.07C47.4763 114.07 47.6107 114.158 47.6107 114.33C47.6107 114.501 47.4392 114.589 47.0917 114.589H41.1413C40.4493 114.589 40.1033 114.509 40.1033 114.348C40.1033 114.163 40.2284 114.07 40.474 114.07H40.9884C41.8287 114.07 42.2489 113.896 42.2489 113.55V98.8876C42.2628 98.788 42.2515 98.6864 42.2158 98.5924C42.1802 98.4983 42.1214 98.4147 42.045 98.3494C41.6997 98.2309 41.3334 98.1866 40.9699 98.2195C40.389 98.2195 40.0986 98.1205 40.0986 97.9225C40.0986 97.7245 40.2716 97.6379 40.6177 97.6627H47.6246C49.0247 97.5946 50.413 97.9486 51.6101 98.6788C52.071 98.9561 52.4519 99.3488 52.7152 99.8182C52.9785 100.288 53.1151 100.818 53.1115 101.356C53.1164 101.941 52.9727 102.517 52.6938 103.031C52.4149 103.545 52.0101 103.979 51.5174 104.293C50.4546 105.045 48.9593 105.483 47.0314 105.606C49.1076 105.829 50.5349 106.37 51.3135 107.23C52.092 108.09 52.5925 109.637 52.815 111.87C52.9633 113.398 53.4267 114.163 54.2052 114.163C54.3303 114.163 54.3906 114.125 54.3906 114.056C54.3693 113.973 54.3382 113.894 54.2979 113.819C54.2468 113.724 54.2153 113.62 54.2052 113.513C54.2052 113.055 54.4524 112.826 54.9467 112.826C55.4812 112.839 55.7484 113.105 55.7484 113.624ZM49.8908 101.616C49.8908 99.4011 48.8002 98.2937 46.619 98.2937C46.2612 98.2534 45.8992 98.3111 45.5717 98.4608C45.4357 98.5721 45.3677 98.8366 45.3677 99.2542V105.309C48.3831 105.309 49.8908 104.08 49.8908 101.621V101.616Z" fill="#8D9FB0"/>
<path d="M74.3945 106.108C74.3945 109.009 73.2823 111.253 71.0578 112.84C69.4513 113.982 67.3875 114.552 64.8665 114.552H57.6742C57.254 114.552 57.0439 114.435 57.0439 114.2C57.0439 113.965 57.1984 113.872 57.5074 113.921H58.3601C58.8544 113.946 59.1263 113.81 59.1757 113.513C59.2515 113.086 59.2764 112.651 59.2498 112.219V100.363C59.2825 99.7344 59.2577 99.1039 59.1757 98.4795C59.0521 98.331 58.6196 98.2444 57.8781 98.2196C57.4332 98.2196 57.2108 98.133 57.2108 97.9598C57.2108 97.7866 57.4332 97.6876 57.8781 97.6628H62.0489C65.2867 97.6628 67.5853 97.8608 68.9446 98.2568C70.5645 98.7198 71.9692 99.7401 72.9115 101.138C73.9137 102.598 74.4324 104.336 74.3945 106.108ZM70.8354 105.978C70.8354 100.855 68.7685 98.2939 64.6348 98.2939C63.3805 98.2939 62.6853 98.3619 62.5494 98.498C62.4135 98.6341 62.3455 99.0858 62.3455 99.8529V112.956C62.3455 113.402 62.4505 113.674 62.6606 113.773C63.1851 113.909 63.7282 113.959 64.2687 113.921C68.6465 113.921 70.8369 111.272 70.84 105.973L70.8354 105.978Z" fill="#8D9FB0"/>
<path d="M90.302 110.562C90.302 110.59 90.302 110.743 90.2463 111.026C90.2117 111.283 90.1931 111.542 90.1907 111.801V113.954C90.1945 114.205 90.2319 114.455 90.302 114.696L84.1153 114.585L77.0342 114.696C76.512 114.696 76.251 114.599 76.251 114.404C76.251 114.181 76.3993 114.065 76.7144 114.065C77.1845 114.116 77.66 114.059 78.1047 113.898C78.2406 113.787 78.3086 113.385 78.3086 112.692V99.9411C78.3086 98.9265 78.2221 98.3882 78.0491 98.3264C77.622 98.2417 77.1862 98.2106 76.7515 98.2336C76.4425 98.2336 76.2881 98.1469 76.2881 97.9737C76.2881 97.8005 76.4425 97.7015 76.7515 97.6768H89.4307V97.932L89.4678 98.4795C89.5172 98.8445 89.6161 99.9426 89.7644 101.774C89.791 101.919 89.8035 102.067 89.8014 102.215C89.8014 102.524 89.7149 102.679 89.5419 102.679C89.3195 102.679 89.165 102.431 89.0785 101.936C88.7325 100.056 88.0806 98.9543 87.1229 98.6326C86.5822 98.4594 85.3032 98.3728 83.2857 98.3728H81.4042V105.333H82.2847C83.8542 105.333 84.8228 105.203 85.1904 104.943C85.5581 104.683 85.8037 103.972 85.9272 102.809C86.0014 102.116 86.1559 101.769 86.3907 101.769C86.6255 101.769 86.749 102.017 86.7614 102.512C86.7614 102.821 86.7429 103.285 86.7058 103.904C86.6687 104.522 86.6502 104.986 86.6502 105.296C86.6502 106.904 86.678 108.005 86.7336 108.599C86.7521 108.797 86.7614 108.952 86.7614 109.063C86.7614 109.459 86.6394 109.657 86.3953 109.657C86.1512 109.657 86.0045 109.348 85.955 108.729C85.8098 107.393 85.5658 106.595 85.2228 106.335C84.8799 106.075 83.9175 105.945 82.3357 105.945H81.4089V113.963C85.0267 113.938 87.1553 113.839 87.7948 113.666C88.7773 113.394 89.355 112.206 89.528 110.103C89.5527 109.731 89.6887 109.546 89.9358 109.546C90.183 109.546 90.305 109.885 90.302 110.562Z" fill="#8D9FB0"/>
<path d="M107.95 97.9215C107.95 98.0947 107.678 98.1813 107.135 98.1813H106.208C105.985 98.1813 105.855 98.2308 105.818 98.3298C105.764 98.6625 105.745 99 105.763 99.3367V113.025C105.763 113.919 105.75 114.441 105.726 114.593C105.703 114.741 105.591 114.816 105.392 114.816C105.12 114.816 104.241 113.778 102.755 111.702C102.582 111.43 102.312 111.057 101.944 110.584C101.895 110.51 101.759 110.324 101.536 110.027C100.301 108.385 98.0622 105.299 94.8214 100.77V112.542C94.8214 113.47 94.9511 113.956 95.2106 113.999C95.6837 114.062 96.161 114.087 96.638 114.073H96.7863C97.0829 114.073 97.2497 114.157 97.2497 114.315C97.2497 114.472 96.9763 114.593 96.4341 114.593C96.3352 114.593 95.9274 114.568 95.2106 114.519C94.8399 114.494 94.5062 114.482 94.2096 114.482C93.9625 114.482 93.7153 114.494 93.4682 114.519C92.9631 114.57 92.4558 114.595 91.9481 114.593C91.5527 114.593 91.355 114.5 91.355 114.315C91.355 114.129 91.5898 114.049 92.0594 114.073H92.393L92.8565 114.036C93.4496 113.987 93.7586 113.874 93.7833 113.697C93.8198 113.337 93.8322 112.974 93.8204 112.612V102.334C93.8204 100.478 93.7091 99.3568 93.4867 98.9701C93.1778 98.4721 92.5969 98.2231 91.7442 98.2231C91.1263 98.2231 90.8174 98.1179 90.8174 97.9075C90.8174 97.6972 90.9719 97.6152 91.2808 97.6616H95.9892L104.739 109.726V99.4063C104.762 99.0457 104.738 98.6836 104.664 98.3298C104.615 98.2308 104.417 98.1813 104.071 98.1813H103.089C102.619 98.1813 102.384 98.0885 102.384 97.9029C102.384 97.7885 102.502 97.7189 102.737 97.6941C102.971 97.6694 103.806 97.657 105.239 97.657C106.598 97.657 107.389 97.6678 107.612 97.6895C107.839 97.7173 107.95 97.7915 107.95 97.9215Z" fill="#8D9FB0"/>
<path d="M54.0076 0C46.0011 4.72684e-07 38.1743 2.37699 31.517 6.83042C24.8596 11.2838 19.6706 17.6137 16.606 25.0197C13.5414 32.4257 12.7389 40.5752 14.2999 48.4379C15.8608 56.3005 19.7152 63.5232 25.3757 69.1927C31.0362 74.8622 38.2486 78.7238 46.1009 80.2895C53.9532 81.8551 62.0929 81.0543 69.4907 77.9885C76.8886 74.9226 83.2124 69.7293 87.6626 63.0652C92.1127 56.4011 94.4895 48.5654 94.4922 40.5489C94.494 35.2246 93.4482 29.9521 91.4145 25.0326C89.3808 20.113 86.399 15.6429 82.6394 11.8774C78.8799 8.11185 74.4163 5.12482 69.5036 3.08688C64.5909 1.04893 59.3253 -3.13943e-07 54.0076 0ZM54.8556 79.0609C53.9288 78.6294 51.8619 77.5947 51.2085 76.8105C50.3558 75.7897 49.0675 74.4905 48.7894 74.0636C48.2889 73.3305 47.3992 71.8364 47.3992 71.8364C47.0234 71.2536 46.7125 70.6312 46.4723 69.9804C46.0089 68.7416 45.3694 67.6604 45.8282 66.0736C46.287 64.4867 46.6809 63.9113 46.9775 63.619C47.274 63.3267 47.5243 63.4612 47.7467 63.4334C48.0542 63.3426 48.3292 63.1654 48.5392 62.923C48.8118 62.6028 49.0054 62.2229 49.1046 61.814C49.1145 61.7021 49.0976 61.5895 49.0553 61.4854C49.0129 61.3813 48.9464 61.2889 48.8611 61.2158C48.7759 61.1428 48.6744 61.0911 48.5652 61.0652C48.456 61.0393 48.3423 61.04 48.2333 61.067C47.9238 61.197 47.6479 61.3957 47.4263 61.6481C47.2047 61.9005 47.0433 62.2 46.9543 62.524C46.9543 62.8348 46.5743 63.155 46.3565 63.452C45.9552 64.0062 45.6266 64.6097 45.3786 65.2476C45.1469 65.9158 45.1562 66.2684 44.9847 65.9529C44.7455 64.9777 44.7954 63.9538 45.1284 63.0065C45.5455 61.9718 46.7457 60.6865 47.2555 60.1065C47.7653 59.5265 48.5948 58.2273 49.1324 57.7169C49.6699 57.2065 50.8146 56.0419 51.0927 55.8609C51.3707 55.68 52.2466 54.0328 52.3856 53.759C52.5246 53.4852 52.9232 51.0632 53.0483 50.7291C53.3891 50.1056 53.581 49.4116 53.609 48.7014C53.6335 48.0321 53.5775 47.3622 53.4422 46.7062C53.3727 46.3629 53.5442 46.5438 53.572 46.1958C53.5998 45.8478 52.3485 44.1728 51.519 43.8433C50.6895 43.5139 50.5922 43.9733 50.328 43.6995C50.0639 43.4257 50.2585 43.2865 50.2585 43.2865C50.2585 43.2865 49.9573 43.0685 49.7302 42.8782C49.5031 42.688 49.5263 42.9293 49.3687 42.8272C49.2112 42.7251 48.6411 42.1776 48.2704 42.1822C47.8997 42.1869 47.7143 42.5349 47.5428 42.4885C47.3714 42.4421 46.616 41.9502 46.4214 42.0245C46.2267 42.0987 44.5677 42.9942 44.2664 43.1845C43.9652 43.3747 42.7696 44.3955 42.5657 45.0126C42.3618 45.6297 41.5647 44.9291 41.0086 45.6901C40.4525 46.451 40.3969 47.1053 40.2532 47.9869C40.1095 48.8685 39.711 49.9032 39.7898 50.2604C39.8502 51.0459 39.99 51.8232 40.2069 52.5804C40.5451 53.6244 40.9993 54.687 41.3469 55.0072C41.6944 55.3273 43.7103 57.1972 43.8679 58.1392C44.0377 59.7202 44.1181 61.3096 44.1089 62.8998C44.0579 63.2432 44.0069 63.6283 43.7057 63.1364C43.4045 62.6446 41.8844 58.7795 41.143 57.5406C40.4015 56.3017 38.8907 53.7451 38.4319 52.4366C38.1763 51.7362 38.0431 50.9969 38.038 50.2512C37.9407 49.5737 37.5746 48.1725 38.8119 46.8454C39.8537 45.7528 41.0114 44.7773 42.2644 43.9361C43.0569 43.4257 44.3869 42.5952 44.6928 41.9363C44.9986 41.2774 45.4899 40.02 45.476 39.4493C45.4621 38.8785 45.476 38.8414 45.6104 38.7857C45.7448 38.7301 45.4852 38.0248 45.1006 37.8577C44.4618 37.4454 43.9613 36.8506 43.664 36.1502C43.5296 35.5841 41.3191 35.895 40.42 33.9741C39.521 32.0531 40.3459 32.0113 40.1373 31.7097C39.9288 31.4081 39.7388 30.6565 39.3634 30.5637C38.9881 30.4709 37.7785 30.4755 37.5653 30.3085C37.3522 30.1414 36.3465 30.6425 35.9851 30.5915C35.6236 30.5405 33.0655 31.0973 32.083 31.8536C31.1006 32.6099 30.7855 32.2155 30.5538 32.8883C30.322 33.5611 30.3591 33.9926 29.9652 34.1504C29.5713 34.3081 27.6249 35.8115 27.9076 37.236C28.1903 38.6605 29.4369 39.092 29.2979 39.3054C29.1589 39.5189 28.0096 40.5489 28.904 41.9641C29.7984 43.3793 30.6603 44.0104 31.3369 44.2052C32.0135 44.4001 36.1102 46.1726 36.3604 47.3001C36.6107 48.4277 37.7507 51.2673 37.3939 51.5689C37.037 51.8705 36.7961 50.8405 35.619 50.46C34.4419 50.0795 33.2787 49.7779 32.9682 49.6341C32.6577 49.4902 33.0794 48.4369 31.7169 48.423C30.3545 48.4091 29.6269 49.003 29.7567 49.5877C29.8864 50.1723 30.7067 50.5806 31.5316 50.5435C32.3565 50.5064 32.2313 50.2929 32.6623 50.2558C33.0933 50.2187 35.2529 50.9564 35.9851 51.4483C36.7173 51.9401 38.5061 53.4852 40.2903 57.4107C42.0744 61.3361 44.5538 66.4308 44.9245 67.7904C45.2952 69.1499 45.5594 69.2288 45.5084 69.5907C45.4574 69.9526 43.3396 67.6048 42.4869 66.5051C41.6342 65.4054 40.7259 64.2454 39.8871 60.0091C39.0483 55.7728 37.2873 55.3691 35.4892 54.4411C33.6911 53.5131 31.4945 53.9771 29.7567 54.7009C28.4462 55.18 27.2543 55.9365 26.2625 56.9188C24.9278 58.0788 24.6312 57.7401 24.3346 58.8723C24.038 60.0044 24.3995 60.1529 24.5014 60.6726C24.6034 61.1923 23.899 61.1923 23.9592 61.6006C24.0195 62.0089 24.7888 62.6168 24.7702 63.1782C24.7517 63.7396 25.0622 65.3868 25.4515 65.6745C25.8407 65.9622 31.0125 70.5233 31.5965 70.3563C32.1804 70.1892 32.0599 69.934 32.375 70.0964C32.6901 70.2588 34.3677 70.9084 35.2436 70.5048C36.1195 70.1011 37.9824 69.6046 38.6219 68.9736C39.2615 68.3425 41.2959 67.3032 41.8381 67.3217C42.3803 67.3403 43.562 68.5235 44.5491 69.7948C45.5362 71.0662 47.2787 72.9083 47.5845 73.428C48.6643 75.2561 50.5134 76.8337 50.5922 77.2513C50.6709 77.6689 50.5922 77.7431 48.7802 77.0425C47.3786 76.5343 46.0049 75.9519 44.665 75.2979C44.1459 74.9684 44.322 74.2724 43.6269 74.0961C42.9318 73.9198 42.0744 74.3049 42.1579 74.7086C42.2413 75.1123 42.371 76.2212 43.2376 76.4625C44.1042 76.7038 44.1969 76.6945 44.3916 76.43C44.5862 76.1656 44.4472 75.9104 45.0496 76.0542C45.6521 76.198 51.6256 78.8382 52.418 79.1212C45.8171 78.8628 39.3938 76.9065 33.7672 73.4408C28.1406 69.9752 23.5002 65.117 20.2933 59.3344C17.0864 53.5518 15.421 47.0396 15.4576 40.4255C15.4941 33.8113 17.2315 27.3181 20.5021 21.5713C21.4568 20.9449 22.9907 20.0077 23.848 19.8638C25.1549 19.6457 26.9483 19.2049 27.4395 19.1725C28.3247 19.1121 30.0718 19.0936 30.0718 19.0936C30.7694 19.0723 31.4672 19.1284 32.1526 19.2606C33.4548 19.4833 34.7199 19.4926 35.8599 20.6851C37 21.8776 37.2873 22.5411 37.3892 22.9216C37.4912 23.3021 37.2456 23.4737 37.1575 23.6779C37.0825 23.9846 37.0954 24.3062 37.1946 24.6059C37.3314 25.0046 37.56 25.3654 37.8619 25.6592C37.9531 25.7244 38.0585 25.767 38.1694 25.7833C38.2803 25.7996 38.3934 25.7891 38.4995 25.7528C38.6055 25.7165 38.7014 25.6554 38.7791 25.5746C38.8568 25.4937 38.9142 25.3955 38.9463 25.288C38.9933 24.9527 38.963 24.6112 38.8578 24.2895C38.7526 23.9678 38.5752 23.6744 38.3393 23.432C38.0751 23.2696 37.9917 22.7824 37.8758 22.4529C37.6029 21.826 37.2509 21.2365 36.8285 20.699C36.3651 20.1608 36.0592 19.9891 36.4207 20.003C37.3807 20.2919 38.2358 20.8546 38.8815 21.6224C39.5581 22.5086 40.0632 24.1976 40.2995 24.9307C40.5359 25.6638 41.2264 27.0419 41.4025 27.7657C41.5786 28.4896 41.991 30.0857 42.0003 30.3966C42.0096 30.7075 42.9874 32.3222 43.1542 32.5774C43.3211 32.8326 45.2026 34.4334 45.425 34.6886C45.7885 35.2989 46.2881 35.8166 46.8848 36.2013C47.4485 36.5634 48.0538 36.8563 48.6875 37.0736C49.0165 37.1896 48.7755 37.2406 49.0582 37.4448C49.3409 37.6489 51.417 37.4169 52.1261 36.8694C52.8351 36.3219 52.4922 35.9971 52.8537 35.9182C53.2151 35.8393 53.2476 36.0667 53.2476 36.0667C53.2476 36.0667 53.5859 35.9182 53.8639 35.8161C54.142 35.7141 53.9242 35.6166 54.091 35.5285C54.2578 35.4403 55.0178 35.2315 55.2032 34.9067C55.3886 34.5819 55.2032 34.2478 55.3098 34.1225C55.4164 33.9973 56.2366 33.6029 56.2876 33.3941C56.3386 33.1853 56.3849 31.32 56.3849 30.9488C56.3849 30.5776 56.1023 29.0417 55.6759 28.5545C55.2496 28.0673 56.2552 27.7333 55.8844 26.8656C55.5137 25.9979 54.9576 25.6221 54.2949 25.0513C53.6322 24.4806 52.9046 23.6083 52.5802 23.483C51.8786 23.1395 51.1442 22.8675 50.3882 22.671C49.3177 22.4344 48.1731 22.2859 47.7236 22.4205C47.274 22.555 44.6418 23.3485 43.752 23.0051C42.3059 22.349 40.898 21.6116 39.5349 20.7965C39.2615 20.5784 38.9602 20.3325 39.5349 20.3325C40.1095 20.3325 44.2108 20.9728 45.6521 20.9635C47.0933 20.9542 50.0592 20.9635 51.4263 21.2187C52.1589 21.3539 52.8628 21.6145 53.5071 21.9889C54.142 22.2488 55.5415 22.6246 56.042 24.3878C56.4517 25.841 56.7019 27.3347 56.7881 28.8422C56.8252 29.7702 56.8623 31.3525 57.2747 31.951C57.6872 32.5496 58.5213 33.6121 59.0172 33.8859C59.513 34.1597 59.5455 34.1829 59.5223 34.3499C59.4991 34.5169 60.2406 34.6283 60.5835 34.3824C61.2622 34.0414 62.0274 33.9121 62.7802 34.0112C63.3363 34.1829 64.1704 32.1181 66.2883 32.3361C68.4061 32.5542 68.0169 33.2641 68.383 33.2641C68.7491 33.2641 69.4905 33.4544 69.7732 33.176C70.0559 32.8976 70.6537 31.8536 70.904 31.7561C71.1542 31.6587 71.233 30.5358 71.4647 30.2481C71.6964 29.9605 72.5121 27.4641 72.3591 26.2392C72.2062 25.0142 72.7067 24.9353 72.2479 24.3832C71.7891 23.831 71.3952 23.6547 71.4601 23.2325C71.525 22.8102 71.2191 20.3696 69.8474 19.8917C68.4756 19.4137 67.4561 20.2582 67.3634 20.0355C67.2707 19.8128 66.9463 18.2955 65.278 18.3465C63.6097 18.3976 62.6272 18.8105 62.1175 19.307C61.6077 19.8035 58.0023 22.4251 56.904 22.091C55.8057 21.7569 52.7888 21.2744 52.7054 20.815C52.6219 20.3557 53.6322 20.6665 54.5591 19.8499C55.4859 19.0333 56.334 18.1795 56.6167 17.9939C56.8993 17.8083 57.5898 18.6945 58.2942 17.5299C58.9986 16.3653 58.855 15.4326 58.2942 15.247C57.7335 15.0614 56.9549 15.5625 56.5703 16.2957C56.1857 17.0288 56.4313 17.0288 56.2413 17.4186C56.0513 17.8083 54.3227 19.2977 53.5256 19.6782C52.7285 20.0587 50.4948 20.8197 46.2128 20.3649C41.9308 19.9102 36.2863 19.4601 34.9377 19.075C33.5892 18.6899 33.3806 18.8941 33.084 18.6621C32.7875 18.4301 35.897 17.799 37.2548 17.6227C38.6127 17.4464 40.091 17.2515 44.183 18.6899C48.275 20.1283 49.4985 18.8059 51.2039 17.7201C52.9093 16.6344 53.6183 14.5046 53.8917 12.644C54.1446 11.2707 54.0988 9.85902 53.7573 8.50511C53.4376 6.76512 53.8778 6.6816 53.0576 5.85104C52.2373 5.02048 51.9222 5.25712 51.4217 5.0808C50.9212 4.90448 51.278 4.30128 50.8887 4.1528C50.4995 4.00432 49.5912 4.35232 49.1185 4.05072C48.6458 3.74912 47.0145 3.13664 46.5882 3.32688C46.1618 3.51712 39.5951 5.64688 39.4422 6.25008C39.2893 6.85328 39.5673 6.8672 39.2707 7.0528C38.9741 7.2384 37.5607 8.36127 37.4634 9.32175C37.3661 10.2822 36.847 12.1429 37.0695 13.0338C37.2919 13.9246 37.1483 16.189 36.8563 16.6483C36.5643 17.1077 34.947 17.5253 33.3528 17.7294C31.7587 17.9336 29.2886 18.4997 28.6862 18.5043C26.5683 18.5043 24.2697 19.307 23.8666 19.1585C23.4634 19.0101 23.4541 18.8941 24.9695 17.7016C26.1155 16.7479 27.3113 15.8558 28.5518 15.029C29.0986 14.7459 29.6084 15.2517 30.1135 14.7413C30.6186 14.2309 30.7206 13.2982 30.3359 13.1637C29.9513 13.0291 28.9457 12.579 28.2783 13.2008C27.611 13.8226 27.5878 13.9107 27.7176 14.2123C27.8474 14.5139 28.1393 14.5232 27.7176 14.9686C27.3561 15.3445 23.3985 18.2166 21.8692 19.3627C25.425 13.9446 30.2893 9.51298 36.0113 6.47853C41.7333 3.44409 48.1278 1.90505 54.6021 2.00407C61.0764 2.1031 67.4209 3.83698 73.0477 7.045C78.6744 10.253 83.4013 14.8314 86.7901 20.3557C86.8689 21.4461 86.9569 23.5294 86.6233 24.4296C86.1599 25.6731 85.6501 27.4502 85.4323 27.891C85.043 28.6891 84.1949 30.211 84.1949 30.211C83.8655 30.8267 83.4692 31.404 83.0132 31.9325C82.1698 32.9533 81.5349 34.0437 79.9407 34.4241C78.3465 34.8046 77.6236 34.7536 77.2436 34.6376C76.8636 34.5216 76.8358 34.2385 76.706 34.0622C76.474 33.8393 76.1828 33.688 75.8672 33.6261C75.4531 33.5463 75.026 33.5653 74.6206 33.6817C74.5186 33.7284 74.4291 33.7988 74.3597 33.8871C74.2903 33.9754 74.243 34.079 74.2217 34.1893C74.2004 34.2996 74.2057 34.4134 74.2372 34.5213C74.2687 34.6291 74.3255 34.7278 74.4028 34.8093C74.6693 35.0143 74.9788 35.1559 75.308 35.2234C75.6371 35.2909 75.9774 35.2826 76.3029 35.199C76.5763 35.0505 77.0397 35.199 77.3873 35.2686C78.0657 35.3434 78.751 35.3309 79.4263 35.2315C80.1215 35.1016 80.4227 34.9206 80.2327 35.2315C79.5023 35.9191 78.5876 36.3786 77.6004 36.5539C76.4975 36.7024 74.7782 36.2987 74.0321 36.1363C73.286 35.9739 71.7381 35.8997 71.0291 35.6723C70.3201 35.4449 68.7444 35.0366 68.4525 34.8835C68.1605 34.7304 66.2929 34.7814 65.9917 34.8C65.6905 34.8185 63.3873 35.6677 63.0351 35.728C62.3248 35.7396 61.6268 35.9159 60.996 36.243C60.4027 36.5528 59.8488 36.9329 59.3462 37.3752C59.0821 37.6025 59.1562 37.3752 58.8411 37.5144C58.526 37.6536 57.6918 39.5792 57.8123 40.4654C57.9328 41.3517 58.3869 41.2171 58.2757 41.5697C58.1645 41.9224 57.9513 41.8342 57.9513 41.8342C57.9513 41.8342 57.9096 42.2054 57.8586 42.4931C57.8076 42.7808 58.0023 42.6462 57.993 42.8365C57.9837 43.0267 57.7891 43.7923 57.993 44.1125C58.1969 44.4326 58.5723 44.4233 58.6186 44.5765C58.665 44.7296 58.6186 45.6437 58.7623 45.7875C58.906 45.9313 60.5094 46.9057 60.8338 47.0867C61.1582 47.2677 62.6272 47.792 63.2621 47.6621C63.897 47.5321 63.6839 48.59 64.62 48.6828C65.5561 48.7757 66.1539 48.5112 66.9834 48.2188C67.8129 47.9265 68.9159 47.7549 69.1939 47.5089C69.8404 47.0707 70.4412 46.5686 70.9874 46.0102C71.715 45.1889 72.4101 44.2609 72.5028 43.8248C72.5955 43.3886 73.235 40.6881 73.9718 40.0803C75.2603 39.15 76.6001 38.2933 77.9851 37.5144C78.3095 37.3845 78.6663 37.2453 78.3883 37.751C78.1102 38.2568 75.5243 41.4769 74.8199 42.7483C74.1155 44.0197 72.6372 46.5856 71.7242 47.6342C71.2432 48.2032 70.6678 48.6851 70.0235 49.0587C69.4859 49.4809 68.4571 50.511 66.6868 50.0702C65.2237 49.7031 63.805 49.1772 62.4558 48.5019C61.617 48.0657 60.2453 47.3187 59.5177 47.379C58.7901 47.4393 57.4601 47.6342 56.9735 47.9312C56.4869 48.2281 56.4545 48.2421 56.3293 48.1446C56.2042 48.0472 55.7315 48.6086 55.7732 49.0726C55.7302 49.832 55.4606 50.561 54.9993 51.1652C54.573 51.5643 55.9262 53.3321 54.7027 55.0443C53.4793 56.7564 53.0344 56.079 52.8768 56.4131C52.7193 56.7472 52.1585 57.2808 52.2651 57.652C52.3717 58.0232 52.9742 59.0764 52.9324 59.3409C52.8907 59.6054 53.8269 60.2364 53.9612 60.5752C54.0956 60.9139 55.8427 62.8673 56.9874 63.3592C58.132 63.851 57.9467 64.3104 58.6418 64.1804C59.3369 64.0505 59.6984 63.8046 60.0321 64.0691C60.3657 64.3336 62.6319 65.2848 63.7395 64.3336C64.847 63.3824 64.6107 62.0739 64.8517 62.1064C65.0927 62.1388 66.5663 62.6121 67.3542 61.1366C68.142 59.6611 68.281 58.5939 68.0956 57.9118C67.9103 57.2297 67.4422 52.8078 68.2995 52.0097C69.1569 51.2116 71.0569 48.8406 71.4925 48.9984C71.9281 49.1561 71.1542 49.88 71.4045 51.091C71.6547 52.302 71.9699 53.4667 71.9977 53.8054C72.0255 54.1441 70.904 54.3019 71.562 55.4944C72.2201 56.6868 73.1006 57.0256 73.5455 56.6219C73.9904 56.2182 73.9394 55.3041 73.4945 54.6035C73.0496 53.9028 72.9291 54.1395 72.6835 53.759C72.4379 53.3785 72.0069 51.156 72.0764 50.279C72.146 49.4021 72.6001 47.0774 75.1211 43.5835C77.6421 40.0896 80.8444 35.3753 81.8361 34.3963C82.8278 33.4173 82.763 33.1342 83.1105 33.0043C83.4581 32.8744 82.4571 35.8718 81.9242 37.1803C81.3912 38.4888 80.8444 39.8019 77.5541 42.6416C74.2638 45.4813 74.806 47.2027 74.8987 49.2211C74.9914 51.2395 76.4836 52.9331 77.9619 54.0792C79.0254 54.9826 80.271 55.6457 81.6137 56.0233C83.2774 56.6126 83.1337 57.0348 84.2598 56.7332C85.3859 56.4316 85.335 56.0419 85.7381 55.6985C86.1413 55.3552 86.4842 55.963 86.8225 55.6985C87.1608 55.434 87.286 54.4736 87.7911 54.2137C88.2962 53.9539 89.566 52.8681 89.6448 52.3856C89.7236 51.903 91.1092 45.1518 90.669 44.7249C90.2287 44.2981 90.0711 44.5254 90.0572 44.1774C90.0433 43.8294 89.7745 42.043 88.9914 41.4816C88.2082 40.9201 86.855 39.5421 85.993 39.3008C85.1311 39.0595 83.2125 37.8021 82.9669 37.3195C82.7213 36.8369 83.1569 35.2269 83.7732 33.7374C84.3896 32.248 85.1264 29.8259 85.4277 29.3016C86.4796 27.4456 86.9338 25.0653 87.2813 24.7915C87.6289 24.5177 87.7169 24.5641 87.995 26.4712C88.2478 27.941 88.4227 29.4233 88.5187 30.9117C88.4909 31.5241 87.8004 31.719 87.9904 32.4104C88.1804 33.1017 88.9172 33.6585 89.2509 33.3894C89.5846 33.1203 90.4604 32.4614 90.2426 31.5845C90.0248 30.7075 89.9692 30.6333 89.6448 30.5961C89.3204 30.559 89.1814 30.8049 88.996 30.211C88.8106 29.6171 88.1665 23.7382 87.9857 22.4529C91.068 28.2607 92.6144 34.7617 92.4778 41.3371C92.3411 47.9125 90.5259 54.3434 87.2049 60.0177C83.884 65.6921 79.1678 70.421 73.5054 73.7543C67.8429 77.0877 61.4226 78.9145 54.8556 79.0609ZM44.1367 54.7148C44.2433 55.3737 44.4286 56.1625 44.2525 56.2368C44.0764 56.311 43.3998 55.2113 43.3257 55.0489C42.7446 54.0171 42.3493 52.891 42.1579 51.722C41.884 49.8743 42.0833 47.9871 42.7371 46.2376C43.1284 45.2852 43.7014 44.4184 44.424 43.6856C44.7823 43.2872 45.2803 43.0429 45.8143 43.0035C45.9857 43.0035 46.1387 43.0035 46.2082 43.1009C46.4538 43.4304 45.3694 44.3677 44.7623 45.472C44.475 45.9963 44.3916 47.328 44.2479 49.9496C44.1042 52.5712 44.0069 53.9168 44.1367 54.7102V54.7148ZM41.5137 51.8844C41.6093 52.7129 41.8166 53.5246 42.1301 54.2972C42.1857 54.4179 42.2737 54.6035 42.2413 54.6267C42.2088 54.6499 41.5044 53.9632 41.0781 53.0769C40.8393 52.5406 40.6831 51.9712 40.6147 51.388C40.44 50.6153 40.4211 49.8155 40.5591 49.0355C40.6749 48.4648 40.7815 48.4926 40.9066 47.8152C40.9439 47.3711 41.0649 46.9381 41.2635 46.5392C41.3686 46.3238 41.553 46.1575 41.7779 46.0752C41.8288 46.0752 41.9586 46.0241 42.0281 46.0752C42.0976 46.1262 42.0281 46.4742 41.9818 46.5392C41.7037 47.2213 41.6574 47.9822 41.4442 48.6875C41.1383 49.6387 41.2681 50.4043 41.5137 51.8798V51.8844ZM44.943 46.6691C45.2674 45.1936 45.4713 45.5462 46.0506 44.0939C46.1203 43.8861 46.2638 43.7111 46.4538 43.6021C46.5237 43.5629 46.6007 43.5382 46.6803 43.5294C46.7599 43.5207 46.8405 43.528 46.9172 43.551C47.2555 43.7041 47.135 44.5486 47.1072 45.3745C47.0701 46.6366 47.3018 46.4742 47.4316 48.6225C47.5101 49.443 47.5241 50.2684 47.4733 51.091C47.4362 51.5272 47.3667 52.019 46.5465 54.752C45.9023 56.9328 45.666 57.5592 45.4296 57.536C45.2674 57.536 45.1608 57.2158 45.0635 56.9374C44.8937 56.4347 44.843 55.8994 44.9152 55.3737C45.0728 54.3761 44.7299 54.1905 44.6279 51.6246C44.517 49.9645 44.6229 48.2971 44.943 46.6645V46.6691ZM48.0155 48.6457C47.9646 47.9915 47.9367 48.2421 47.756 46.7526C47.4919 44.5347 47.6911 45.0497 47.5938 44.4651C47.5582 44.181 47.566 43.8931 47.617 43.6113C47.6633 43.3469 47.7004 43.3329 47.7143 43.3329C47.7282 43.3329 47.8533 43.667 47.8811 43.7969C48.2519 45.6529 48.2982 46.1169 48.2982 46.1169C48.5485 48.655 48.567 48.6318 48.5346 48.8638C48.3841 49.4582 48.2787 50.0631 48.2194 50.6734C48.2412 51.0551 48.2195 51.4381 48.1546 51.8148C48.1546 51.8148 48.1546 51.8148 47.9877 51.4808C48.0572 49.2907 48.0387 48.9009 48.0202 48.6411L48.0155 48.6457ZM48.0989 54.288C48.4935 53.1877 48.7806 52.0518 48.9563 50.8961C49.1973 49.2443 49.239 47.1377 48.8775 45.7689C48.7017 44.9834 48.4805 44.2087 48.2148 43.4489C48.1724 43.4015 48.1409 43.3454 48.1225 43.2844C48.1041 43.2235 48.0992 43.1593 48.1082 43.0963C48.1357 43.024 48.1907 42.9656 48.2611 42.9339C48.5392 42.8086 49.0258 43.2958 49.1416 43.3979C49.8111 44.1523 50.3148 45.0391 50.62 46.0009C50.9788 47.2034 51.117 48.4611 51.0278 49.7129C50.9995 50.3796 50.8969 51.041 50.7219 51.6849C50.5922 52.1489 50.3836 52.7243 48.7941 55.2113C47.4826 57.2668 46.9404 57.9164 46.667 58.566C46.5197 58.8764 46.3477 59.1743 46.1526 59.4569C45.907 59.8374 45.7587 60.0184 45.6891 59.9905C45.6196 59.9627 45.6335 59.8606 45.6335 59.8281C45.6325 59.7218 45.6649 59.6179 45.7262 59.5312C45.856 59.3363 45.9116 59.0996 46.0367 58.9001C46.4121 58.2969 47.1675 56.6172 47.3389 56.2321C47.4316 56.0094 47.7745 55.2392 48.1036 54.2833L48.0989 54.288ZM51.8063 48.256C51.7831 47.7949 51.7038 47.3383 51.57 46.8965C51.3475 46.2237 50.9722 45.6112 51 44.8641C51 44.7017 51.0324 44.5161 51.1483 44.4558C51.2641 44.3955 51.4727 44.5161 51.6534 44.6553C52.0879 44.9877 52.4492 45.4063 52.7146 45.8849C53.1376 46.8908 53.2646 47.9968 53.0807 49.0726C52.9417 49.8794 52.7386 50.6738 52.4737 51.4483C51.9222 53.3043 51.6349 54.2323 51.1158 54.8865C51.1158 54.9097 50.6292 55.3505 49.6977 56.2785C48.4743 57.4803 48.4141 57.5267 48.2519 57.768C47.9785 58.1716 47.6402 58.7841 47.4687 58.7238C47.4472 58.7146 47.4281 58.7007 47.4128 58.683C47.3976 58.6653 47.3866 58.6443 47.3806 58.6217C47.3806 58.5196 47.478 58.4176 47.5058 58.3897C47.9692 57.9675 48.1406 57.3179 48.5068 56.8121C49.297 55.7694 50.0096 54.6699 50.6385 53.5224C51.0462 52.7923 51.3577 52.0125 51.5653 51.2024C51.8137 50.2381 51.8952 49.2385 51.8063 48.2467V48.256ZM31.7216 37.9134C32.1231 38.5881 32.5657 39.2374 33.047 39.8576C33.4047 40.329 33.7358 40.82 34.0387 41.3285C34.2843 41.7414 34.6782 42.4003 34.5763 42.4792C34.4743 42.5581 33.946 41.9224 32.9635 41.0593C31.9811 40.1963 30.5445 39.1245 30.2618 38.9203C29.5296 38.3821 29.1867 38.1593 28.9596 37.6443C28.7465 37.1249 28.7317 36.5453 28.9179 36.0157C29.1032 35.5238 29.5528 34.9021 29.9235 34.967C30.1552 35.0088 30.2711 35.3011 30.3869 35.5609C30.4889 35.7465 30.9013 36.4704 31.7216 37.9134ZM31.184 34.2617C31.2443 34.2617 31.3323 34.4056 31.4018 34.5262C31.6038 34.9042 31.7698 35.3003 31.8977 35.7094C32.1526 36.4936 32.4306 36.9622 32.3611 36.9901C32.2916 37.0179 32.3009 36.9529 32.1896 36.8091C31.9565 36.5201 31.7516 36.2093 31.5779 35.8811C31.3402 35.5264 31.1821 35.1243 31.1145 34.7025C31.1469 34.6886 31.1052 34.2896 31.1933 34.2664L31.184 34.2617ZM29.4045 40.2613C29.4276 40.2009 29.5713 39.8437 29.8679 39.7973C30.0857 39.7509 30.2896 39.8854 30.7206 40.2613C31.0475 40.5339 31.3571 40.8268 31.6474 41.1382C32.1109 41.6022 32.0321 41.463 33.0655 42.4142C33.6103 42.8818 34.1185 43.3906 34.5855 43.9361C34.9794 44.428 35.568 45.2678 35.429 45.4024C35.2899 45.5369 35.035 45.2817 34.8033 45.1379C33.2787 44.2099 33.0748 44.5161 31.6799 43.6392C30.9175 43.2373 30.2639 42.6561 29.7752 41.9456C29.5898 41.5837 29.1635 40.883 29.4045 40.2613ZM34.9655 39.3333C34.5021 38.5445 34.4789 38.7811 34.0387 37.9923C33.5058 37.0179 33.6309 36.7627 33.0331 35.7233C32.8253 35.4268 32.6614 35.1017 32.5465 34.7582C32.438 34.3926 32.4129 34.0072 32.473 33.6306C32.5332 33.2539 32.6771 32.8956 32.894 32.5821C33.3235 31.987 33.9328 31.5461 34.6319 31.3246C35.1377 31.0993 35.6951 31.0159 36.2446 31.0833C36.6615 31.124 37.0576 31.2852 37.3846 31.5473C37.9314 32.0438 37.9824 32.8419 37.9593 33.6771C37.9083 35.4681 37.5653 35.8393 37.3058 37.7417C37.2548 38.1129 36.9722 40.2613 36.7451 41.9781C36.7034 42.3121 36.6107 42.9989 36.4439 43.0081C36.277 43.0174 36.2214 42.5813 35.9804 41.8064C35.7243 40.9446 35.3843 40.1101 34.9655 39.3147V39.3333ZM37.4217 43.0453C37.5283 41.7414 37.4912 41.8806 37.5422 41.3656C37.6349 40.4747 37.8017 39.4817 38.1214 37.8345C38.3763 36.5168 38.5246 35.1851 38.761 33.8627C38.8351 33.4637 39.0622 32.2109 38.5663 31.8025C38.3427 31.6179 38.1556 31.3928 38.0149 31.139C37.9222 30.972 37.9175 30.907 37.9361 30.856C38.0195 30.6611 38.5154 30.6565 38.8629 30.7957C39.0038 30.8297 39.1293 30.9097 39.2198 31.023C39.382 31.2736 39.2198 31.5984 39.1317 31.951C39.0248 32.4697 39.0782 33.0086 39.2846 33.4961C39.5951 34.336 40.1698 34.2989 40.4432 35.1062C40.5604 35.5141 40.5731 35.9449 40.4803 36.359C40.3459 37.3241 40.0168 37.8624 39.5534 38.7857C38.8732 40.2286 38.2729 41.7079 37.7553 43.2169C37.6673 43.4814 37.4634 44.08 37.38 44.0614C37.2966 44.0429 37.3892 43.6763 37.4402 43.0406L37.4217 43.0453ZM43.0291 37.584C42.8674 38.1941 42.6341 38.7828 42.334 39.3379C41.9229 40.0048 41.4742 40.6477 40.99 41.2635C40.2486 42.2797 39.7851 42.92 39.0251 43.8341C38.2651 44.7481 38.0705 44.9059 38.001 44.8595C37.9314 44.8131 38.0612 44.5022 38.1075 44.3955C38.6822 42.9757 38.3856 43.1009 39.0668 41.4677C40.04 39.1477 40.6564 38.8693 40.7861 37.867C40.8556 37.3381 41.0966 36.8462 41.1986 36.3265C41.231 36.1641 41.2681 35.9507 41.4164 35.8904C41.5647 35.8301 41.7686 36.076 42.2783 36.2848C42.7881 36.4936 42.8762 36.3776 43.0198 36.5446C43.1635 36.7117 43.1867 37.0272 43.0291 37.584ZM43.3535 38.4517C43.4323 38.1872 43.6037 37.5237 43.8169 37.5237C43.9281 37.5237 43.9652 37.6721 44.1737 37.8856C44.4935 38.215 44.7206 38.1872 44.8874 38.3496C45.2999 38.7672 44.8596 39.8437 44.6372 40.3819C44.3814 41.0518 43.9901 41.6616 43.4879 42.1729C43.0245 42.6369 42.9596 42.5163 41.8474 43.3051C40.2995 44.4001 39.3542 45.1982 39.3542 45.1982C39.0066 45.4905 38.6544 45.806 38.5571 45.7318C38.4597 45.6576 38.7378 45.1147 38.798 45.0033C39.1883 44.3323 39.7026 43.7417 40.3134 43.2633C41.0002 42.6074 41.5762 41.8443 42.0188 41.0037C42.5655 40.2096 43.0152 39.3529 43.3581 38.4517H43.3535ZM35.6514 65.1641C35.035 65.2059 34.2102 64.96 32.5511 64.4681C30.6279 63.9033 28.7651 63.1495 26.99 62.2177C26.4002 61.9973 25.8856 61.6125 25.5071 61.1088C24.9278 60.2457 24.8351 58.9372 25.4515 58.1902C25.6785 57.9164 26.0956 57.6056 26.3783 57.7262C26.661 57.8468 26.5961 58.2876 26.8417 58.7888C27.1543 59.3356 27.6452 59.7583 28.232 59.9859C29.7256 60.6728 31.2539 61.2815 32.8106 61.8094C35.6236 62.8952 35.7395 63.5076 37.1668 63.6979C37.8093 63.7819 38.4293 63.9899 38.9927 64.3104C39.4561 64.5795 39.9937 64.9924 39.9195 65.127C39.8454 65.2616 39.2939 65.0249 38.5663 64.9136C37.3105 64.7094 36.7312 65.0945 35.656 65.1641H35.6514ZM37.3846 66.0132C37.3383 66.1432 36.9212 66.0643 36.3651 66.0457C35.3177 66.004 35.2992 66.2174 34.655 66.1339C33.7606 66.0179 33.0053 65.4982 33.047 65.3776C33.0887 65.2569 33.2277 65.3404 33.4594 65.3776C33.8971 65.4265 34.3288 65.5198 34.7477 65.656C35.1117 65.771 35.4923 65.8243 35.8738 65.8137C36.4809 65.7766 36.8007 65.5353 37.1529 65.7395C37.2827 65.7998 37.417 65.9344 37.3892 66.0179L37.3846 66.0132ZM29.8679 64.5563C29.4864 64.596 29.1008 64.5613 28.7325 64.4542C28.2532 64.3679 27.7863 64.2229 27.3422 64.0227C26.179 63.4844 26.3829 63.0483 25.2939 62.5008C25.1271 62.4172 24.8073 62.2688 24.7795 62.0368C24.7795 61.8604 24.8815 61.6516 25.0112 61.6424C25.141 61.6331 25.2383 61.8233 25.3217 61.9393C25.6276 62.4033 26.0678 62.4033 26.6564 62.6956C27.3978 63.039 27.231 63.2246 28.1254 63.7628C29.094 64.3336 29.8957 64.4681 29.8679 64.5563ZM34.3399 57.3411C36.4995 58.6728 36.81 58.928 37.1668 59.2852C37.7599 59.9075 38.2779 60.5974 38.71 61.3408C39.1734 62.06 40.0307 63.4241 39.7434 63.6932C39.609 63.8232 39.28 63.6236 38.3532 63.2292C37.7553 62.988 37.139 62.807 36.5319 62.5796C33.1953 61.3361 33.0099 61.2665 32.3287 61.0067C30.9953 60.5389 29.7214 59.916 28.5332 59.1507C27.929 58.7869 27.4764 58.2167 27.2588 57.5452C27.1853 57.3158 27.1725 57.0712 27.2217 56.8353C27.4395 55.9444 28.6584 55.615 28.9457 55.5361C29.4326 55.4087 29.9403 55.3819 30.4379 55.4572C31.4482 55.6196 32.1248 55.9723 34.3446 57.3457L34.3399 57.3411ZM31.0403 54.7427C31.0403 54.4968 32.2499 54.2787 33.3575 54.3483C34.4993 54.4586 35.5914 54.8701 36.5226 55.5408C37.6043 56.2426 38.4769 57.2236 39.0483 58.3804C39.8315 60.0044 39.8732 61.7537 39.7156 61.7955C39.6646 61.7955 39.5534 61.5913 39.3403 61.1552C38.9232 60.32 38.5941 59.8745 38.4134 59.5404C38.2327 59.2064 37.8388 58.6913 36.6987 57.87C36.0837 57.4125 35.4274 57.0133 34.7385 56.6776C33.981 56.1357 33.1723 55.6695 32.324 55.2856C31.5177 54.9747 31.0357 54.9051 31.045 54.7473L31.0403 54.7427ZM50.0407 24.7776C51.7683 25.4803 53.2895 26.6106 54.4617 28.0627C55.0881 28.8797 55.5493 29.8112 55.8196 30.8049C55.98 31.3143 55.9385 31.8659 55.7037 32.3454C55.6203 32.4939 55.5415 32.6238 55.421 32.6377C55.0132 32.6841 54.7583 31.2736 54.1142 30.1832C53.8083 29.6681 52.7239 28.9257 50.5226 27.4641C48.3214 26.0025 47.2092 25.2555 46.4631 24.9632C45.8421 24.7219 45.0728 24.4992 45.096 24.2904C45.1191 24.0816 46.4121 24.0769 46.5975 24.0816C47.7767 24.1086 48.9422 24.3426 50.0407 24.7729V24.7776ZM47.478 23.3809C47.478 23.2928 48.4048 23.0793 49.4058 23.1629C49.9914 23.2304 50.5634 23.3868 51.1019 23.6269C51.8622 23.866 52.5666 24.2558 53.1734 24.7729C53.6044 25.1627 53.5256 25.2369 54.0447 25.7009C54.4115 25.9576 54.7261 26.282 54.9715 26.6568C55.0989 26.8563 55.1453 27.097 55.1013 27.3296C55.1013 27.3806 55.0503 27.5105 54.9576 27.5384C54.8649 27.5662 54.6193 27.3203 54.5683 27.2507C54.1049 26.6614 53.4932 26.2392 52.9927 25.6963C52.3439 24.991 51.6024 24.7126 50.2121 24.179C49.4517 23.8401 48.6488 23.606 47.8255 23.483C47.7004 23.4459 47.478 23.432 47.478 23.3809ZM45.4852 25.3251C46.2638 25.9654 46.5975 25.7613 48.859 26.9816C50.3377 27.728 51.7133 28.6639 52.951 29.7656C54.0539 30.7957 53.6507 30.791 54.6054 32.0299C54.7478 32.1947 54.8252 32.4059 54.8232 32.6238C54.8217 32.703 54.8046 32.7811 54.7728 32.8535C54.741 32.926 54.6951 32.9915 54.6378 33.0461C54.332 33.2641 53.6739 32.7259 52.9741 32.2851C51.9083 31.6123 51.9268 31.8953 50.0314 30.9256C49.2871 30.5771 48.5712 30.1706 47.8904 29.7099C47.5336 29.4547 47.135 29.1392 45.2025 27.0697C43.6501 25.4086 43.233 24.8843 43.3489 24.6894C43.4647 24.4945 43.7613 24.6198 44.0486 24.6894C44.5776 24.7869 45.0761 25.0078 45.5038 25.3344L45.4852 25.3251ZM54.4293 33.8488C54.3969 33.9091 54.0678 33.7977 53.9381 33.7513C52.1493 33.1296 51.7461 32.9393 51.7461 32.9393C49.429 31.8675 49.429 31.8953 49.2621 31.7469C48.8293 31.3149 48.3646 30.9163 47.8719 30.5544C47.4362 30.2713 46.8894 29.9837 46.9218 29.9187C46.9543 29.8537 46.9218 29.9187 47.2972 29.9465C49.1509 31.1112 49.4707 31.2875 49.7163 31.4081C50.3048 31.7005 50.1056 31.5427 51.4773 32.1459C53.521 33.0414 52.9741 32.9533 53.5303 33.1667C53.7935 33.2835 54.0373 33.44 54.2532 33.6307C54.4293 33.7977 54.4293 33.8395 54.4293 33.8488ZM43.5203 26.9677C43.6594 27.1672 44.1506 27.8539 44.804 28.6195C45.5505 29.5192 46.3824 30.3444 47.2879 31.0833C48.5902 32.132 50.379 33.2363 51.7414 33.6168C52.5016 33.8608 53.2753 34.0607 54.0586 34.2153C54.1209 34.2031 54.1851 34.2047 54.2467 34.2199C54.3084 34.2351 54.3659 34.2637 54.4154 34.3035C54.4627 34.364 54.4843 34.4406 54.4756 34.5169C54.4432 34.8185 53.7759 34.9809 53.6183 35.0366C52.6282 35.2316 51.6082 35.2158 50.6246 34.9902C49.406 34.6903 48.252 34.1715 47.2184 33.459C46.6717 33.0949 46.1666 32.6717 45.7123 32.1969C45.3787 31.8489 44.9894 31.3757 43.6547 28.7401C42.5518 26.564 42.2645 25.7798 41.8474 25.1998C41.6555 24.9169 41.4865 24.619 41.3422 24.3089C41.1383 23.9053 41.0595 23.6872 41.1198 23.6361C41.18 23.5851 41.2588 23.6361 41.2866 23.6733C41.3788 23.7267 41.4518 23.8079 41.4952 23.9053C41.5971 24.1187 41.7732 24.2857 41.8798 24.4945C42.2135 25.1209 43.2793 26.6289 43.5203 26.9677ZM51.7275 36.2477C51.7275 36.3961 51.5097 36.4982 51.2966 36.5817C50.7894 36.7885 50.2451 36.888 49.6977 36.8741C48.6173 36.7279 47.6011 36.2755 46.7689 35.5702C46.1463 35.0402 45.5667 34.4615 45.0357 33.8395C43.7242 32.4243 43.0615 31.7005 42.7649 30.9209C42.7649 30.8931 42.5981 30.2574 42.3015 28.9861C41.8891 27.3203 41.8798 27.2461 41.7547 26.9862C41.5461 26.5454 41.1939 25.9422 41.333 25.8216C41.3521 25.8076 41.3741 25.7982 41.3974 25.7942C41.4208 25.7901 41.4447 25.7916 41.4674 25.7984C41.5647 25.8309 41.5971 25.9886 41.6018 26.0211C41.7315 26.6289 42.1996 27.1161 42.4498 27.6869C42.9469 28.8976 43.5324 30.0701 44.2016 31.1947C44.6132 31.9183 45.1163 32.5858 45.6984 33.1806C46.4099 33.8865 47.2377 34.4641 48.1453 34.8881C48.5548 35.1027 48.989 35.2663 49.4382 35.3753C50.1334 35.5238 50.8285 35.5145 51.4773 35.9182C51.5839 35.9925 51.7368 36.1085 51.7229 36.2384L51.7275 36.2477ZM69.801 30.9534C69.092 31.1761 68.383 30.8142 67.6739 30.3688C66.1585 29.4176 66.0149 28.935 64.5087 27.7425L61.1489 25.107C60.8848 24.8982 60.3379 24.4713 60.4167 24.3229C60.4955 24.1744 60.8801 24.3229 61.6911 24.5224C62.5614 24.7388 63.4508 24.8693 64.3465 24.9121C65.2734 24.9121 65.0695 24.7729 65.9685 24.7961C67.0761 24.8286 67.2337 25.0699 68.4339 25.0838C68.7953 25.0547 69.159 25.0781 69.5137 25.1534C69.8822 25.2441 70.2258 25.4162 70.5193 25.657C70.8127 25.8979 71.0487 26.2014 71.2098 26.5454C71.504 27.2185 71.5739 27.9685 71.4091 28.6845C71.3458 29.2349 71.1344 29.7577 70.7974 30.1971C70.5469 30.5379 70.2021 30.7976 69.8057 30.9441L69.801 30.9534ZM69.6852 32.6192C69.5851 32.724 69.453 32.7925 69.3098 32.8141C69.0132 32.8141 68.8186 32.5171 68.5776 32.2758C68.1904 31.9227 67.7059 31.6947 67.1873 31.6216C66.3068 31.4638 66.0473 31.9742 65.2131 31.8025C64.8023 31.697 64.4245 31.4896 64.1148 31.1993C63.3548 30.5961 63.0629 30.0208 62.4975 29.167C61.601 27.8479 60.6325 26.5792 59.5965 25.3669C59.4157 25.1534 58.9986 24.6755 59.0589 24.6152C59.1191 24.5549 59.3787 24.7729 59.9023 25.1395C60.9682 25.8912 60.8662 25.7891 61.2926 26.1C62.0109 26.6289 62.7802 27.2785 64.036 28.3921C65.037 29.2784 66.1122 30.0857 67.1271 30.9581C67.4329 31.2225 68.3922 32.0577 68.9808 31.835C69.2523 31.7361 69.54 31.6889 69.8288 31.6958C70.0188 31.6958 70.0791 31.7283 70.1115 31.7747C70.2413 31.9325 69.9957 32.364 69.6898 32.6099L69.6852 32.6192ZM67.66 23.8449C67.66 23.8449 67.7203 23.8125 67.901 23.7893C68.2625 23.7315 68.6287 23.7082 68.9947 23.7197C69.4201 23.6969 69.8453 23.7665 70.2413 23.9238C70.2737 23.9238 70.6398 24.1094 70.6166 24.1976C70.5935 24.2857 70.4174 24.2533 70.2784 24.2486C69.8507 24.2314 69.4255 24.1739 69.0086 24.0769C68.2022 23.896 67.66 23.9006 67.66 23.8449ZM70.6491 22.7638C70.4962 22.9448 70.1857 22.8937 69.903 22.8613C69.6991 22.8381 68.8696 22.8288 67.2059 22.8056C66.4218 22.8084 65.6387 22.8595 64.8609 22.9587C64.2719 23.0306 63.6794 23.0693 63.086 23.0747C62.6226 23.0747 61.8394 23.0747 61.8209 22.9541C61.8024 22.8334 62.618 22.6942 63.86 22.2859C65.1019 21.8776 66.7517 21.1816 67.0715 21.0424C67.9056 20.6851 68.2717 20.4995 68.8325 20.5784C69.3873 20.6577 69.8936 20.9384 70.2552 21.3672C70.5842 21.7709 70.8947 22.4529 70.6491 22.7638ZM66.5478 20.2536C66.4783 20.4624 66.2605 20.5737 65.7275 20.7593C65.3234 20.9091 64.9101 21.0331 64.4902 21.1305C63.8507 21.279 64.0268 21.2976 62.6736 21.7059C61.9948 21.9383 61.2991 22.1183 60.5928 22.2441C59.9672 22.3369 58.9477 22.4158 58.9013 22.2441C58.8735 22.1328 59.2026 21.9657 59.4482 21.8405C61.0331 21.0006 60.8384 20.6665 62.3214 19.9056C63.0554 19.451 63.8888 19.1819 64.7497 19.1214C65.1436 19.1214 65.9639 19.0982 66.3717 19.6272C66.4436 19.7131 66.4961 19.8136 66.5257 19.9217C66.5553 20.0298 66.5612 20.143 66.5432 20.2536H66.5478ZM60.4213 27.3528C61.9275 29.3712 61.8487 30.044 62.6504 30.6657C63.0721 30.9905 63.3687 31.4545 63.7673 31.8072C63.8878 31.9139 64.0546 32.0577 64.0314 32.2155C64.0082 32.3733 63.6931 32.4243 63.2529 32.7584C62.8126 33.0925 62.8682 33.2224 62.6504 33.2688C62.4326 33.3152 62.1546 33.1389 61.7514 32.7213C61.3074 32.2709 60.9185 31.7694 60.5928 31.2272C60.2271 30.5394 59.9007 29.8315 59.615 29.1067C59.1191 27.9513 58.7994 27.2275 58.3962 26.1093C57.993 24.991 57.9606 24.7405 58.0301 24.7173C58.0996 24.6941 58.3081 24.9493 58.3823 25.0467C59.3138 26.2577 59.3601 25.9329 60.4167 27.3528H60.4213ZM58.2108 27.492C58.4256 28.4167 58.7887 29.3005 59.286 30.1089C59.7028 30.9868 60.2241 31.8109 60.8384 32.5635C61.0238 32.763 61.4919 33.2409 61.376 33.4405C61.3204 33.5333 61.1721 33.4915 60.8801 33.5657C60.4167 33.6771 60.3426 33.8813 60.1109 33.9416C59.5408 34.0854 58.8364 33.1574 58.4889 32.6934C58.0449 32.136 57.7199 31.4932 57.5342 30.8049C57.3628 30.1553 57.5064 30.1739 57.3906 28.8144C57.233 26.9213 57.0291 25.7056 57.0291 25.7056C56.955 25.2416 56.8623 24.7776 56.9781 24.7497C57.094 24.7219 57.4184 25.2137 57.4832 25.3251C57.858 25.9955 58.1033 26.7306 58.2062 27.492H58.2108ZM40.4988 15.029C41.3144 14.0174 41.2774 13.3214 41.764 12.3563C42.042 11.8042 42.6908 11.2149 43.9328 10.0363C45.394 8.66698 46.9866 7.44538 48.6875 6.38928C49.1763 5.99325 49.768 5.74533 50.3929 5.67472C51.4309 5.6144 52.6034 6.19904 52.9324 7.10848C53.0529 7.44256 53.1132 7.96223 52.8722 8.14783C52.6312 8.33344 52.2744 8.0504 51.7275 7.99935C51.0925 7.99338 50.475 8.20821 49.9804 8.60719C48.6313 9.54732 47.332 10.5571 46.0877 11.6325C43.7242 13.4885 43.1357 13.2982 42.2505 14.4165C41.8529 14.9269 41.3603 15.3555 40.8 15.6786C40.3366 15.9477 39.7064 16.1982 39.6229 16.073C39.5395 15.9477 40.0308 15.609 40.4988 15.029ZM40.6425 12.5234C41.2078 11.6418 41.0364 11.5165 41.4349 11.0014C41.991 10.2915 42.8252 9.90175 42.904 9.99919C42.9828 10.0966 42.8437 10.1755 42.7093 10.3658C42.4423 10.7122 42.1411 11.0309 41.8103 11.317C41.5227 11.5834 41.2828 11.8973 41.1013 12.245C40.8232 12.7878 40.8695 13.173 40.5127 13.3864C40.3876 13.456 40.2022 13.507 40.1466 13.4421C40.091 13.3771 40.3459 12.9827 40.6425 12.5234ZM45.8884 6.74656C46.2058 6.37067 46.5685 6.03559 46.9682 5.74896C48.0248 5.02048 48.2936 5.41488 49.3177 4.756C49.4753 4.65392 49.7812 4.4544 49.9943 4.55648C50.2075 4.65856 50.2724 4.84416 50.2168 4.95552C50.1612 5.06688 49.948 5.06224 49.8043 5.07152C49.2668 5.10864 49.0072 5.47056 48.4743 5.84176C47.8023 6.30576 47.7236 6.06912 46.8106 6.5656C45.805 7.11312 45.2813 7.73487 45.2164 7.66527C45.1516 7.59567 45.5826 7.08528 45.8838 6.74656H45.8884ZM52.7378 12.7786C52.1168 13.5674 51.468 13.971 49.1602 15.1913C46.8523 16.4117 46.5418 16.5184 46.0552 16.6437C45.2198 16.8392 44.3643 16.9357 43.5064 16.9313C42.6537 16.9592 41.0456 17.0102 40.9576 16.6251C40.9159 16.4441 41.2403 16.2771 42.0466 15.6646C42.5564 15.2749 43.0291 14.8294 43.5296 14.4258C46.3101 12.18 46.4492 12.0547 47.0192 11.5954C48.0972 10.6872 49.2777 9.90857 50.5365 9.27535C51.1601 8.93824 51.8847 8.83931 52.5756 8.99695C52.809 9.05097 53.0245 9.16445 53.2012 9.32639C53.8547 9.96671 53.521 11.1824 53.4422 11.4747C53.2965 11.9543 53.0553 12.3994 52.7332 12.7832L52.7378 12.7786ZM52.2327 15.8642C51.5583 16.793 50.65 17.5263 49.6004 17.9893C48.4529 18.563 47.1725 18.8178 45.893 18.727C44.0996 18.5785 42.5703 17.7294 42.6166 17.567C42.6166 17.516 42.8715 17.5299 43.3581 17.567C44.285 17.632 44.8364 17.567 45.2118 17.5902C45.5872 17.6134 46.236 17.5253 47.5289 16.9592C48.2346 16.6608 48.9111 16.2974 49.5495 15.8734C50.3978 15.4895 51.2064 15.0233 51.9639 14.4814C52.659 13.9432 52.9649 13.5534 53.0946 13.6509C53.2707 13.804 52.8676 14.9547 52.228 15.8688L52.2327 15.8642ZM71.6362 42.0477C71.026 43.0648 70.2417 43.9664 69.3191 44.711C67.8503 45.8616 66.1138 46.6199 64.2724 46.915C63.2524 47.0461 62.2166 46.9767 61.2231 46.7108C60.7028 46.5961 60.2465 46.2854 59.9487 45.8432C59.8652 45.6947 59.7865 45.5601 59.8374 45.4534C60.0043 45.0776 61.3482 45.5601 62.618 45.5416C63.2158 45.5416 64.4068 44.9477 66.761 43.7784C69.1152 42.6091 70.3247 42.0013 70.9318 41.4955C71.4508 41.0733 72.044 40.5211 72.1923 40.6417C72.3406 40.7624 71.7289 41.8945 71.6315 42.0523L71.6362 42.0477ZM71.0245 44.9709C70.6812 45.45 70.2671 45.874 69.7964 46.2283C69.213 46.7618 68.5293 47.1735 67.7851 47.4393C67.229 47.6203 67.2012 47.5136 66.5524 47.7409C66.1486 47.928 65.713 48.0366 65.2688 48.0611C65.032 48.0726 64.7998 47.9929 64.62 47.8384C64.5829 47.8013 64.4856 47.7038 64.5087 47.611C64.5319 47.5182 64.8609 47.4254 64.9722 47.4161C65.7044 47.3233 66.3624 46.9846 67.1039 46.8222C68.0308 46.6088 68.6425 46.1169 69.7964 45.175C70.4642 44.6839 71.0628 44.1049 71.5759 43.4536C71.6547 43.3469 71.7706 43.1798 71.8077 43.1937C71.8447 43.2077 71.5759 44.1681 71.0245 44.9755V44.9709ZM59.5779 43.9547C59.323 44.0475 59.2952 44.0197 59.286 44.0057C59.2767 43.9918 59.5084 43.7181 59.615 43.6253C61.0423 42.3817 61.4084 42.1265 61.4084 42.1265C63.4846 40.6557 63.4614 40.6464 63.6792 40.5629C64.2703 40.3996 64.8481 40.1917 65.4078 39.9411C65.7286 39.7324 66.0722 39.5612 66.4319 39.4307C66.4319 39.4307 66.4319 39.4539 66.2234 39.7416C64.3002 40.7577 63.9804 40.9619 63.7534 41.1336C63.2065 41.5001 63.4429 41.4027 62.238 42.2936C60.4445 43.6206 60.7921 43.1937 60.3333 43.5696C60.1012 43.7374 59.8449 43.8688 59.5733 43.9593L59.5779 43.9547ZM71.1125 40.4979C70.1857 40.8552 70.1857 41.2449 67.9983 42.6045C66.6201 43.5174 65.1293 44.2473 63.5634 44.776C62.1221 45.24 62.326 44.8734 60.7828 45.0869C60.5683 45.129 60.3457 45.0911 60.1572 44.9801C60.0902 44.939 60.032 44.885 59.9859 44.8213C59.9398 44.7576 59.9067 44.6855 59.8884 44.6089C59.8513 44.2377 60.6438 43.9269 61.376 43.5417C62.4882 42.9525 62.238 42.8272 64.0175 41.6857C64.691 41.2115 65.4007 40.7911 66.14 40.4283C66.5385 40.2473 67.0112 40.0571 69.764 39.4075C71.9745 38.8878 72.6372 38.7811 72.7391 38.9992C72.8411 39.2173 72.5955 39.3936 72.4008 39.6117C72.0455 40.0027 71.6045 40.306 71.1125 40.4979ZM70.6862 37.9645C70.4452 37.9645 69.6064 38.0712 68.6147 38.2568C67.4643 38.4564 66.336 38.7672 65.2456 39.1848C63.6931 39.7926 61.8441 40.7949 60.8338 41.7925C60.242 42.3318 59.6818 42.905 59.1562 43.5093C59.1562 43.551 59.0589 43.7459 58.9013 43.7784C58.8257 43.7884 58.7492 43.7684 58.6882 43.7227C58.4425 43.5417 58.6233 42.8782 58.6882 42.7205C59.012 41.7642 59.533 40.8868 60.2174 40.1453C61.0838 39.2367 62.1075 38.4931 63.239 37.9505C63.8294 37.6522 64.4511 37.4203 65.0927 37.2592C65.5561 37.1432 66.1632 37.0411 69.1105 37.1942C71.5435 37.3195 72.3545 37.4541 73.0774 37.3845C73.4198 37.3568 73.7639 37.3568 74.1062 37.3845C74.5697 37.4077 74.7875 37.4494 74.7967 37.5283C74.806 37.6072 74.7133 37.6397 74.6809 37.6582C74.5883 37.7117 74.4813 37.7345 74.375 37.7232C74.1387 37.7232 73.9116 37.7742 73.6706 37.7649C72.9245 37.7649 71.1125 37.9227 70.6769 37.9645H70.6862ZM58.4935 39.9365C58.5671 39.3941 58.7517 38.8729 59.0357 38.4053C59.6993 37.5387 60.5966 36.8803 61.6216 36.5075C62.3911 36.2301 63.1814 36.0144 63.9851 35.8625C65.8666 35.4264 66.8212 35.2129 67.6415 35.3429L69.5508 35.9089C71.1959 36.3729 71.2654 36.4101 71.5574 36.4333C72.0208 36.4704 72.7438 36.4657 72.7762 36.6421C72.7792 36.6658 72.7765 36.69 72.7685 36.7125C72.7604 36.7351 72.7472 36.7555 72.7299 36.772C72.6511 36.8416 72.5028 36.772 72.4703 36.772C71.8772 36.5817 71.2237 36.7488 70.6166 36.6792C69.3202 36.5073 68.0129 36.4313 66.7054 36.4518C65.8736 36.4489 65.045 36.5534 64.24 36.7627C63.2759 37.03 62.3651 37.4617 61.5475 38.0387C61.1578 38.2865 60.7999 38.581 60.4816 38.9157C60.0182 39.4446 59.6613 40.071 58.9986 40.419C58.855 40.4933 58.6789 40.5675 58.5723 40.4933C58.4657 40.419 58.4472 40.1638 58.4842 39.9365H58.4935ZM56.3757 48.9009C56.5332 48.3349 57.6872 48.1864 58.2664 48.1121C58.9744 48.004 59.6969 48.0435 60.3889 48.2281C61.0331 48.4045 60.9497 48.5158 62.187 49.0958C63.9063 49.9032 65.0602 50.3301 65.0602 50.3301C65.4866 50.4878 65.9361 50.6409 65.9175 50.7616C65.899 50.8822 65.2919 50.91 65.1668 50.9147C64.3919 50.9048 63.626 50.7473 62.9099 50.4507C62.0087 50.18 61.0699 50.0562 60.1294 50.0841C59.1622 50.0106 58.1897 50.0542 57.233 50.2141C56.9642 50.279 56.3062 50.446 56.2088 50.2465C56.1532 50.1491 56.2645 50.0424 56.3479 49.7547C56.4452 49.3185 56.3108 49.1376 56.3757 48.9009ZM56.6167 50.9286C57.2222 50.7694 57.8444 50.6822 58.4703 50.6688C59.2459 50.6931 60.0195 50.7612 60.7875 50.8729C62.0341 51.0168 62.8219 51.1003 63.9897 51.3091C65.1575 51.5179 65.38 51.6107 65.38 51.6896C65.38 51.7684 65.0417 51.8148 64.9166 51.8334C63.4012 52.0329 63.656 52.2324 61.8997 52.4459C59.4018 52.7475 58.855 52.3484 57.9235 52.7336C57.4323 52.9377 56.8854 52.9656 56.3803 53.1372C56.2274 53.1883 56.0188 53.2625 55.8937 53.1651C55.7686 53.0676 55.8937 52.766 55.8103 52.2371C55.7269 51.7081 55.5971 51.671 55.6713 51.4622C55.7454 51.2534 56.0559 51.0724 56.6167 50.9286ZM55.6898 54.39C55.986 54.0853 56.3542 53.8603 56.7603 53.7358C57.664 53.3785 58.3035 53.411 59.3277 53.346C60.9167 53.2246 62.4978 53.0154 64.0639 52.7197C64.3373 52.6686 64.9583 52.5433 64.9907 52.6268C65.0231 52.7104 64.6941 52.8264 64.1195 53.0908C62.9377 53.643 63.0768 53.6059 62.5994 53.8193C61.7838 54.1812 60.8384 54.5246 59.2489 55.0628C57.9791 55.4897 56.751 56.0233 55.4859 56.4548C55.1059 56.5894 53.9056 57.007 53.7944 57.6427C53.7438 57.9286 53.6401 58.2025 53.4885 58.45C53.3912 58.6124 53.3356 58.6496 53.28 58.6588C53.0715 58.682 52.8166 58.2552 52.761 57.8654C52.7144 57.7285 52.7144 57.58 52.761 57.4432C52.8954 57.1787 53.2615 57.1648 53.5905 57.072C54.0932 56.9089 54.5344 56.5965 54.8556 56.1764C55.4535 55.5083 55.1383 55.0257 55.6991 54.39H55.6898ZM54.1327 58.812C54.2949 58.0881 54.9576 57.652 55.6991 57.2576C57.2794 56.4131 57.7706 56.5291 59.5501 55.8145L63.5031 54.2091C63.8136 54.0838 64.4578 53.8193 64.5458 53.9632C64.6339 54.107 64.2863 54.3668 63.7395 54.97C63.119 55.6179 62.5633 56.325 62.0804 57.0812C61.617 57.8561 61.8441 57.7772 61.3714 58.5475C60.7921 59.4755 60.5048 59.508 59.8977 60.5427C59.7428 60.87 59.5414 61.1732 59.2999 61.4428C59.0361 61.7185 58.7138 61.9312 58.3568 62.0653C57.9999 62.1994 57.6174 62.2515 57.2376 62.2177C56.5086 62.1382 55.8246 61.8258 55.2866 61.3268C54.8413 60.9976 54.4937 60.5533 54.281 60.0416C54.116 59.654 54.0677 59.2266 54.142 58.812H54.1327ZM59.6938 62.5518C59.9225 62.1892 60.1847 61.849 60.477 61.5356C61.0284 60.9278 61.3019 60.4545 61.3482 60.4824C61.3945 60.5102 61.3482 60.552 61.2741 60.719C61.1507 61.0607 60.9956 61.3901 60.8106 61.7027C60.6118 62.085 60.3318 62.4192 59.9904 62.6817C59.9579 62.6817 59.6289 62.9369 59.5687 62.872C59.5084 62.807 59.6382 62.6724 59.7123 62.5518H59.6938ZM61.084 62.9184C61.2045 62.756 61.6309 62.0368 62.4743 60.5984C62.8619 59.915 63.207 59.2084 63.5077 58.4825C63.7373 57.9363 63.9972 57.4034 64.2863 56.8864C64.5226 56.4688 64.9027 55.8006 65.0185 55.847C65.1344 55.8934 64.847 56.6683 64.5829 57.9536C64.3187 59.2388 64.1195 61.016 64.0592 61.364C63.9526 62.2641 63.9295 62.6771 63.5958 63.1272C63.2507 63.5681 62.756 63.8669 62.2055 63.967C61.6865 64.0505 60.9218 63.967 60.8153 63.6097C60.7365 63.3916 60.9172 63.1457 61.1026 62.9184H61.084ZM64.9861 60.3339C65.0568 59.909 65.1543 59.489 65.278 59.0764C65.468 58.45 65.3661 58.58 65.6812 57.2204C65.8177 56.5139 66.0083 55.819 66.2512 55.1417C66.4829 54.5571 66.9185 53.6244 67.1085 53.6801C67.2198 53.7126 67.1966 54.0792 67.1873 54.3576C67.1224 56.1486 67.4978 56.1672 67.4329 57.8144C67.4613 58.677 67.28 59.5337 66.9046 60.3107C66.7193 60.6587 66.3207 61.3779 65.658 61.4707C65.5453 61.4929 65.4292 61.4898 65.3178 61.4617C65.2064 61.4336 65.1026 61.3812 65.0139 61.3083C64.8841 61.1366 64.898 60.8907 65.0046 60.3339H64.9861ZM84.1903 43.7088C84.5286 44.2238 84.7279 45.0637 85.1172 46.748C85.5869 48.6972 85.8632 50.6882 85.942 52.6918C86.045 53.3199 85.9645 53.9644 85.7103 54.5478C85.2469 55.4758 84.1532 56.2043 83.2032 56.0372C82.8557 55.9769 82.3783 55.7681 82.332 55.4665C82.2856 55.1649 82.712 55.0025 83.0271 54.5385C83.3482 53.9902 83.4693 53.3474 83.37 52.7197C83.231 51.0789 83.0067 49.4465 82.6981 47.8291C82.2347 44.8409 82.7213 44.4373 82.1837 43.1056C81.9395 42.5059 81.8136 41.8646 81.813 41.2171C81.813 40.6742 81.9103 40.0061 82.0586 39.9968C82.2069 39.9875 82.2764 40.5907 82.522 41.2821C82.99 42.4885 83.6249 42.8086 84.2042 43.7088H84.1903ZM83.9401 42.1265C83.9401 41.9827 83.991 41.7971 84.0745 41.7832C84.1579 41.7693 84.3525 42.1683 84.6074 42.6555C85.0708 43.5835 85.284 43.4953 85.5342 44.0985C85.8725 44.9337 85.7984 45.8478 85.6733 45.871C85.6223 45.871 85.5528 45.7318 85.4508 45.523C85.2775 45.1183 85.1455 44.697 85.0569 44.2656C84.9782 43.8905 84.8372 43.5314 84.6398 43.203C84.3154 42.688 83.9493 42.5302 83.954 42.1219L83.9401 42.1265ZM77.276 48.6968C77.1854 49.6225 77.1854 50.555 77.276 51.4808C77.3965 52.3531 77.5726 52.8032 77.4336 52.8728C77.2158 52.9841 76.4187 52.0561 75.946 51.0492C75.476 50.0009 75.2921 48.8465 75.4131 47.7038C75.4871 46.4161 75.9066 45.1723 76.6272 44.1032C77.6468 42.6184 79.1436 41.7182 79.2595 41.8342C79.2966 41.8713 79.1622 42.0755 78.8934 42.4792C78.3744 43.2541 78.1519 43.7598 77.9665 44.08C77.7812 44.4001 77.5031 45.008 77.3641 46.4C77.2682 47.1616 77.2434 47.9305 77.2899 48.6968H77.276ZM78.05 48.6968C78.138 46.1587 78.2029 45.7643 78.3373 45.2771C78.5837 44.4541 78.9259 43.663 79.3568 42.92C79.7553 42.1683 80.5107 40.7438 80.8907 40.8598C81.0715 40.9155 81.0483 41.2774 81.1827 42.2843C81.2661 42.9246 81.4144 43.551 81.521 44.1867C82.091 47.7038 82.1234 47.8987 82.2347 48.6225C82.4903 50.0129 82.5821 51.4285 82.5081 52.8403C82.4906 53.546 82.219 54.2216 81.7434 54.7427C81.5803 54.9191 81.3744 55.0502 81.1456 55.1232C80.2651 55.3737 79.3754 54.4782 79.1668 54.2648C78.814 53.9051 78.5381 53.4773 78.3558 53.0073C77.999 52.0932 77.9712 51.3276 78.0639 48.7153L78.05 48.6968ZM86.4843 52.7568C86.4147 51.9401 86.6604 51.9958 86.6835 50.9518C86.7113 49.8057 86.4333 49.0448 86.5213 49.0216C86.6094 48.9984 86.855 49.6294 86.9847 50.0609C87.1484 50.524 87.2543 51.0056 87.2999 51.4947C87.4065 52.7753 86.9291 52.8125 86.994 54.0281C86.994 54.2137 87.0357 54.5664 86.8318 54.7148C86.6279 54.8633 86.4472 54.8169 86.3684 54.7148C86.2896 54.6128 86.4101 54.4272 86.475 54.2972C86.7391 53.8332 86.5538 53.4249 86.4982 52.78L86.4843 52.7568Z" fill="#8D9FB0"/>
</svg>
