<svg width="118" height="115" viewBox="0 0 118 115" fill="none" xmlns="http://www.w3.org/2000/svg">
<path d="M116.647 57.5C116.647 88.9754 90.8642 114.5 59.0486 114.5C27.233 114.5 1.45019 88.9754 1.45019 57.5C1.45019 26.0246 27.233 0.499995 59.0486 0.499995C90.8642 0.499995 116.647 26.0246 116.647 57.5Z" stroke="#8D9FB0"/>
<path d="M27.0183 77.6255C27.0183 77.2085 26.9535 76.8178 26.7888 76.4881C26.9744 76.7652 27.0828 77.1335 27.0828 77.6052C27.0828 78.2022 26.9385 78.6142 26.6868 78.9147C26.9245 78.555 27.0183 78.1075 27.0183 77.6255ZM24.0939 79.1856V79.5365H24.0703V75.7549H24.0939V76.0856V79.1856Z" fill="#8D9FB0" stroke="#8D9FB0"/>
<path d="M31.1134 79.1856V79.5163H31.0898V75.7549H31.1134V76.0856V77.1189V77.4496V77.6189V77.9496V79.1856Z" fill="#8D9FB0" stroke="#8D9FB0"/>
<path d="M37.7095 79.2534L38.3096 79.2093L38.1975 79.5365H37.8065L37.7095 79.2534Z" fill="#8D9FB0" stroke="#8D9FB0"/>
<path d="M43.3341 79.1856V79.5163H43.3105V75.7549H43.3341V76.0856V77.1189V77.4496V77.6189V77.9496V79.1856Z" fill="#8D9FB0" stroke="#8D9FB0"/>
<path d="M49.1486 79.1856V79.5163H49.125V75.7549H49.1486V79.1856Z" fill="#8D9FB0" stroke="#8D9FB0"/>
<path d="M54.7764 77.6243C54.7764 77.0001 54.9186 76.558 55.1457 76.2515C54.9121 76.6364 54.8204 77.117 54.8204 77.6446C54.8204 78.0895 54.8856 78.5115 55.0556 78.8605C54.8816 78.5635 54.7764 78.1612 54.7764 77.6243ZM57.8623 76.1349C57.8328 76.0948 57.8019 76.0569 57.7697 76.021C57.817 76.0589 57.8615 76.0995 57.9036 76.1429C58.1821 76.4503 58.3621 76.9221 58.3621 77.6243C58.3621 78.3266 58.182 78.7985 57.9035 79.1059C57.8903 79.1195 57.8767 79.1329 57.8628 79.1461C57.8641 79.1443 57.8655 79.1425 57.8668 79.1407C58.1639 78.7462 58.2672 78.2175 58.2566 77.6397C58.256 77.0597 58.1531 76.5298 57.8623 76.1349Z" fill="#8D9FB0" stroke="#8D9FB0"/>
<path d="M62.3957 77.8346V77.9836V78.3346V79.5365H62.3721V75.7549H62.3957V76.0653V77.4836V77.8346ZM64.4361 77.5126C64.6076 77.2976 64.6644 77.044 64.6839 76.793L64.6854 76.7736V76.7542C64.6854 76.4866 64.6171 76.2623 64.4989 76.0774C64.6211 76.2017 64.709 76.4084 64.709 76.7542C64.709 77.1275 64.599 77.365 64.4361 77.5126Z" fill="#8D9FB0" stroke="#8D9FB0"/>
<path d="M68.9956 75.7882H68.6357V75.7549H69.1628L69.1735 75.7882H69.016H68.9956ZM72.2637 75.7549H72.8152V75.8085H72.3939H72.3734H72.246L72.2637 75.7549Z" fill="#8D9FB0" stroke="#8D9FB0"/>
<path d="M77.0539 79.1856V79.5163H77.0303V75.7549H77.0539V76.0856V77.1189V77.4496V77.6189V77.9496V79.1856Z" fill="#8D9FB0" stroke="#8D9FB0"/>
<path d="M86.1004 79.3209V79.5365H85.599L85.4741 79.3209H85.7201H85.7406H86.1004ZM82.8423 75.93V75.7549H83.3454L83.4479 75.93H83.2226H83.2021H82.8423Z" fill="#8D9FB0" stroke="#8D9FB0"/>
<path d="M91.195 76.0856V75.7549H91.2185V76.0856V79.5163H91.195V76.0856Z" fill="#8D9FB0" stroke="#8D9FB0"/>
<path d="M99.9689 51.3356L99.9513 51.374L97.5574 46.0747L97.1027 45.0683L96.6464 46.074L92.2245 55.8195L91.9039 56.5261H92.6798H97.5976L96.8142 58.2411H91.4515H91.1298L90.9965 58.5338L88.2228 64.6233H86.311L95.8476 43.5996H98.3554L100.843 49.1003L100.914 49.2565L100.913 49.2581L101.007 49.4655L107.874 64.603H106.001L100.423 52.3343L99.9689 51.3356Z" fill="#8D9FB0" stroke="#8D9FB0"/>
<path d="M70.1723 55.4856L70.9195 53.8517H70.9381H79.9091C79.9664 54.2546 79.9984 54.6469 79.9984 55.0131C79.9984 58.0071 79.1127 60.3209 77.383 62.0327L77.3779 62.0378L77.3729 62.043C75.4119 64.0991 72.8061 65.1501 69.546 65.1501C68.1874 65.1501 66.9326 64.936 65.7586 64.5293L65.5326 64.451L65.488 64.4338C64.0791 63.8916 62.8072 63.0789 61.6689 61.9524C59.534 59.8198 58.459 57.213 58.459 54.1013C58.459 50.9679 59.5146 48.3827 61.6673 46.2518C63.8238 44.1373 66.4402 43.0728 69.546 43.0728C71.1208 43.0728 72.615 43.3649 74.0113 43.9098L74.0113 43.9099L74.0153 43.9114C74.2056 43.9838 74.3984 44.0684 74.5854 44.1572L73.8381 45.7906C73.6665 45.6978 73.4661 45.5944 73.2551 45.5133C72.1044 45.0206 70.8727 44.7878 69.5665 44.7878C67.0237 44.7878 64.8283 45.6673 63.0528 47.4245L63.0527 47.4245L63.0485 47.4289C61.2919 49.2102 60.4069 51.4463 60.4069 54.1013C60.4069 56.7564 61.2919 58.9925 63.0485 60.7738L63.0488 60.7742C63.9431 61.6794 64.9744 62.3428 66.0886 62.7604L66.0753 62.7894L66.6052 62.9642C67.5212 63.2664 68.5164 63.4149 69.5665 63.4149C71.8943 63.4149 73.8567 62.7782 75.4356 61.4543C77.0233 60.123 77.9135 58.2945 78.1501 56.0378L78.208 55.4856H77.6529H70.1723Z" fill="#8D9FB0" stroke="#8D9FB0"/>
<path d="M15.8091 63.0558C16.4258 63.3042 17.0627 63.4157 17.7143 63.4157C19.1096 63.4157 20.2923 63.0688 21.2399 62.314C22.205 61.5451 22.6786 60.5045 22.6566 59.2438C22.6555 58.1805 22.2743 57.2585 21.4757 56.5137C20.9343 56 20.0905 55.5189 18.9882 55.0571L19.0154 54.9977L18.4851 54.8227C18.3893 54.7911 18.294 54.7564 18.1886 54.7179C18.1689 54.7107 18.1487 54.7034 18.1282 54.6959C18.0055 54.6513 17.8715 54.6034 17.7298 54.5599C15.9377 53.9074 14.8566 53.497 14.4642 53.2935L14.4642 53.2935L14.4604 53.2916C13.3397 52.7226 12.5276 52.0391 11.9949 51.2494C11.4648 50.4636 11.1924 49.5449 11.1924 48.4696C11.1924 47.0059 11.7751 45.7611 12.9869 44.6925C14.2158 43.6265 15.7325 43.0939 17.5505 43.0939C19.162 43.0939 20.5327 43.4959 21.6863 44.3007L21.6862 44.3008L21.697 44.308C22.0773 44.5588 22.4278 44.8657 22.729 45.179L21.8384 47.1222C21.5349 46.5791 21.1167 46.1066 20.5732 45.699L20.5712 45.6976C19.7321 45.0747 18.7211 44.7886 17.571 44.7886C16.3627 44.7886 15.3124 45.1449 14.442 45.8235C13.5667 46.4808 13.0994 47.375 13.0994 48.4696C13.0994 49.371 13.4741 50.1694 14.1614 50.8026L14.1703 50.8109L14.1797 50.8187C14.9154 51.433 16.433 52.1259 18.6605 52.8742L18.6631 52.8751C18.7527 52.9046 18.8379 52.9367 18.932 52.9721C18.9542 52.9804 18.977 52.989 19.0003 52.9977C19.0784 53.0269 19.1633 53.058 19.2521 53.0865L19.6202 53.2305C21.3419 53.9042 22.5502 54.6775 23.2959 55.5263L23.2961 55.5264C24.1674 56.5172 24.6053 57.7532 24.6251 59.2516C24.6243 61.0507 23.9708 62.4443 22.6614 63.5194C21.3093 64.5926 19.6434 65.1306 17.6733 65.1306C16.5123 65.1306 15.4387 64.9012 14.4656 64.448L14.1848 64.3172C13.8104 64.1113 13.4549 63.8878 13.0997 63.629C11.8905 62.7086 11.0145 61.4857 10.4886 59.9435L12.3062 59.2051C12.4838 59.6974 12.7069 60.1624 12.9679 60.5827C13.3244 61.1773 13.7487 61.663 14.2367 62.0801L14.2439 62.0862L14.2512 62.092C14.4243 62.229 14.5964 62.3519 14.7767 62.4704L14.7444 62.5408L15.1792 62.756C15.2211 62.7767 15.2652 62.7991 15.3112 62.8225C15.4622 62.8992 15.6329 62.9859 15.8091 63.0558ZM15.8091 63.0558C15.8096 63.056 15.8101 63.0562 15.8106 63.0564L15.9946 62.5915L15.8076 63.0552C15.8081 63.0554 15.8086 63.0556 15.8091 63.0558Z" fill="#8D9FB0" stroke="#8D9FB0"/>
<path d="M45.6251 49.2235L45.6182 49.2384L45.7133 49.4465L52.6574 64.6435H50.7484L45.1699 52.3548L44.7166 51.3563L44.6869 51.4212L42.3654 46.2971L41.9124 45.2972L41.4554 46.2953L37.0949 55.8179L36.7706 56.5261H37.5495H42.3489L41.5541 58.2613H41.5415H36.3621H36.041L35.9074 58.5533L33.1213 64.6435H30.9296L40.5429 43.6199H43.0863L45.5694 49.1006L45.6251 49.2235Z" fill="#8D9FB0" stroke="#8D9FB0"/>
</svg>
