<svg width="78" height="85" viewBox="0 0 78 85" fill="none" xmlns="http://www.w3.org/2000/svg">
<path d="M78 0H0V85H78V0Z" fill="white"/>
<path d="M11.112 60.9025C11.112 61.2766 11.5917 61.4235 13.3516 61.4235C15.2875 61.4235 15.532 61.2983 15.532 61.0648C15.532 60.8159 15.3996 60.6907 13.0713 60.618C9.93151 60.516 9.09674 60.0011 9.09674 58.8648C9.09674 57.6542 10.2056 57.0234 13.2052 57.0234C16.3979 57.0234 17.4025 57.4192 17.4025 58.6963C17.4025 58.806 17.4025 58.9158 17.3947 59.041C17.1735 59.0271 16.781 59.0194 16.4041 59.0194C16.0132 59.0194 15.6208 59.0271 15.3996 59.041V58.9019C15.3996 58.5277 15.1333 58.4025 13.1756 58.4025C11.3721 58.4025 11.1074 58.5123 11.1074 58.7334C11.1074 58.9529 11.2475 59.0488 13.7238 59.174C16.658 59.3209 17.5582 59.746 17.5582 60.9782C17.5582 62.2614 16.5319 62.8783 13.3765 62.8783C10.1542 62.8783 9.05469 62.3434 9.05469 61.2271C9.05469 61.0957 9.06247 60.955 9.08428 60.8097C9.34281 60.8391 9.73372 60.8607 10.1044 60.8607C10.4813 60.8607 10.8364 60.853 11.1167 60.8391V60.9025H11.112Z" fill="black"/>
<path d="M27.2464 62.7004C27.276 61.915 27.2978 61.1528 27.3056 60.2437C27.3056 59.8696 27.3352 59.4661 27.357 59.078L27.3056 59.0641C27.1202 59.4305 26.9147 59.8124 26.6624 60.1355L24.7109 62.7035H23.6986L21.512 59.8139C21.2675 59.4908 21.0541 59.1105 20.8688 58.758L20.8174 58.7719C20.8392 59.1538 20.8688 59.5341 20.8766 59.9531C20.8844 60.9796 20.9062 61.8377 20.9498 62.7035H18.9688C19.0124 61.9119 19.0279 61.1111 19.0279 59.9454C19.0279 58.7426 19.0139 57.9201 18.9906 57.2012H21.9605C22.367 57.7948 22.9728 58.69 23.7344 59.783C23.9338 60.0613 24.1487 60.3767 24.3558 60.6998H24.3994C24.5988 60.369 24.7903 60.0536 24.9757 59.783C25.6843 58.7348 26.3493 57.7809 26.7496 57.2012H29.3722C29.3504 57.9201 29.3286 58.741 29.3286 59.9454C29.3286 61.1111 29.3364 61.9119 29.3878 62.7035H27.2464V62.7004Z" fill="black"/>
<path d="M37.9226 62.7001C37.8556 62.5393 37.6781 62.179 37.4351 61.7322C36.6673 61.7245 35.8902 61.7245 35.2999 61.7245C34.7611 61.7245 33.9699 61.7245 33.2239 61.7322C32.9731 62.1497 32.7738 62.5022 32.6772 62.7001H30.2461C31.302 61.2483 33.35 58.167 33.8297 57.1992H36.9041C37.4071 58.167 39.4536 61.2112 40.5547 62.7001H37.9226ZM34.842 59.0978C34.5913 59.4936 34.3032 59.9558 34.0213 60.4181C34.487 60.4258 34.9526 60.4258 35.3077 60.4258C35.6924 60.4258 36.1939 60.4258 36.6969 60.4181C36.4228 59.9481 36.1347 59.4796 35.8762 59.0823C35.6472 58.7375 35.4853 58.4515 35.3591 58.2242L34.842 59.0978Z" fill="black"/>
<path d="M47.7027 60.448C48.9953 60.5733 49.5871 60.7789 49.8239 61.6138C49.9563 62.0899 50.0746 62.4873 50.1712 62.6991H48.3319C48.0001 62.6991 47.941 62.6264 47.7556 61.9075C47.5936 61.2613 47.3491 61.1438 46.0051 61.1438H43.3606C43.3746 61.7668 43.4042 62.3033 43.4494 62.6991H41.3359C41.35 61.8998 41.3655 61.1298 41.3655 59.9487C41.3655 58.7829 41.3577 57.9898 41.3359 57.1982H46.8336C48.8365 57.1982 49.774 57.7193 49.774 58.834C49.774 59.7801 49.1526 60.2641 47.7058 60.4187V60.448H47.7027ZM46.1873 59.774C47.3772 59.774 47.8055 59.5761 47.8055 59.1725C47.8055 58.7551 47.385 58.6144 46.2091 58.6144C45.6469 58.6144 44.0739 58.6222 43.3279 58.6438C43.3279 59.0179 43.3279 59.3921 43.3357 59.7508C43.8683 59.774 44.9974 59.774 46.1873 59.774Z" fill="black"/>
<path d="M58.4672 57.1982C58.4532 57.4116 58.4532 57.7332 58.4532 58.0192C58.4532 58.2975 58.4532 58.6423 58.4672 58.8773C57.4409 58.8479 56.4208 58.8479 55.5331 58.8479C55.5331 60.6892 55.5409 62.2801 55.5627 62.7068C55.2901 62.6852 54.8307 62.6852 54.5207 62.6852C54.2108 62.6852 53.7747 62.6852 53.4788 62.7068C53.5006 62.2817 53.5162 60.697 53.5162 58.8479C52.63 58.8479 51.6099 58.8479 50.582 58.8773C50.5898 58.6423 50.5898 58.3052 50.5898 58.0192C50.5898 57.7332 50.5898 57.4178 50.582 57.1982H58.4672Z" fill="black"/>
<path d="M13.7334 71.7502C10.2899 71.7502 8.87891 70.5319 8.87891 68.7354C8.87891 66.8647 10.4379 65.75 13.7334 65.75C17.0289 65.75 18.5879 66.8647 18.5879 68.7354C18.5879 70.5335 17.1768 71.7502 13.7334 71.7502ZM16.5118 68.7432C16.5118 67.8403 15.7954 67.3424 13.7334 67.3424C11.6714 67.3424 10.9549 67.8418 10.9549 68.7432C10.9549 69.6306 11.6636 70.1593 13.7334 70.1593C15.811 70.1593 16.5118 69.6306 16.5118 68.7432Z" fill="black"/>
<path d="M26.2886 69.2498C27.5813 69.375 28.1731 69.5806 28.4098 70.4155C28.5422 70.8917 28.6606 71.289 28.7571 71.5008H26.9178C26.5861 71.5008 26.5269 71.4282 26.3416 70.7093C26.1796 70.063 25.9351 69.9455 24.591 69.9455H21.9465C21.9605 70.5686 21.9901 71.105 22.0353 71.5008H19.9219C19.9359 70.7015 19.9515 69.9316 19.9515 68.7504C19.9515 67.5847 19.9437 66.7916 19.9219 66H25.4196C27.4224 66 28.36 66.521 28.36 67.6357C28.36 68.5819 27.7386 69.0658 26.2917 69.2204V69.2498H26.2886ZM24.7732 68.5757C25.9631 68.5757 26.3914 68.3778 26.3914 67.9743C26.3914 67.5569 25.9709 67.4162 24.795 67.4162C24.2328 67.4162 22.6598 67.4239 21.9138 67.4456C21.9138 67.8197 21.9138 68.1938 21.9216 68.5525C22.4542 68.5757 23.5849 68.5757 24.7732 68.5757Z" fill="black"/>
<path d="M36.6296 71.5008C36.5627 71.34 36.3851 70.9798 36.1422 70.533C35.3744 70.5253 34.5972 70.5253 34.0069 70.5253C33.4681 70.5253 32.6769 70.5253 31.9309 70.533C31.6802 70.9504 31.4808 71.3029 31.3843 71.5008H28.9531C30.0091 70.0491 32.0571 66.9678 32.5367 66H35.6111C36.1141 66.9678 38.1606 70.012 39.2617 71.5008H36.6296ZM33.5491 67.8985C33.2983 68.2943 33.0102 68.7566 32.7283 69.2189C33.194 69.2266 33.6596 69.2266 34.0147 69.2266C34.3994 69.2266 34.9009 69.2266 35.404 69.2189C35.1298 68.7489 34.8417 68.2804 34.5832 67.8831C34.3543 67.5383 34.1923 67.2523 34.0661 67.025L33.5491 67.8985Z" fill="black"/>
<path d="M48.9361 66.001C48.9143 66.6766 48.9065 67.5779 48.9065 68.7452C48.9065 69.9558 48.9065 70.769 48.9205 71.5034H46.8149C46.3788 71.0117 44.0816 69.4564 42.8107 68.5767C42.5008 68.3572 42.1831 68.1361 41.9246 67.9026C41.9541 68.3432 41.9619 68.7823 41.976 69.2307C41.9837 70.367 41.99 71.1663 42.0133 71.5049H40.1133C40.1133 70.7644 40.1351 69.9279 40.1351 68.7545C40.1351 67.5888 40.1351 66.7524 40.1133 66.0041H42.5226C42.7952 66.3566 45.3306 68.1453 46.4613 68.9168C46.7276 69.0931 46.994 69.2322 47.1933 69.4224C47.1637 69.0189 47.1497 68.6308 47.1497 68.3293C47.1497 67.3105 47.1279 66.3937 47.0983 66.0041H48.9361V66.001Z" fill="black"/>
<path d="M55.1871 71.6776C52.0769 71.6776 50.2656 70.7901 50.2656 68.7138C50.2656 66.5277 52.1501 65.8242 55.0765 65.8242C57.8689 65.8242 59.5977 66.2788 59.5977 67.9222C59.5977 67.9732 59.5977 68.032 59.5899 68.083C59.3687 68.0675 58.9763 68.0613 58.5994 68.0613C58.1929 68.0613 57.8082 68.0691 57.5793 68.083C57.5793 68.0536 57.5871 68.0242 57.5871 67.9949C57.5871 67.4816 56.8847 67.3192 55.0671 67.3192C53.1453 67.3192 52.3479 67.7089 52.3479 68.7493C52.3479 69.6955 53.0939 70.2011 55.1855 70.2011C56.7445 70.2011 57.4313 69.9661 57.6307 69.4683C56.6043 69.4683 55.2213 69.476 54.3056 69.4976C54.3134 69.3879 54.3134 69.1529 54.3134 69.0431C54.3134 68.8452 54.3134 68.6689 54.3056 68.5298C55.5032 68.5514 56.7289 68.5453 57.6229 68.5453C58.1695 68.5453 58.8719 68.553 59.6039 68.5298C59.7394 70.5103 59.2364 71.6776 55.1871 71.6776Z" fill="black"/>
<path d="M68.9511 66.001C68.9433 66.1618 68.9371 66.4184 68.9371 66.6472C68.9371 66.8822 68.9371 67.1466 68.9511 67.2997C67.4139 67.2919 64.6355 67.2857 63.254 67.2857V68.1299C64.8504 68.1299 67.6351 68.1299 68.8701 68.1082C68.8623 68.3943 68.8561 68.9818 68.8623 69.2894C67.6506 69.2755 64.8348 69.2601 63.254 69.2601V70.1181C64.6355 70.1181 67.5105 70.1104 68.9511 70.1042C68.9371 70.2804 68.9371 70.5587 68.9371 70.8154C68.9371 71.0504 68.9371 71.3209 68.9511 71.5049H61.1406C61.1702 70.7566 61.1702 69.9279 61.1702 68.7545C61.1702 67.5888 61.1702 66.7446 61.1406 66.0041H68.9511V66.001Z" fill="black"/>
<path d="M18.3574 42.4599C17.9292 42.4599 17.5258 42.412 17.1489 42.313C15.8593 41.9729 14.9623 41.0437 14.5496 39.6229C11.2774 37.1245 9.33376 33.5964 9.07367 29.6803C8.78866 25.4039 10.4956 21.2064 13.8799 17.8607L14.1041 17.6396L14.1882 17.9411C15.4887 22.6287 22.2323 30.747 29.2189 36.0392L29.3871 36.1659L29.2376 36.3144C25.2958 40.2135 21.2698 42.4599 18.3574 42.4599ZM13.9219 18.3385C10.7604 21.5728 9.17023 25.5802 9.44122 29.6555C9.69508 33.4851 11.606 36.9343 14.8221 39.3694L14.8719 39.4065L14.8875 39.4652C15.2597 40.8056 16.0525 41.6451 17.2423 41.9574C17.5943 42.0502 17.9743 42.095 18.3761 42.095C21.1421 42.095 25.0014 39.9414 28.8264 36.2C21.9909 30.979 15.4217 23.091 13.9219 18.3385Z" fill="black"/>
<path d="M17.4398 42.3582C13.8717 39.6557 10.4236 35.4938 9.75391 33.0788L10.109 32.9814C10.7616 35.3314 14.1505 39.4068 17.6625 42.0676L17.4398 42.3582Z" fill="black"/>
<path d="M22.6049 41.1626C16.5201 36.5538 10.6424 29.4636 9.50391 25.3542L9.859 25.2568C10.9803 29.2998 16.7989 36.3049 22.8292 40.8719L22.6049 41.1626Z" fill="black"/>
<path d="M14.6396 39.6838C12.7458 38.9092 11.5466 37.5131 11.1713 35.6424C10.4829 32.2117 12.5932 27.671 16.8154 23.4951L17.0754 23.7533C12.9405 27.8426 10.8691 32.2597 11.5326 35.5698C11.8814 37.3137 13.0059 38.6186 14.7798 39.3437L14.6396 39.6838Z" fill="black"/>
<path d="M14.0539 39.9665C13.9543 39.9665 13.8717 39.934 13.811 39.8567C13.6848 39.6928 13.473 39.4207 15.8559 36.6919C17.3806 34.9449 19.5859 32.6398 22.2304 30.0254L22.4905 30.2836C16.6019 36.1075 14.3187 38.9631 14.1318 39.5892C14.2097 39.5676 14.3561 39.5088 14.6162 39.3589L14.8015 39.6743C14.529 39.8304 14.258 39.9665 14.0539 39.9665Z" fill="black"/>
<path d="M25.386 43.1048C23.486 43.1048 21.603 42.8373 19.8182 42.2946C18.8324 42.5064 17.9322 42.5188 17.1504 42.3132C15.8421 41.9684 14.9388 41.0176 14.5355 39.5643L14.3906 39.0417L14.8251 39.371C16.3358 40.5151 18.0397 41.3639 19.8463 41.922C22.4705 41.3283 25.7427 39.2581 28.9805 36.0562L29.0942 35.9434L29.2219 36.0408C32.1577 38.264 34.2633 39.3756 35.7491 39.8982C37.0371 39.1283 38.2425 38.2053 39.3265 37.1323L39.5507 36.9112L39.6348 37.2127C40.1753 39.1623 39.6473 40.0033 39.1084 40.3636C38.3998 40.8382 37.2567 40.8027 35.788 40.2986C32.6155 42.1539 28.9696 43.1048 25.386 43.1048ZM20.516 42.1168C25.3393 43.4032 30.8105 42.6951 35.3379 40.1363C33.6138 39.4653 31.4911 38.2099 29.1238 36.4288C26.1195 39.3741 23.0732 41.3577 20.516 42.1168ZM15.0712 40.0049C15.4917 41.0346 16.2206 41.6917 17.2438 41.9607C17.7967 42.106 18.4134 42.1354 19.0847 42.055C17.6596 41.5541 16.3078 40.8722 15.0712 40.0049ZM36.2054 40.0466C37.9388 40.5599 38.6926 40.2012 38.8997 40.0621C39.613 39.5844 39.5647 38.5222 39.3545 37.6147C38.3858 38.5408 37.3283 39.3524 36.2054 40.0466Z" fill="black"/>
<path d="M21.954 44.5776C20.9448 44.5776 19.3376 43.7984 17.4375 42.359L17.6602 42.0684C20.3639 44.1169 21.9244 44.44 22.4399 44.0952C22.7966 43.8556 22.7203 43.2619 22.5941 42.8058L22.9492 42.7084C23.2373 43.7443 22.943 44.1988 22.6471 44.3983C22.4664 44.5189 22.2328 44.5776 21.954 44.5776Z" fill="black"/>
<path d="M30.236 44.9392C28.5525 44.9392 25.8348 43.6111 22.6016 41.1637L22.8243 40.873C26.6773 43.7904 29.9479 45.1541 31.1533 44.3439C31.8277 43.8925 31.6969 42.818 31.4695 41.9955L31.8246 41.8981C32.2949 43.5956 31.8324 44.33 31.3605 44.647C31.0677 44.8433 30.6892 44.9392 30.236 44.9392Z" fill="black"/>
<path d="M24.4397 44.8836C24.0596 44.8836 23.6796 44.8666 23.3027 44.831C19.7627 44.5033 16.6588 42.6526 14.5625 39.6193L14.8662 39.4121C16.9002 42.3542 19.9091 44.1492 23.3386 44.4661C27.391 44.8418 31.6692 43.1226 35.0784 39.7507L35.3385 40.0089C32.166 43.1458 28.2507 44.8836 24.4397 44.8836Z" fill="black"/>
<path d="M27.3754 45.1616C27.3069 45.1616 27.2384 45.1616 27.1699 45.1601C22.426 45.1044 17.9531 43.144 14.5781 39.6407L14.8444 39.3887C18.1508 42.8193 22.5303 44.7395 27.1761 44.7952C27.2431 44.7952 27.31 44.7967 27.3786 44.7967C31.7004 44.7967 35.745 43.1471 38.7882 40.137L39.0483 40.3951C35.9319 43.4749 31.7954 45.1616 27.3754 45.1616Z" fill="black"/>
<path d="M25.3868 43.1033C21.487 43.1033 17.6589 41.9763 14.6001 39.6603L14.5503 39.6232L14.5347 39.5644C13.2093 34.7872 17.5577 25.5341 24.2296 18.9371L24.3433 18.8242L24.471 18.9216C31.5137 24.2555 38.315 32.4604 39.6341 37.2129L39.6621 37.3149L39.5858 37.3907C35.7826 41.1507 30.5216 43.1033 25.3868 43.1033ZM14.8727 39.4083C21.7923 44.6061 32.6896 43.6182 39.2494 37.2083C37.8882 32.5346 31.2661 24.5647 24.376 19.3097C17.88 25.7876 13.6392 34.7547 14.8727 39.4083Z" fill="black"/>
<path d="M22.5965 42.8035C21.9439 40.4535 18.5565 36.3782 15.043 33.7174L15.2657 33.4268C18.8337 36.1292 22.2803 40.2912 22.9515 42.7061L22.5965 42.8035Z" fill="black"/>
<path d="M31.4741 41.9936C30.3528 37.9507 24.5342 30.9456 18.5039 26.3785L18.7266 26.0879C24.8115 30.6967 30.6876 37.7868 31.8276 41.8962L31.4741 41.9936Z" fill="black"/>
<path d="M18.4345 40.3503C17.0313 40.3503 15.7448 40.1354 14.6406 39.684L14.7808 39.3469C20.1165 41.5269 29.8083 38.005 36.39 31.4961L36.6501 31.7543C31.3237 37.0217 23.9649 40.3503 18.4345 40.3503Z" fill="black"/>
<path d="M14.8064 39.6722L14.6211 39.3568C17.0195 37.97 24.3565 31.5137 30.9771 24.9678L31.2372 25.226C24.5979 31.792 17.2282 38.2731 14.8064 39.6722Z" fill="black"/>
<path d="M15.0322 39.9902L14.5976 39.6609C11.2975 37.1609 9.33512 33.6159 9.07348 29.6812C8.79159 25.4373 10.4705 21.2707 13.8034 17.9358C13.3097 16.0589 13.8283 15.2426 14.3578 14.887C15.9464 13.8218 19.7262 15.3292 24.467 18.9207L24.6352 19.0474L24.4857 19.1959C17.8994 25.7109 13.5931 34.8048 14.8858 39.4676L15.0322 39.9902ZM15.6567 14.938C15.0228 14.938 14.6926 15.105 14.5649 15.1901C13.7691 15.7234 13.9202 16.9804 14.1865 17.942L14.2145 18.0441L14.1382 18.1198C10.8318 21.3913 9.16225 25.4883 9.43947 29.6564C9.68243 33.3206 11.4439 36.6384 14.4139 39.0518C13.5184 34.1879 17.7203 25.4419 24.0761 19.0845C19.4739 15.626 16.9416 14.938 15.6567 14.938Z" fill="black"/>
<path d="M15.0397 33.7178C12.336 31.6709 10.7755 31.3462 10.26 31.691C9.90332 31.9306 9.97963 32.5243 10.1058 32.9804L9.75069 33.0778C9.46257 32.0419 9.75692 31.5874 10.0528 31.388C10.8907 30.8267 12.8375 31.5889 15.2624 33.4272L15.0397 33.7178Z" fill="black"/>
<path d="M18.5013 26.3811C14.6483 23.4636 11.3808 22.1 10.1723 22.9101C9.49794 23.3616 9.62876 24.4361 9.85614 25.2586L9.50105 25.356C9.03071 23.6584 9.49327 22.924 9.96672 22.6071C11.3481 21.681 14.6234 22.9828 18.7256 26.0904L18.5013 26.3811Z" fill="black"/>
<path d="M14.5578 39.6197C9.83878 32.7939 11.4414 21.8587 18.1289 15.2432L18.389 15.5014C11.8198 21.9978 10.2375 32.7243 14.8615 39.4125L14.5578 39.6197Z" fill="black"/>
<path d="M14.5783 39.6427C7.7911 32.602 7.72102 21.4828 14.4195 14.8564L14.6796 15.1146C8.12127 21.6003 8.19447 32.4907 14.8447 39.3891L14.5783 39.6427Z" fill="black"/>
<path d="M29.1235 36.4279L28.9958 36.3305C21.9531 30.9966 15.1519 22.7917 13.8327 18.0392L13.8047 17.9371L13.881 17.8614C20.5717 11.2443 31.7804 10.2254 38.8651 15.5918L38.915 15.6289L38.9305 15.6876C40.2559 20.4649 35.9076 29.718 29.2372 36.3134L29.1235 36.4279ZM14.2158 18.0453C15.577 22.719 22.1992 30.6889 29.0908 35.9439C35.5852 29.466 39.826 20.4989 38.591 15.8453C31.6714 10.6475 20.7757 11.6354 14.2158 18.0453Z" fill="black"/>
<path d="M34.7377 29.1636C28.6529 24.5548 22.7767 17.4646 21.6367 13.3552L21.9918 13.2578C23.1132 17.3007 28.9317 24.3059 34.962 28.8713L34.7377 29.1636Z" fill="black"/>
<path d="M38.1976 21.8261C34.6295 19.1236 31.1814 14.96 30.5117 12.5466L30.8668 12.4492C31.5194 14.7992 34.9068 18.8747 38.4203 21.5355L38.1976 21.8261Z" fill="black"/>
<path d="M17.0765 23.7568L16.8164 23.4986C23.4931 16.8954 33.3655 13.3395 38.8243 15.5705L38.6841 15.909C33.35 13.7276 23.6566 17.2479 17.0765 23.7568Z" fill="black"/>
<path d="M22.4906 30.2849L22.2305 30.0268C28.8682 23.4622 36.2379 16.9812 38.6597 15.582L38.845 15.8974C36.445 17.2842 29.1096 23.7374 22.4906 30.2849Z" fill="black"/>
<path d="M37.8136 40.6992C35.8731 40.6992 32.7318 39.1625 28.9924 36.3317L28.8242 36.2049L28.9737 36.0565C35.5601 29.543 39.8663 20.4491 38.5721 15.7862L38.4273 15.2637L38.8618 15.593C42.1619 18.0929 44.1243 21.638 44.3859 25.5727C44.6678 29.8166 42.9889 33.9832 39.6561 37.3165C40.1498 39.1934 39.6311 40.0097 39.1016 40.3653C38.7668 40.5895 38.3338 40.6992 37.8136 40.6992ZM29.3849 36.1662C36.2609 41.33 38.5129 40.3174 38.8976 40.0607C39.6934 39.5273 39.5424 38.2704 39.2761 37.3088L39.248 37.2067L39.3243 37.131C42.6307 33.8611 44.2987 29.7641 44.0215 25.5959C43.7786 21.9318 42.0171 18.614 39.0471 16.2006C39.9426 21.066 35.7407 29.8104 29.3849 36.1662Z" fill="black"/>
<path d="M42.3728 32.9372C40.6892 32.9372 37.9715 31.6091 34.7383 29.1618L34.961 28.8711C38.8141 31.7885 42.0831 33.1521 43.2901 32.342C43.9644 31.8905 43.8336 30.816 43.6062 29.9935L43.9613 29.8961C44.4317 31.5937 43.9691 32.3281 43.4972 32.645C43.2044 32.8398 42.826 32.9372 42.3728 32.9372Z" fill="black"/>
<path d="M42.7118 24.0444C41.7026 24.0444 40.0954 23.2652 38.1953 21.8258L38.418 21.5352C41.1217 23.5821 42.6822 23.9068 43.1977 23.562C43.5544 23.3224 43.4781 22.7287 43.3519 22.2726L43.707 22.1752C43.9951 23.2111 43.7008 23.6656 43.4049 23.865C43.2227 23.9841 42.9906 24.0444 42.7118 24.0444Z" fill="black"/>
<path d="M35.3304 40.0078L35.0703 39.7496C41.6395 33.2531 43.2218 22.5266 38.5979 15.84L38.9016 15.6328C43.6205 22.4586 42.0195 33.3923 35.3304 40.0078Z" fill="black"/>
<path d="M39.0439 40.3945L38.7838 40.1363C45.3406 33.6506 45.2674 22.7618 38.6172 15.8633L38.8835 15.6113C45.6707 22.652 45.7424 33.7697 39.0439 40.3945Z" fill="black"/>
<path d="M39.3611 37.6116L39.277 37.3101C37.9765 32.6225 31.2329 24.5042 24.2463 19.212L24.0781 19.0853L24.2276 18.9368C28.7488 14.4657 33.3806 12.1667 36.3148 12.9397C37.6043 13.2799 38.5029 14.209 38.9141 15.6298C42.1862 18.1283 44.1299 21.6563 44.39 25.5725C44.6734 29.8473 42.9681 34.0448 39.5854 37.3905L39.3611 37.6116ZM24.6372 19.0482C31.4728 24.2723 38.0435 32.1586 39.5433 36.9127C42.7049 33.68 44.2934 29.6726 44.0224 25.5972C43.767 21.7677 41.8576 18.3184 38.6416 15.8834L38.5917 15.8463L38.5761 15.7875C38.2039 14.4471 37.4112 13.6076 36.2213 13.2953C33.4429 12.5609 29.0183 14.7641 24.6372 19.0482Z" fill="black"/>
<path d="M43.6069 29.9917C42.4856 25.9488 36.667 18.9436 30.6367 14.3766L30.8594 14.0859C36.9443 18.6947 42.8204 25.7849 43.9604 29.8943L43.6069 29.9917Z" fill="black"/>
<path d="M43.3543 22.2723C42.7017 19.9223 39.3128 15.8469 35.8008 13.1862L36.0235 12.8955C39.5915 15.598 43.0397 19.76 43.7094 22.1749L43.3543 22.2723Z" fill="black"/>
<path d="M36.6507 31.7539L36.3906 31.4957C40.524 27.408 42.5954 22.9909 41.9319 19.6808C41.5831 17.9369 40.4602 16.632 38.6847 15.9069L38.8249 15.5684C40.7187 16.3429 41.9179 17.739 42.2932 19.6097C42.9816 23.0389 40.8713 27.5796 36.6507 31.7539Z" fill="black"/>
<path d="M31.2327 25.227L30.9727 24.9688C36.8597 19.1463 39.1429 16.2908 39.3298 15.6646C39.2519 15.6863 39.1055 15.745 38.8454 15.895L38.6601 15.5796C39.0666 15.3446 39.4668 15.1606 39.6506 15.3972C39.7768 15.5611 39.9886 15.8332 37.6057 18.5619C36.081 20.3074 33.8772 22.6126 31.2327 25.227Z" fill="black"/>
<path d="M24.3741 19.3076L24.2464 19.2102C21.3123 16.987 19.2051 15.8754 17.7193 15.3528C16.4313 16.1228 15.2259 17.0458 14.1403 18.1187L13.9161 18.3398L13.832 18.0383C13.2915 16.0888 13.8195 15.2477 14.3584 14.8875C15.067 14.4128 16.2101 14.4484 17.6788 14.9524C22.527 12.117 28.4935 11.3934 33.6455 12.958C34.6329 12.7462 35.533 12.7338 36.3133 12.9395C37.6215 13.2842 38.5264 14.235 38.9298 15.6883L39.0746 16.2109L38.6401 15.8816C37.1294 14.7375 35.4256 13.8887 33.619 13.3306C30.9947 13.9243 27.7226 15.9944 24.4863 19.1948L24.3741 19.3076ZM18.1273 15.1163C19.8514 15.7873 21.9742 17.0427 24.3414 18.8237C27.3441 15.8785 30.3904 13.8949 32.9477 13.1374C28.126 11.851 22.6547 12.5591 18.1273 15.1163ZM15.6573 14.937C15.0234 14.937 14.6932 15.1039 14.5655 15.189C13.8522 15.6667 13.9005 16.7288 14.1107 17.6363C15.0795 16.7103 16.1385 15.9001 17.2614 15.2044C16.587 15.005 16.0606 14.937 15.6573 14.937ZM34.3806 13.1976C35.804 13.6986 37.1559 14.3804 38.394 15.2477C37.9735 14.218 37.2446 13.561 36.2214 13.292C35.6685 13.1466 35.0502 13.1173 34.3806 13.1976Z" fill="black"/>
<path d="M30.6381 14.379C26.7851 11.4616 23.5145 10.098 22.3091 10.9081C21.6347 11.3596 21.7655 12.4341 21.9929 13.2566L21.6378 13.354C21.1675 11.6564 21.63 10.9221 22.1019 10.6051C23.4834 9.67904 26.7586 10.9808 30.8608 14.0884L30.6381 14.379Z" fill="black"/>
<path d="M35.8014 13.1844C33.0977 11.1375 31.5356 10.8128 31.0217 11.1591C30.665 11.3988 30.7414 11.9924 30.8675 12.4485L30.5124 12.5459C30.2243 11.5101 30.5186 11.0555 30.8145 10.8561C31.6509 10.2964 33.5977 11.0571 36.0241 12.8953L35.8014 13.1844Z" fill="black"/>
<path d="M38.6035 15.8403C36.5695 12.8982 33.5606 11.1032 30.1312 10.7863C26.0772 10.4121 21.8005 12.1298 18.3929 15.5017L18.1328 15.2435C21.6199 11.7958 26.0056 10.0395 30.1654 10.4229C33.7054 10.7507 36.8094 12.6013 38.9072 15.6347L38.6035 15.8403Z" fill="black"/>
<path d="M38.6242 15.8638C35.3162 12.4331 30.9383 10.5129 26.2925 10.4572C21.8866 10.4078 17.7719 12.0589 14.682 15.1155L14.4219 14.8573C17.5336 11.7791 21.6701 10.0908 26.0901 10.0908C26.1586 10.0908 26.2271 10.0908 26.2956 10.0924C31.0395 10.148 35.5124 12.1084 38.8889 15.6118L38.6242 15.8638Z" fill="black"/>
<path d="M26.6783 45.3498C26.359 45.3498 26.0226 45.3358 25.7688 45.3173C25.342 45.2879 24.7456 45.2261 23.9466 45.1271C23.4763 45.0684 22.8907 44.94 22.5325 44.8488C21.9438 44.6973 21.1557 44.4608 20.5701 44.2582C20.064 44.0835 18.9613 43.6275 18.0051 43.0832C17.5628 42.8328 16.3885 42.1649 15.1846 41.1414C14.5788 40.6266 13.6599 39.7979 12.6756 38.5502C12.3501 38.139 12.0993 37.7787 12.0978 37.7757C11.8455 37.4123 11.8455 37.4123 11.4608 36.8047C11.1633 36.3347 10.8503 35.7179 10.7164 35.455C10.517 35.0608 10.3068 34.5939 10.1791 34.2599C10.0841 34.0126 9.98594 33.7358 9.89093 33.4606C9.75388 33.0958 9.6324 32.7232 9.52806 32.3459C9.38633 31.7986 9.201 31.0766 9.12469 30.5247C9.05304 30.0114 8.97362 29.4254 8.93624 28.974C8.92066 28.7947 8.87239 28.1701 8.88484 27.6815L8.8864 27.6042C8.8973 27.1543 8.91132 26.5946 8.94403 26.1633C8.97362 25.786 9.03591 25.2666 9.10288 24.8414C9.35674 23.2521 9.76634 22.1034 9.78347 22.0554C9.90495 21.7199 10.1292 21.0938 10.3177 20.6516C10.4547 20.33 10.6774 19.8631 10.9142 19.404C11.2646 18.7222 11.8034 17.861 12.2535 17.258C12.8298 16.4881 13.5664 15.6301 14.1318 15.075C14.9884 14.234 15.3232 13.982 16.4383 13.1471C16.8261 12.8564 17.3743 12.5287 17.7512 12.3091C18.0954 12.1082 18.5813 11.8515 18.9878 11.6567C19.3803 11.4681 19.9394 11.23 20.4113 11.0507C20.6791 10.9486 21.0031 10.845 21.3177 10.7461C21.4547 10.7028 21.5871 10.6611 21.7055 10.6209C22.1462 10.4755 22.7287 10.3518 23.2395 10.2483C23.5168 10.1926 23.85 10.1431 24.1724 10.0967C24.3095 10.0766 24.4403 10.0581 24.5602 10.0395C25.0508 9.96224 25.6987 9.93287 26.2095 9.91741C26.6472 9.90195 27.1596 9.90658 27.5131 9.92668C28.0239 9.95606 28.7357 10.0225 29.3228 10.0967C30.156 10.2019 30.9005 10.3967 31.687 10.6039C32.2741 10.7585 33.0528 11.0306 33.6244 11.2795C34.1539 11.5114 34.5495 11.6923 34.8314 11.8361C35.188 12.0169 35.6646 12.2813 36.0166 12.4947C36.3826 12.7158 36.8015 12.9879 37.0834 13.1888C37.5039 13.4903 37.6456 13.5908 38.2764 14.1087C38.3449 14.1659 38.7047 14.4674 39.1766 14.9204C39.5363 15.2667 39.8369 15.593 39.9818 15.7491C40.1562 15.9393 40.5455 16.3876 40.7901 16.703C41.1856 17.2101 41.2557 17.3152 41.6497 17.8904C41.9457 18.3248 42.4689 19.2153 42.7524 19.8075C42.9704 20.262 43.3349 21.0242 43.6323 21.9271C43.9563 22.9073 44.179 23.77 44.2958 24.4905C44.4142 25.2202 44.5481 26.0442 44.573 27.227C44.601 28.5241 44.4842 29.5476 44.4126 30.0423C44.3394 30.5479 44.2039 31.491 43.8005 32.8159C43.5576 33.6152 43.1184 34.6418 42.7929 35.3623C42.6434 35.6931 42.4035 36.1338 42.0593 36.7089C41.9098 36.9609 41.712 37.2515 41.522 37.5314C41.4395 37.6551 41.3585 37.7726 41.2869 37.8823C41.019 38.2889 40.611 38.7852 40.3182 39.1145L40.2652 39.1748C39.9132 39.5706 39.4772 40.0623 39.0956 40.4024C39.0099 40.4797 38.9165 40.5632 38.8199 40.6513C38.5583 40.8879 38.2624 41.1553 38.0132 41.3563C37.669 41.6346 37.1613 42.0335 36.747 42.2948L36.462 42.4756C36.1661 42.6643 35.8297 42.8776 35.5525 43.0338C35.1242 43.2734 34.5635 43.5579 34.1586 43.7419C32.7273 44.3912 31.4923 44.7066 31.3568 44.7406C30.5142 44.9493 29.4116 45.1364 28.7216 45.2323C28.3463 45.2848 27.876 45.3034 27.4601 45.3204C27.3231 45.3266 27.1923 45.3312 27.0708 45.3374C26.9509 45.3467 26.8154 45.3498 26.6783 45.3498ZM12.5962 37.8375C12.6943 37.9705 12.822 38.1421 12.9653 38.323C13.9309 39.5459 14.8311 40.3576 15.4244 40.8631C16.6018 41.865 17.7543 42.5189 18.1873 42.7648C19.1233 43.2966 20.1964 43.7419 20.6916 43.9119C21.2679 44.1098 22.045 44.3433 22.6259 44.4932C23.0838 44.6107 23.6195 44.7174 23.9933 44.7638C24.7845 44.8627 25.3748 44.9246 25.7953 44.9524C26.1472 44.9772 26.6627 44.9957 27.0552 44.9756C27.1782 44.9694 27.3106 44.9632 27.4477 44.9586C27.8542 44.9416 28.3167 44.923 28.6734 44.8736C29.354 44.7793 30.4426 44.5953 31.2711 44.3897C31.4035 44.3572 32.6089 44.0495 34.0106 43.4126C34.4078 43.2317 34.9575 42.9534 35.3765 42.7184C35.6459 42.5684 35.9761 42.3566 36.2689 42.1711L36.5554 41.9886C36.9541 41.7382 37.4494 41.347 37.7874 41.0765C38.0288 40.8832 38.32 40.6188 38.5785 40.3854C38.6766 40.2973 38.7701 40.2122 38.8573 40.1349C39.2233 39.8087 39.6531 39.3263 39.9973 38.9367L40.0503 38.8764C40.3337 38.5564 40.7293 38.0756 40.9863 37.6844C41.0579 37.5747 41.1405 37.4541 41.2246 37.3304C41.4115 37.0537 41.6046 36.7676 41.7494 36.5249C42.0858 35.9621 42.3194 35.5339 42.4627 35.2154C42.7835 34.5042 43.2149 33.4931 43.4532 32.7123C43.8488 31.4137 43.9828 30.4891 44.0544 29.9928C44.1245 29.5089 44.2382 28.5071 44.2101 27.2362C44.1852 26.0798 44.0544 25.2681 43.9376 24.5523C43.8239 23.8489 43.6043 23.0063 43.2866 22.0431C42.9954 21.1634 42.6371 20.4135 42.4238 19.9667C42.1466 19.3885 41.6373 18.5212 41.3523 18.1037C40.9598 17.5302 40.8913 17.4281 40.5019 16.9287C40.2621 16.6211 39.8836 16.1835 39.7139 15.998C39.5722 15.8434 39.2762 15.5234 38.9243 15.1832C38.4617 14.738 38.1113 14.4458 38.0459 14.3917C37.4245 13.8815 37.2843 13.781 36.8716 13.4857C36.5975 13.2893 36.1879 13.0234 35.8297 12.807C35.4855 12.5983 35.0183 12.3401 34.6679 12.1623C34.3922 12.0216 34.0044 11.8438 33.4811 11.615C32.9251 11.3722 32.1682 11.1079 31.5966 10.9579C30.8226 10.7538 30.0906 10.5621 29.2808 10.4601C28.6998 10.3874 28.0006 10.3209 27.496 10.2915C27.1518 10.2715 26.6534 10.2684 26.2267 10.2823C25.7267 10.2993 25.0929 10.3271 24.6225 10.4013C24.5026 10.4199 24.3687 10.44 24.2316 10.4601C23.9139 10.5065 23.5853 10.5544 23.319 10.6085C22.9576 10.6827 22.2848 10.8188 21.827 10.9703C21.7055 11.0105 21.5731 11.0522 21.4345 11.097C21.1246 11.196 20.8037 11.2965 20.5468 11.3954C20.0842 11.5717 19.536 11.8051 19.1513 11.9891C18.7589 12.1777 18.2714 12.4328 17.9412 12.6261C17.5705 12.8425 17.0364 13.1626 16.6641 13.4409C15.5646 14.2649 15.2329 14.5138 14.395 15.3363C13.8421 15.8805 13.1179 16.72 12.5526 17.4776C12.1134 18.0651 11.5885 18.9077 11.2459 19.5725C11.0123 20.0255 10.7942 20.4831 10.6603 20.797C10.4765 21.2298 10.2538 21.8483 10.1339 22.1807C10.1168 22.227 9.71962 23.3448 9.47043 24.9002C9.40502 25.3099 9.34272 25.8293 9.31469 26.1927C9.28198 26.6147 9.26953 27.1698 9.25862 27.615L9.25707 27.6923C9.24928 28.0093 9.26797 28.4777 9.3069 28.9446C9.3474 29.4224 9.43928 30.0825 9.49379 30.4752C9.56699 31.0071 9.74921 31.7167 9.88315 32.2362C9.8847 32.2439 9.88626 32.2501 9.88938 32.2578C9.97815 32.5438 10.1012 32.9257 10.232 33.3107C11.1057 35.6467 12.6491 37.6999 14.7438 39.3093C14.7719 39.331 14.7983 39.3511 14.8264 39.3727L14.6037 39.6634C13.867 39.1037 13.1973 38.4946 12.5962 37.8375Z" fill="black"/>
</svg>
